<svg xmlns="http://www.w3.org/2000/svg" version="1.2" viewBox="0 0 1594 1084"><path fill="#071d49" fill-rule="evenodd" d="M1539.09 1083.8c-101.68 0-142.39-40.61-155.94-121.89l-27.1-115.17c-27.15 47.44-162.76 237.06-461.08 237.06h-305.1C128.84 1083.8 0 772.23 0 542 0 284.6 155.94.14 589.87.14h325.47c332.2 0 515.29 189.62 555.94 426.69 33.93 196.4 122.06 656.97 122.06 656.97h-54.25ZM867.86 169.48H610.19c-311.87 0-413.55 196.4-413.55 372.52 0 176.06 101.68 372.52 413.55 372.52h257.67c325.43 0 413.61-203.23 413.61-372.52 0-149.01-81.35-372.52-413.61-372.52Z"/></svg>