<svg xmlns="http://www.w3.org/2000/svg" version="1.2" viewBox="0 0 1465 1581"><path fill="#ff385c" fill-rule="evenodd" d="M1443.76 1120.36c5.34 13.66 9.68 27.7 12.95 41.99 3.23 14.29 5.43 28.84 6.5 43.44 1.1 14.64 1.1 29.34-.03 43.94-1.1 14.64-3.3 29.15-6.6 43.44a334.437 334.437 0 0 1-37.66 113.35 334.548 334.548 0 0 1-74.99 92.94 334.697 334.697 0 0 1-102.81 60.75 335.197 335.197 0 0 1-117.55 20.79c-17.37-.47-34.71-2.01-51.9-4.65-17.18-2.67-34.17-6.37-50.85-11.15a416.392 416.392 0 0 1-49.1-17.46 410.068 410.068 0 0 1-46.49-23.53c-62.67-36.53-125.81-88.85-194.89-164.39-69.08 75.54-130.74 127.86-194.89 163.92-11.97 7.1-24.31 13.6-36.94 19.48a420.043 420.043 0 0 1-38.73 15.64 415.93 415.93 0 0 1-40.12 11.65c-13.57 3.2-27.27 5.72-41.09 7.54-57.8 7.47-116.57-.29-170.51-22.46A335.199 335.199 0 0 1 71.1 1451.56c-35.88-45.98-59.12-100.53-67.51-158.26-8.35-57.73-1.57-116.66 19.76-170.96 7.89-20.73 15.77-39.48 23.69-56.76 12.31-28.64 25.16-55.31 36-80.97l2.95-2.98c108.56-236.98 226.46-477.89 347.34-714.87l4.93-9.89c12.85-23.18 25.16-48.37 37.5-74.06 15.81-28.11 33.05-58.23 56.27-86.88 24.5-29.96 55.38-54.08 90.37-70.67A261.17 261.17 0 0 1 734.3.07c38.7 0 76.93 8.61 111.89 25.19 34.99 16.59 65.87 40.71 90.38 70.67 25.16 28.65 40.46 58.77 56.26 86.88 12.81 23.71 25.16 49.37 37.47 72.58l4.97 9.9c122.82 236.98 238.77 477.88 347.3 714.86l1.51 1.48 36.5 82.45c7.89 17.3 15.3 37.53 23.18 56.78v-.5Zm-79.91 155.54c4.93-39.52 0-79-9.39-123.44-4.94-16.3-12.82-31.6-20.7-50.85-12.35-24.69-23.22-53.33-36.04-78.99l-1.47-1.48c-108.53-235.5-224.98-475.94-345.36-711.44l-4.93-9.86c-12.85-23.21-25.16-48.87-37.51-72.59-12.82-25.16-27.14-49.37-44.39-69.1a164.025 164.025 0 0 0-56.29-43.28 163.64 163.64 0 0 0-69.3-15.39c-23.93 0-47.59 5.25-69.26 15.39a164.155 164.155 0 0 0-56.3 43.28c-17.74 19.73-31.57 43.94-44.38 69.1-12.85 23.72-25.16 48.87-37.51 72.59l-4.93 9.86c-120.88 235.5-237.3 475.94-343.88 711.44l-1.98 3.45c-12.32 26.67-25.16 53.34-36 79-7.92 18.75-15.3 34.55-20.23 50.35-15.8 44.44-19.26 83.92-14.33 123.43 4.21 30.37 14.3 59.65 29.72 86.12 15.43 26.51 35.91 49.72 60.22 68.38a234.747 234.747 0 0 0 81.71 40.27 233.714 233.714 0 0 0 90.84 6.15c39.46-4.93 78.44-17.27 119.41-40.95a709.226 709.226 0 0 0 49.44-32.73 707.938 707.938 0 0 0 46.55-36.75 703.796 703.796 0 0 0 43.32-40.55c13.86-14.1 27.14-28.8 39.77-44-102.12-127.9-166.27-246.37-189.95-350.55-12.82-47.4-14.3-93.32-7.89-134.78 1.32-9.74 3.24-19.38 5.69-28.93 2.45-9.51 5.43-18.87 8.95-28.05 3.55-9.17 7.6-18.15 12.16-26.85 4.55-8.7 9.61-17.15 15.14-25.28 49.32-69.61 130.74-112.07 222-112.07 21.58-.41 43.13 1.82 64.17 6.66 21.02 4.8 41.41 12.19 60.63 21.98a264.216 264.216 0 0 1 53.53 36c16.3 14.16 30.82 30.25 43.19 47.93a268.15 268.15 0 0 1 14.96 25.28c4.52 8.67 8.57 17.59 12.12 26.73a262.96 262.96 0 0 1 9.2 27.89 271.1 271.1 0 0 1 6.16 28.71c4.93 40.99 3.46 85.4-7.88 134.78-23.69 104.18-86.36 221.18-189.96 349.54a773.568 773.568 0 0 0 40.24 43.32 780.61 780.61 0 0 0 43.45 40.1c14.98 12.79 30.44 25.04 46.36 36.63a779.528 779.528 0 0 0 49.04 33.01c40.46 23.68 79.94 36.53 119.4 41.46 40.46 4.46 81.89 0 119.4-15.8a234.347 234.347 0 0 0 52.9-30.44 233.775 233.775 0 0 0 43.32-43.03 233.842 233.842 0 0 0 30.72-52.76 235.163 235.163 0 0 0 16.15-58.89ZM893.66 909.07c7.88-35.05 9.86-68.12 4.93-96.77-2.96-25.19-12.35-46.89-25.16-66.65a162.746 162.746 0 0 0-26.96-29.74 164.266 164.266 0 0 0-33.39-22.27 163.47 163.47 0 0 0-37.85-13.38c-13.1-2.89-26.52-4.15-39.96-3.74-56.73 0-108.53 26.67-138.12 69.64-12.85 18.75-22.21 40.95-25.67 66.14-1.13 8.04-1.85 16.15-2.23 24.25-.35 8.14-.31 16.24.09 24.37.41 8.11 1.23 16.21 2.39 24.25 1.2 8.04 2.74 16.02 4.68 23.9 18.76 85.4 74.01 185.13 158.86 293.74C819.65 1093.72 874.9 993 893.66 909.07Z"/></svg>