<svg xmlns="http://www.w3.org/2000/svg" version="1.2" viewBox="0 0 1801 1529"><path fill-rule="evenodd" d="M865.6 2.92c66.94-4.22 134.64 2.5 199.24 20.67 32.35 10 64.51 21.54 93.78 38.81 43.58 24.98 82.14 60.39 106.31 104.8 21.51 38.97 31.86 83.06 36.06 127.09 4.72 50.18 3.71 100.66 3.6 151.01v285.49c.16 31.37-1.35 63.08 5.19 93.97 5.71 30.4 18.87 58.98 36.29 84.39 12.28 18.3 25.88 35.66 38.63 53.6 9.85 14.35 12.73 36.68-1.82 49-50.81 42.97-101.81 85.71-151.63 129.81-8.12 6.99-16.96 14.45-27.98 15.83-11.62 1.57-24.46-1.06-33.41-8.98-26.21-21.63-51.1-45.19-71.79-72.26-14.39-19.27-27.39-39.53-41.17-59.23-29.14 28.58-59.2 56.55-92.54 80.18-36.41 24.98-76.79 44.73-119.91 54.8-45.94 11.6-93.7 12.66-140.82 12.82-31.77-1.74-63.88-4.95-94.12-15.41-36.5-10.79-70.76-29.09-99.68-53.87-38.56-32.47-66.35-76.72-81.7-124.52-15.27-46.14-18.94-95.19-18.22-143.48 2.79-65.44 21.97-130.82 59.5-184.88 30.42-44.86 72.49-81.33 119.61-107.77 50.95-28.71 107.66-45.06 164.68-56.69 86.5-17.78 174.77-23.85 262.39-33.48-.51-36.56 1.78-73.28-2.63-109.68-3.71-31.57-15.8-63.74-40.63-84.72-29.29-24.92-69.27-34.68-107.14-32.29-42.81 1.03-86.25 16.77-116.76 47.42-19.99 19.99-32.87 46.32-38.51 73.86-3.31 15.77-13.29 31.82-29.57 36.41-6.36 2.63-13.15.74-19.65-.05-60.69-5.98-121.26-12.86-181.88-19.45-9.01-.56-17.36-4.97-24.33-10.45-9.55-7.76-12.95-21.07-10.38-32.85 12.21-71.42 46.49-139.53 99-189.78 54.83-53.65 127.08-86.19 201.01-103.66 39.73-9.13 80.24-14.93 120.98-16.46Zm4.59 619.41c-39.8 10.02-79.57 26.24-109.39 55.31-31.25 29.3-47.48 71.68-50.45 113.86-1.69 37.47 1.87 76.75 20.66 110 17.52 31.82 51.04 54.51 87.47 57.25 31.59 4.59 63.74-4.18 91.19-19.67 27.48-16.87 49.99-41.13 66.24-68.85 19.65-34.09 32.13-72.2 36.4-111.33 5.58-50.25 3.36-100.91 3.6-151.37-48.86.54-98.07 3.24-145.72 14.8Z"/><g fill="#ff9201"><path d="M1633.6 1124.04c31.64-3.28 63.66-2.72 95.16 1.53 21.2 2.92 43.28 6.45 61.65 18.12 6.18 3.67 7.82 11.18 9.04 17.72 3.12 20.44.97 41.22-1.96 61.54-6.43 40.18-18.43 79.49-35.73 116.34-17.26 37.8-40.78 73.21-71.59 101.34-5.84 5.24-11.42 11.9-19.51 13.45-4.54.52-10.7.27-12.89-4.5-3.05-6.97.79-14.19 3.06-20.73 15.4-38.36 30.22-76.99 41.96-116.63 6.86-23.97 13.31-48.41 13.87-73.46-.09-10.95-1.24-23.81-10.52-31.12-8.61-6.48-19.34-9.42-29.73-11.6-22.71-3.53-45.73-4.48-68.64-3.26-41.46.47-82.65 5.44-123.78 10.32-5.53.4-11.69 1.39-16.64-1.6-5.84-4.77-3.59-13.83 1.08-18.57 8.61-9.11 19.95-14.98 30.72-21.16 41.21-22.69 87.93-33.28 134.45-37.73Z"/><path d="M9.96 1159.09c10.23-4.76 20.12 2.16 28.76 7.02 119.93 69.19 248.86 121.92 381.58 160.93 46 12.39 92.01 25 138.89 33.7 26.3 4.88 52.45 10.75 78.94 14.57 49.35 7.18 98.84 13.81 148.62 17.27 118.43 8.59 237.84 5.98 355.52-10.21 96.37-11.8 191.23-33.81 284.27-61.2 59.63-17.7 117.71-40.16 175.41-63.3 14.88-5.89 35.66.86 39.91 17.43 3.5 12.9-6.12 24.6-16.24 31.25-61.16 44.12-127.37 81.24-196.76 110.74-100.17 43.56-206.09 73.24-313.68 91.68-50.63 7.51-101.45 14.88-152.69 16.43-51.56 3.49-103.29 1.55-154.83-1.21-73.39-5.47-146.44-15.92-218.14-32.47-44.77-11.63-89.67-23.05-133.09-39.06-161.86-56.37-312.13-145.23-440.02-259.28-5.42-5.01-12.54-9.57-13.85-17.44-1.64-6.5 1.28-13.88 7.4-16.85Z"/></g></svg>