<svg xmlns="http://www.w3.org/2000/svg" version="1.2" viewBox="0 0 1617 875"><path fill="#e31837" d="M806.28 874.26C1061.53 656 1420.09 443.8 1617 367.41c-30.39-19.4-77.79-47.29-131.27-77.61-254.04 83.67-550.61 269.19-815.59 478.97 44.97 33.95 92.38 69.11 136.14 105.49Z"/><path fill="#012169" d="M689.59 281.32c-37.68-18.19-79.01-35.17-110.61-49.72-96.02 47.29-221.22 118.83-379.23 231.6 34.04 18.19 70.5 40.02 109.39 61.84 121.55-89.73 244.32-174.61 380.45-243.72Z"/><path fill="#e31837" d="M916.88 177.03C870.7 151.57 710.25 92.16 599.64 66.69c-32.81 12.13-79 30.32-110.6 43.65 40.11 10.92 189.61 50.93 317.24 115.2 32.81-15.77 79-35.17 110.6-48.51Z"/><path fill="#012169" d="M373.57 161.27C231.35 226.75 81.85 316.48.41 368.62c29.17 13.34 58.35 24.25 98.46 43.65 179.89-121.25 320.88-195.22 376.8-219.47-40.12-14.55-77.8-24.25-102.1-31.53Z"/><path fill="#e31837" d="M1023.85 139.45c32.81-10.92 70.49-20.62 103.31-30.32C1032.35 69.12 913.24 26.68 806.28 0c-17.02 4.85-68.07 18.19-103.32 29.1 36.46 10.91 156.8 38.8 320.89 110.35ZM424.62 595.37c38.89 23.04 80.22 54.57 120.33 81.24 266.19-206.13 528.73-364.98 816.8-454.71-40.11-20.61-75.36-38.8-120.33-60.63-172.6 43.65-467.96 161.27-816.8 434.1Z"/></svg>