<svg xmlns="http://www.w3.org/2000/svg" version="1.2" viewBox="0 0 1095 1570"><path fill="#002e6d" d="M40.7 639.4C18.2 639.4 0 621.2 0 598.7 0 576.2 18.2 558 40.7 558c22.5 0 40.7 18.2 40.7 40.7 0 22.5-18.2 40.7-40.7 40.7zm0-186.2C18.2 453.2 0 435 0 412.5c0-22.4 18.2-40.6 40.7-40.6 22.5 0 40.7 18.2 40.7 40.6 0 22.5-18.2 40.7-40.7 40.7z"/><path d="M40.7 267.5C18.2 267.5 0 249.3 0 226.8c0-22.5 18.2-40.7 40.7-40.7 22.5 0 40.7 18.2 40.7 40.7 0 22.5-18.2 40.7-40.7 40.7zm0-186.1C18.2 81.4 0 63.2 0 40.7 0 18.2 18.2 0 40.7 0c22.5 0 40.7 18.2 40.7 40.7 0 22.5-18.2 40.7-40.7 40.7z"/><path fill="#002e6d" d="M185.4 639.4c-22.5 0-40.7-18.2-40.7-40.7 0-22.5 18.2-40.7 40.7-40.7 22.5 0 40.7 18.2 40.7 40.7 0 22.5-18.2 40.7-40.7 40.7zm0-186.2c-22.5 0-40.7-18.2-40.7-40.7 0-22.4 18.2-40.6 40.7-40.6 22.5 0 40.7 18.2 40.7 40.6 0 22.5-18.2 40.7-40.7 40.7z"/><path d="M185.4 267.5c-22.5 0-40.7-18.2-40.7-40.7 0-22.5 18.2-40.7 40.7-40.7 22.5 0 40.7 18.2 40.7 40.7 0 22.5-18.2 40.7-40.7 40.7zm0-186.1c-22.5 0-40.7-18.2-40.7-40.7 0-22.5 18.2-40.7 40.7-40.7 22.5 0 40.7 18.2 40.7 40.7 0 22.5-18.2 40.7-40.7 40.7z"/><path fill="#002e6d" d="M330 639.4c-22.5 0-40.7-18.2-40.7-40.7 0-22.5 18.2-40.7 40.7-40.7 22.5 0 40.7 18.2 40.7 40.7 0 22.5-18.2 40.7-40.7 40.7zm0-186.2c-22.5 0-40.7-18.2-40.7-40.7 0-22.4 18.2-40.6 40.7-40.6 22.5 0 40.7 18.2 40.7 40.6 0 22.5-18.2 40.7-40.7 40.7z"/><path d="M330 267.5c-22.5 0-40.7-18.2-40.7-40.7 0-22.5 18.2-40.7 40.7-40.7 22.5 0 40.7 18.2 40.7 40.7 0 22.5-18.2 40.7-40.7 40.7zm0-186.1c-22.5 0-40.7-18.2-40.7-40.7C289.3 18.2 307.5 0 330 0c22.5 0 40.7 18.2 40.7 40.7 0 22.5-18.2 40.7-40.7 40.7z"/><path fill="#002e6d" d="M474.7 639.4c-22.5 0-40.7-18.2-40.7-40.7 0-22.5 18.2-40.7 40.7-40.7 22.5 0 40.7 18.2 40.7 40.7 0 22.5-18.2 40.7-40.7 40.7zm144.7 0c-22.5 0-40.7-18.2-40.7-40.7 0-22.5 18.2-40.7 40.7-40.7 22.5 0 40.7 18.2 40.7 40.7 0 22.5-18.2 40.7-40.7 40.7zm0-186.2c-22.5 0-40.7-18.2-40.7-40.7 0-22.4 18.2-40.6 40.7-40.6 22.5 0 40.7 18.2 40.7 40.6 0 22.5-18.2 40.7-40.7 40.7z"/><path d="M619.4 267.5c-22.5 0-40.7-18.2-40.7-40.7 0-22.5 18.2-40.7 40.7-40.7 22.5 0 40.7 18.2 40.7 40.7 0 22.5-18.2 40.7-40.7 40.7zm0-186.1c-22.5 0-40.7-18.2-40.7-40.7 0-22.5 18.2-40.7 40.7-40.7 22.5 0 40.7 18.2 40.7 40.7 0 22.5-18.2 40.7-40.7 40.7z"/><path fill="#002e6d" d="M764 639.4c-22.5 0-40.6-18.2-40.6-40.7 0-22.5 18.1-40.7 40.6-40.7 22.6 0 40.7 18.2 40.7 40.7 0 22.5-18.1 40.7-40.7 40.7zm0-186.2c-22.5 0-40.6-18.2-40.6-40.7 0-22.4 18.1-40.6 40.6-40.6 22.6 0 40.7 18.2 40.7 40.6 0 22.5-18.1 40.7-40.7 40.7z"/><path d="M764 267.5c-22.5 0-40.6-18.2-40.6-40.7 0-22.5 18.1-40.7 40.6-40.7 22.6 0 40.7 18.2 40.7 40.7 0 22.5-18.1 40.7-40.7 40.7zm0-186.1c-22.5 0-40.6-18.2-40.6-40.7C723.4 18.2 741.5 0 764 0c22.6 0 40.7 18.2 40.7 40.7 0 22.5-18.1 40.7-40.7 40.7z"/><path fill="#002e6d" d="M908.7 639.4c-22.5 0-40.7-18.2-40.7-40.7 0-22.5 18.2-40.7 40.7-40.7 22.5 0 40.7 18.2 40.7 40.7 0 22.5-18.2 40.7-40.7 40.7zm0-186.2c-22.5 0-40.7-18.2-40.7-40.7 0-22.4 18.2-40.6 40.7-40.6 22.5 0 40.7 18.2 40.7 40.6 0 22.5-18.2 40.7-40.7 40.7z"/><path d="M908.7 267.5c-22.5 0-40.7-18.2-40.7-40.7 0-22.5 18.2-40.7 40.7-40.7 22.5 0 40.7 18.2 40.7 40.7 0 22.5-18.2 40.7-40.7 40.7zm0-186.1c-22.5 0-40.7-18.2-40.7-40.7C868 18.2 886.2 0 908.7 0c22.5 0 40.7 18.2 40.7 40.7 0 22.5-18.2 40.7-40.7 40.7z"/><path fill="#002e6d" d="M1053.4 639.4c-22.5 0-40.7-18.2-40.7-40.7 0-22.5 18.2-40.7 40.7-40.7 22.5 0 40.7 18.2 40.7 40.7 0 22.5-18.2 40.7-40.7 40.7zm0-186.2c-22.5 0-40.7-18.2-40.7-40.7 0-22.4 18.2-40.6 40.7-40.6 22.5 0 40.7 18.2 40.7 40.6 0 22.5-18.2 40.7-40.7 40.7z"/><path d="M1053.4 267.5c-22.5 0-40.7-18.2-40.7-40.7 0-22.5 18.2-40.7 40.7-40.7 22.5 0 40.7 18.2 40.7 40.7 0 22.5-18.2 40.7-40.7 40.7z"/><path fill="#002e6d" d="M474.7 453.2c-22.5 0-40.7-18.2-40.7-40.7 0-22.4 18.2-40.6 40.7-40.6 22.5 0 40.7 18.2 40.7 40.6 0 22.5-18.2 40.7-40.7 40.7z"/><path d="M474.7 267.5c-22.5 0-40.7-18.2-40.7-40.7 0-22.5 18.2-40.7 40.7-40.7 22.5 0 40.7 18.2 40.7 40.7 0 22.5-18.2 40.7-40.7 40.7zm0-186.1c-22.5 0-40.7-18.2-40.7-40.7C434 18.2 452.2 0 474.7 0c22.5 0 40.7 18.2 40.7 40.7 0 22.5-18.2 40.7-40.7 40.7z"/><path fill="#076ab1" d="M40.7 825.1C18.2 825.1 0 806.9 0 784.4c0-22.5 18.2-40.7 40.7-40.7 22.5 0 40.7 18.2 40.7 40.7 0 22.5-18.2 40.7-40.7 40.7zm0 186.1C18.2 1011.2 0 993 0 970.6c0-22.5 18.2-40.7 40.7-40.7 22.5 0 40.7 18.2 40.7 40.7 0 22.4-18.2 40.6-40.7 40.6z"/><path fill="#00aeef" d="M40.7 1197.4c-22.5 0-40.7-18.2-40.7-40.7 0-22.5 18.2-40.7 40.7-40.7 22.5 0 40.7 18.2 40.7 40.7 0 22.5-18.2 40.7-40.7 40.7zm0 185.7c-22.5 0-40.7-18.2-40.7-40.7 0-22.5 18.2-40.7 40.7-40.7 22.5 0 40.7 18.2 40.7 40.7 0 22.5-18.2 40.7-40.7 40.7zm0 186.1c-22.5 0-40.7-18.1-40.7-40.6s18.2-40.7 40.7-40.7c22.5 0 40.7 18.2 40.7 40.7 0 22.5-18.2 40.6-40.7 40.6z"/><path fill="#076ab1" d="M185.4 825.1c-22.5 0-40.7-18.2-40.7-40.7 0-22.5 18.2-40.7 40.7-40.7 22.5 0 40.7 18.2 40.7 40.7 0 22.5-18.2 40.7-40.7 40.7zm0 186.1c-22.5 0-40.7-18.2-40.7-40.6 0-22.5 18.2-40.7 40.7-40.7 22.5 0 40.7 18.2 40.7 40.7 0 22.4-18.2 40.6-40.7 40.6z"/><path fill="#00aeef" d="M185.4 1197.4c-22.5 0-40.7-18.2-40.7-40.7 0-22.5 18.2-40.7 40.7-40.7 22.5 0 40.7 18.2 40.7 40.7 0 22.5-18.2 40.7-40.7 40.7zm0 185.7c-22.5 0-40.7-18.2-40.7-40.7 0-22.5 18.2-40.7 40.7-40.7 22.5 0 40.7 18.2 40.7 40.7 0 22.5-18.2 40.7-40.7 40.7zm0 186.1c-22.5 0-40.7-18.1-40.7-40.6s18.2-40.7 40.7-40.7c22.5 0 40.7 18.2 40.7 40.7 0 22.5-18.2 40.6-40.7 40.6z"/><path fill="#076ab1" d="M330 825.1c-22.5 0-40.7-18.2-40.7-40.7 0-22.5 18.2-40.7 40.7-40.7 22.5 0 40.7 18.2 40.7 40.7 0 22.5-18.2 40.7-40.7 40.7zm0 186.1c-22.5 0-40.7-18.2-40.7-40.6 0-22.5 18.2-40.7 40.7-40.7 22.5 0 40.7 18.2 40.7 40.7 0 22.4-18.2 40.6-40.7 40.6z"/><path fill="#00aeef" d="M330 1197.4c-22.5 0-40.7-18.2-40.7-40.7 0-22.5 18.2-40.7 40.7-40.7 22.5 0 40.7 18.2 40.7 40.7 0 22.5-18.2 40.7-40.7 40.7zm0 185.7c-22.5 0-40.7-18.2-40.7-40.7 0-22.5 18.2-40.7 40.7-40.7 22.5 0 40.7 18.2 40.7 40.7 0 22.5-18.2 40.7-40.7 40.7zm0 186.1c-22.5 0-40.7-18.1-40.7-40.6s18.2-40.7 40.7-40.7c22.5 0 40.7 18.2 40.7 40.7 0 22.5-18.2 40.6-40.7 40.6z"/><path fill="#076ab1" d="M474.7 825.1c-22.5 0-40.7-18.2-40.7-40.7 0-22.5 18.2-40.7 40.7-40.7 22.5 0 40.7 18.2 40.7 40.7 0 22.5-18.2 40.7-40.7 40.7zm0 186.1c-22.5 0-40.7-18.2-40.7-40.6 0-22.5 18.2-40.7 40.7-40.7 22.5 0 40.7 18.2 40.7 40.7 0 22.4-18.2 40.6-40.7 40.6zm144.7 0c-22.5 0-40.7-18.2-40.7-40.6 0-22.5 18.2-40.7 40.7-40.7 22.5 0 40.7 18.2 40.7 40.7 0 22.4-18.2 40.6-40.7 40.6z"/><path fill="#00aeef" d="M619.4 1197.4c-22.5 0-40.7-18.2-40.7-40.7 0-22.5 18.2-40.7 40.7-40.7 22.5 0 40.7 18.2 40.7 40.7 0 22.5-18.2 40.7-40.7 40.7zm0 185.7c-22.5 0-40.7-18.2-40.7-40.7 0-22.5 18.2-40.7 40.7-40.7 22.5 0 40.7 18.2 40.7 40.7 0 22.5-18.2 40.7-40.7 40.7zm0 186.1c-22.5 0-40.7-18.1-40.7-40.6s18.2-40.7 40.7-40.7c22.5 0 40.7 18.2 40.7 40.7 0 22.5-18.2 40.6-40.7 40.6z"/><path fill="#076ab1" d="M764 1011.2c-22.5 0-40.6-18.2-40.6-40.6 0-22.5 18.1-40.7 40.6-40.7 22.6 0 40.7 18.2 40.7 40.7 0 22.4-18.1 40.6-40.7 40.6z"/><path fill="#00aeef" d="M764 1197.4c-22.5 0-40.6-18.2-40.6-40.7 0-22.5 18.1-40.7 40.6-40.7 22.6 0 40.7 18.2 40.7 40.7 0 22.5-18.1 40.7-40.7 40.7zm0 185.7c-22.5 0-40.6-18.2-40.6-40.7 0-22.5 18.1-40.7 40.6-40.7 22.6 0 40.7 18.2 40.7 40.7 0 22.5-18.1 40.7-40.7 40.7zm0 186.1c-22.5 0-40.6-18.1-40.6-40.6s18.1-40.7 40.6-40.7c22.6 0 40.7 18.2 40.7 40.7 0 22.5-18.1 40.6-40.7 40.6z"/><path fill="#076ab1" d="M908.7 1011.2c-22.5 0-40.7-18.2-40.7-40.6 0-22.5 18.2-40.7 40.7-40.7 22.5 0 40.7 18.2 40.7 40.7 0 22.4-18.2 40.6-40.7 40.6z"/><path fill="#00aeef" d="M908.7 1197.4c-22.5 0-40.7-18.2-40.7-40.7 0-22.5 18.2-40.7 40.7-40.7 22.5 0 40.7 18.2 40.7 40.7 0 22.5-18.2 40.7-40.7 40.7zm0 185.7c-22.5 0-40.7-18.2-40.7-40.7 0-22.5 18.2-40.7 40.7-40.7 22.5 0 40.7 18.2 40.7 40.7 0 22.5-18.2 40.7-40.7 40.7zm0 186.1c-22.5 0-40.7-18.1-40.7-40.6s18.2-40.7 40.7-40.7c22.5 0 40.7 18.2 40.7 40.7 0 22.5-18.2 40.6-40.7 40.6z"/><path fill="#076ab1" d="M1053.4 1011.2c-22.5 0-40.7-18.2-40.7-40.6 0-22.5 18.2-40.7 40.7-40.7 22.5 0 40.7 18.2 40.7 40.7 0 22.4-18.2 40.6-40.7 40.6z"/><path fill="#00aeef" d="M1053.4 1197.4c-22.5 0-40.7-18.2-40.7-40.7 0-22.5 18.2-40.7 40.7-40.7 22.5 0 40.7 18.2 40.7 40.7 0 22.5-18.2 40.7-40.7 40.7z"/><path fill="#076ab1" d="M619.4 825.1c-22.5 0-40.7-18.2-40.7-40.7 0-22.5 18.2-40.7 40.7-40.7 22.5 0 40.7 18.2 40.7 40.7 0 22.5-18.2 40.7-40.7 40.7zm144.6 0c-22.5 0-40.6-18.2-40.6-40.7 0-22.5 18.1-40.7 40.6-40.7 22.6 0 40.7 18.2 40.7 40.7 0 22.5-18.1 40.7-40.7 40.7zm144.7 0c-22.5 0-40.7-18.2-40.7-40.7 0-22.5 18.2-40.7 40.7-40.7 22.5 0 40.7 18.2 40.7 40.7 0 22.5-18.2 40.7-40.7 40.7z"/><path fill="#00aeef" d="M1053.4 1383.1c-22.5 0-40.7-18.2-40.7-40.7 0-22.5 18.2-40.7 40.7-40.7 22.5 0 40.7 18.2 40.7 40.7 0 22.5-18.2 40.7-40.7 40.7zm-578.7-185.7c-22.5 0-40.7-18.2-40.7-40.7 0-22.5 18.2-40.7 40.7-40.7 22.5 0 40.7 18.2 40.7 40.7 0 22.5-18.2 40.7-40.7 40.7zm0 185.7c-22.5 0-40.7-18.2-40.7-40.7 0-22.5 18.2-40.7 40.7-40.7 22.5 0 40.7 18.2 40.7 40.7 0 22.5-18.2 40.7-40.7 40.7zm0 186.1c-22.5 0-40.7-18.1-40.7-40.6s18.2-40.7 40.7-40.7c22.5 0 40.7 18.2 40.7 40.7 0 22.5-18.2 40.6-40.7 40.6z"/></svg>