<svg xmlns="http://www.w3.org/2000/svg" version="1.2" viewBox="0 0 1511 1700"><path fill="#00007b" fill-rule="evenodd" d="M.93.01c245.68.17 491.36.08 737.05.08 130.27-.25 262.62 5.61 387.8 45.14 72.69 21.69 142.95 56.53 199.28 108.28 103.24 95.13 127.27 257.08 75.36 384.54-18.36 49.15-57.33 85.66-95.13 120.17-67.77 55.52-149.8 92.61-235.42 109.78-.25 6.03-.67 18.09-.92 24.12 68.6 13.82 135.69 35.67 198.62 66.32 93.38 48.57 177.92 123.02 217.56 222.84 35.05 97.64 37.88 210.86-6.26 306.07-40.64 96.72-124.85 168.91-216.81 215.05-141.62 78.21-306.94 95.3-465.92 97.56-264.96.16-529.92.25-794.8-.09-.25-21.52-.16-43.04.84-64.48 62.75-4.6 137.61-5.02 181.92-57.36 35.3-37.01 36.72-91.61 38.31-139.77v-1181c0-53.34-6.43-115.31-51.74-150.56C122.68 70.02 58.92 68.59 1.26 64.32c0-21.43 0-42.87-.33-64.31Zm647.59 106.02c-3.51 5.02-10.52 15.15-14.02 20.18-5.6 20.68-11.77 41.53-11.52 63.14-.08 191.1.08 382.19 0 573.29 95.14-1.76 195.7-6.36 280.98-53.43 68.85-39.52 92.89-121.34 103.9-195.11 10.6-95.22 7.35-193.78-22.7-285.39-16.94-39.61-32.63-83.16-69.26-108.95-52.24-41.95-123.26-45.3-187.27-41.95-29.04.67-56.41 11.97-80.11 28.22ZM622.81 1463.3c-.66 36.68 2.17 76.21 23.12 107.61 23.7 34.33 67.93 45.72 107.32 47.15 79.61-.17 166.32-11.14 227.57-67.25 57.09-54.26 81.37-133.4 92.55-209.35 11.02-106.18 9.6-217.73-33.21-317.3-22.2-56.44-65.43-102.24-116.08-134.23-92.47-45.98-198.45-52.42-300.02-50.33-2.58 207.84-.16 415.77-1.25 623.7Z"/></svg>