<svg xmlns="http://www.w3.org/2000/svg" version="1.2" viewBox="0 0 1558 935"><path fill="#e50012" d="M1328.6 362c27.9 27.9 43.5 65.7 43.5 105.1 0 39.4-15.6 77.2-43.5 105-27.8 27.9-65.6 43.5-105 43.5h-108.8v-71h110c21.3 1.2 42.2-6.4 57.8-21.1 15.5-14.7 24.3-35.2 24.3-56.5 0-21.4-8.8-41.8-24.3-56.5-15.6-14.7-36.5-22.4-57.8-21.2h-123.5v226.3H1031V318.5h192.6c39.4 0 77.2 15.7 105 43.5zm-660.7-43.5V418c0 2.7.5 5.3 1.5 7.8s2.5 4.7 4.3 6.6c1.9 1.9 4.2 3.4 6.6 4.5 2.5 1 5.1 1.5 7.8 1.5h51.8v64.1h-64.5c-10.3 0-20.4-2-29.9-5.9-9.4-3.9-18-9.6-25.3-16.8-7.2-7.2-13-15.8-16.9-25.3-3.9-9.4-6-19.6-6-29.8V318.5zm313 0v106.2c0 10.2-2 20.3-5.9 29.8-3.9 9.4-9.7 18-16.9 25.2-7.2 7.2-15.8 13-25.2 16.9-9.4 3.9-19.6 5.9-29.8 5.9h-78.7v113.1h-70.3V438.4h136c2.7 0 5.4-.5 7.9-1.5 2.4-1 4.7-2.6 6.6-4.5 1.9-1.9 3.4-4.1 4.4-6.6 1.1-2.5 1.6-5.1 1.6-7.8v-99.5z"/><path fill="#e50012" fill-rule="evenodd" d="M554.7 410q0 7.7-1.3 15.2-1.2 7.5-3.7 14.7-2.5 7.3-6.1 14-3.7 6.7-8.4 12.7c10.6 13.6 17.2 29.8 19 46.9 1.8 17.2-1.2 34.4-8.8 49.9-7.5 15.5-19.2 28.5-33.8 37.7-14.5 9.1-31.4 14-48.6 14.1H297.8v-70.3l162.1-.8c6.4 0 12.5-2.5 17-7s7-10.7 7-17c0-6.4-2.5-12.5-7-17.1-4.5-4.5-10.6-7-17-7.7H283.6v120.3h-70.5V318.5H463c12.1 0 24.1 2.4 35.3 7 11.2 4.6 21.3 11.3 29.9 19.9 8.6 8.5 15.4 18.7 20 29.9 4.6 11.1 7 23.1 7 35.2m-95.3 27.2c6.4 0 12.5-2.5 17-7s7-10.7 7-17.1c0-6.3-2.5-12.5-7-17s-10.6-7-17-7.8H283.6V438h174.8z"/><path fill="#e50012" fill-rule="evenodd" d="M778.5 934.2C348 934.2 0 725.4 0 467.1S348 0 778.5 0c430.6 0 778.6 208.8 778.6 467.1s-348 467.1-778.6 467.1zm729.2-466.5c0-218.7-325.9-395.5-729.2-395.5C375.3 72.2 49.4 249 49.4 467.7s325.9 395.5 729.1 395.5c403.3 0 729.2-176.8 729.2-395.5z"/></svg>