<svg xmlns="http://www.w3.org/2000/svg" version="1.2" viewBox="0 0 1571 1519"><path fill="#fff" fill-rule="evenodd" d="M1014.22 2.34c164.83-8.94 331.42 8.53 490.28 53.69 41.79 11.11 72.31 55.2 65.18 98.37-27.07 164.2-54.37 328.38-81.52 492.58-5.53 37.23-36.54 69.45-73.9 75.23-23.97 4.1-49.55-2.31-68.62-17.42-38.41-32.94-80.5-62.46-127.39-82.03-68.61-30.05-146.94-37.7-219.88-20.28-61.91 14.06-120.78 44.8-164.8 90.98-27.24 29.83-48.92 68.35-46.97 109.9 1.49 31.81 21.63 59.5 46.53 77.91 36.56 27.1 82.18 39.1 126.97 42.93 67.1 4.01 134.65-7.32 197.76-30.08 50.54-18.85 98.36-44.53 143.04-74.69 21.16-13.95 48.48-17.91 72.78-10.65 34.33 9.69 60.77 41.94 63.28 77.61 2.25 20.63-4.76 40.5-9.11 60.37-35.41 149.31-70.52 298.68-105.98 447.97-4.27 19.12-13.68 37.37-28.59 50.33-11.64 10.84-26.55 17.12-41.6 21.49-69.8 21.02-142.38 30.71-214.65 38.61-60.4 5.91-120.93 10.87-181.56 12.38-116.82 4.82-235.05-5.28-347.69-37.64-105.24-29.53-205.91-78.29-290.32-148.22-79.37-65.38-143.31-150.46-179.77-246.92-22.01-57.01-34.2-117.77-36.53-178.84-3.25-59.85 4.43-119.81 17.08-178.26 25.53-106.22 75.74-205.78 141.94-292.41 75.25-98.79 170.06-181.84 275.05-247.74C608.81 78.81 809.99 15.3 1014.22 2.34ZM528.86 234.32c-140.48 78.59-265.67 189.1-348.57 328.15-40.33 68.25-70.76 143.2-83.33 221.74-15.93 88.61-10.16 181.9 21.87 266.38 22.37 60.43 57.72 115.68 101.33 162.99 64 68.82 145.27 120.22 232.29 154.84 113.8 45.19 237 63.71 359.08 62.19 84.79-.88 169.48-7.29 253.7-17.17 57.22-7.57 114.81-15.96 169.83-34.09 38.58-162.33 76.74-324.72 115.26-487.05-84.28 56.91-179.42 100.17-280.69 114.51-62.87 8.94-128.08 9.71-189.62-7.65-45.34-12.31-88.84-34.24-122.68-67.2-32.17-30.71-54.23-72.65-58.06-117.23-4.84-52.23 12.91-104.49 42.54-147.03 36.26-52.01 88.18-91.86 145.02-119.04 73.65-35.36 157.24-49.62 238.46-40.68 102.98 10.52 198.15 60.87 275.38 128.16 27.45-164.89 54.61-329.84 82.04-494.75-131.02-37.84-267.81-54.57-404.06-53.47-191.57 2.39-382.54 52.81-549.79 146.4Z"/><path fill="#e31837" d="M528.86 234.32c167.25-93.59 358.22-144.01 549.79-146.4 136.25-1.1 273.04 15.63 404.06 53.47-27.43 164.91-54.59 329.86-82.04 494.75-77.23-67.29-172.4-117.64-275.38-128.16-81.22-8.94-164.81 5.32-238.46 40.68-56.84 27.18-108.76 67.03-145.02 119.04-29.63 42.54-47.38 94.8-42.54 147.03 3.83 44.58 25.89 86.52 58.06 117.23 33.84 32.96 77.34 54.89 122.68 67.2 61.54 17.36 126.75 16.59 189.62 7.65 101.27-14.34 196.41-57.6 280.69-114.51-38.52 162.33-76.68 324.72-115.26 487.05-55.02 18.13-112.61 26.52-169.83 34.09-84.22 9.88-168.91 16.29-253.7 17.17-122.08 1.52-245.28-17-359.08-62.19-87.02-34.62-168.29-86.02-232.29-154.84-43.61-47.31-78.96-102.56-101.33-162.99-32.03-84.48-37.8-177.77-21.87-266.38 12.57-78.54 43-153.49 83.33-221.74 82.9-139.05 208.09-249.56 348.57-328.15Z"/></svg>