<svg xmlns="http://www.w3.org/2000/svg" version="1.2" viewBox="0 0 1605 1259"><path fill="#ff3c1a" d="M1525.1 1011.5c-34.6-3.4-95.9-12-172.6 26.7-76.7 38.7-106.8 40.3-144.5 36.3 11.1 20.3 33.5 48 104 53s104.2 7.1 67.1 94.9c.9-26.5-5.4-77.8-75.3-68.8-70 9-86.3 72-11.3 103.4-24.4 4.9-76.1 7.9-113-88.8-25.6 11.1-65.1 33.4-136.7-21.8q25 9 55.8 9.6c-63.5-30.3-124.2-86.7-163-140 30.8 23 64.8 45.8 99.2 50.1-40.7-49.5-134.6-148.7-249.6-250.5 73.9 48.3 163.1 124.5 309.1 107.4 146-17.2 244.1-50.6 430.8 88.5zm-624.9-34.4c-91.5-39.7-111.1-47.6-228.8-77.5-117.7-29.9-233.5-92.2-310.9-189.3 54.6 40 166 120.4 280.5 111.7-17.4-25.5-49.5-45.3-87.8-65.3 43.3 10.4 174.2 43.9 347 220.4zM376.3 391.7C73.7 202.6 13.6 56.9 0 .9c190.1 207.9 334.5 289.3 432.8 354.3C634.8 484 677.4 570.6 701 638.3c-96.9-136.8-225.2-178.7-324.7-246.6zm37.6 149.9C137 395.2 72.7 278 60.1 224.6c138.6 147.8 292.7 225.6 383 276.1 195.6 104.9 245.5 178.5 270.3 235.8-93.2-113.1-222.8-152.7-299.5-194.9z"/><path fill="#ff3c1a" fill-rule="evenodd" d="M1310.1 731.2c-25.7 61.1 3.9 67.9 15.9 72.5 60.9 23.3 222 53.2 211.9 121.3 18.8 18.8 88.4 93.7 59.3 145.7-25-40.8-139.9-146.7-278.9-168.5-139-21.8-265.7 25.2-370.4-44.3-88.9-64-103.2-88.2-192.7-234.8-40.2-65.8-48-125.7-184.5-237.1C434.2 274.6 306.5 215.2 252.9 49.3c117.3 144.2 269 281.9 650.3 391 477.6 133.2 441.5 206.5 406.9 290.9zM1523 940.3c-.8-26.4 2.8-41.7-69.5-52.7q38.7 19.1 69.5 52.7z"/></svg>