<svg xmlns="http://www.w3.org/2000/svg" version="1.2" viewBox="0 0 1616 853"><path fill="#049fd9" fill-rule="evenodd" d="M796.63 630.4c-1.06-.33-30.89-8.57-55.39-8.57-28.41 0-43.84 9.51-43.84 23.02 0 17.09 20.82 23.06 32.49 26.74l19.54 6.22c45.99 14.62 66.94 46.13 66.94 80.34 0 70.55-62.03 94.24-116.25 94.24-37.7 0-72.99-6.92-76.48-7.67V780.1c6.26 1.58 35.95 10.44 66.92 10.44 35.25 0 51.46-10.31 51.46-26.22 0-14.23-14.03-22.45-31.6-27.98-4.3-1.42-10.74-3.44-15.12-4.89-39.48-12.47-72.38-35.66-72.38-82.15 0-52.53 39.33-87.8 104.64-87.8 34.5 0 66.96 8.37 69.07 8.95v59.95Zm673.92 76.55c0 80.34-62.03 145.44-148.39 145.44-86.36 0-148.3-65.1-148.3-145.44 0-80.21 61.94-145.36 148.3-145.36 86.36 0 148.39 65.15 148.39 145.36Zm-148.39-73.85c-42.03 0-73.25 33.07-73.25 73.85 0 40.86 31.22 73.92 73.25 73.92 42 0 73.29-33.06 73.29-73.92 0-40.78-31.29-73.85-73.29-73.85ZM527.9 847.4h-70.86V566.56h70.86V847.4Z"/><path fill="#049fd9" d="M359.63 571.65c-6.65-1.97-31.27-10.06-64.61-10.06-86.23 0-149.53 61.49-149.53 145.36 0 90.49 69.88 145.44 149.53 145.44 31.65 0 55.81-7.49 64.61-9.99v-75.39c-3.04 1.69-26.2 14.91-59.53 14.91-47.2 0-77.65-33.23-77.65-74.97 0-43.01 31.76-74.91 77.65-74.91 33.9 0 56.68 13.51 59.53 15m739.62-75.39c-6.65-1.97-31.27-10.06-64.61-10.06-86.23 0-149.53 61.49-149.53 145.36 0 90.49 69.88 145.44 149.53 145.44 31.65 0 55.81-7.49 64.61-9.99v-75.39c-3.04 1.69-26.2 14.91-59.53 14.91-47.2 0-77.65-33.23-77.65-74.97 0-43.01 31.76-74.91 77.65-74.91 33.9 0 56.68 13.51 59.53 15"/><g fill="#049fd9"><path d="M456.83 35.61c0-19.36-15.81-35.06-35.19-35.06-19.37 0-35.18 15.7-35.18 35.06v372.92c0 19.47 15.81 35.16 35.18 35.16 19.38 0 35.19-15.69 35.19-35.16V35.61ZM263.59 167.99c0-19.35-15.8-35.07-35.18-35.07s-35.18 15.72-35.18 35.07v170.49c0 19.46 15.8 35.16 35.18 35.16s35.18-15.7 35.18-35.16V167.99ZM70.36 264.75c0-19.36-15.81-35.05-35.18-35.05C15.82 229.7 0 245.39 0 264.75v73.73c0 19.46 15.82 35.16 35.18 35.16 19.37 0 35.18-15.7 35.18-35.16"/><path d="M386.46 35.61c0-19.36 15.81-35.06 35.19-35.06 19.37 0 35.18 15.7 35.18 35.06v372.92c0 19.47-15.81 35.16-35.18 35.16-19.38 0-35.19-15.69-35.19-35.16V35.61ZM579.7 167.99c0-19.35 15.8-35.07 35.18-35.07s35.18 15.72 35.18 35.07v170.49c0 19.46-15.8 35.16-35.18 35.16s-35.18-15.7-35.18-35.16V167.99Zm193.23 96.76c0-19.36 15.81-35.05 35.18-35.05 19.36 0 35.18 15.69 35.18 35.05v73.73c0 19.46-15.82 35.16-35.18 35.16-19.37 0-35.18-15.7-35.18-35.16"/></g><path fill="#049fd9" d="M1159.17 35.61c0-19.36 15.81-35.06 35.19-35.06 19.37 0 35.18 15.7 35.18 35.06v372.92c0 19.47-15.81 35.16-35.18 35.16-19.38 0-35.19-15.69-35.19-35.16V35.61Zm193.24 132.38c0-19.35 15.8-35.07 35.18-35.07s35.18 15.72 35.18 35.07v170.49c0 19.46-15.8 35.16-35.18 35.16s-35.18-15.7-35.18-35.16V167.99Zm193.23 96.76c0-19.36 15.81-35.05 35.18-35.05 19.36 0 35.18 15.69 35.18 35.05v73.73c0 19.46-15.82 35.16-35.18 35.16-19.37 0-35.18-15.7-35.18-35.16"/><path fill="#049fd9" d="M1229.54 35.61c0-19.36-15.81-35.06-35.19-35.06-19.37 0-35.18 15.7-35.18 35.06v372.92c0 19.47 15.81 35.16 35.18 35.16 19.38 0 35.19-15.69 35.19-35.16V35.61ZM1036.3 167.99c0-19.35-15.8-35.07-35.18-35.07s-35.18 15.72-35.18 35.07v170.49c0 19.46 15.8 35.16 35.18 35.16s35.18-15.7 35.18-35.16V167.99Zm-193.23 96.76c0-19.36-15.81-35.05-35.18-35.05-19.36 0-35.18 15.69-35.18 35.05v73.73c0 19.46 15.82 35.16 35.18 35.16 19.37 0 35.18-15.7 35.18-35.16"/></svg>