<svg xmlns="http://www.w3.org/2000/svg" version="1.2" viewBox="0 0 1684 1387"><path fill="#231f20" fill-rule="evenodd" d="M376.67 0h21.76c24.04.69 48.12 1.28 72.1 3.15 93.57 7.47 186.06 25.87 276.15 52.01 51.55 14.53 102.32 31.75 152.37 50.8 47.34 17.64 93.73 37.69 139.65 58.7 41.38 19.9 81.94 41.49 121.74 64.37 29.19 16.82 58.26 33.89 86.47 52.32 25.57 17.67 50.32 36.48 75.5 54.69 17.27 13.11 34.85 25.83 51.61 39.62 33.09 27.56 64.97 56.61 95.53 86.98 33.24 33.5 64.03 69.38 92.7 106.86 22.29 29.53 42.86 60.43 60.23 93.11 7.82 15.1 13.99 30.99 22.17 45.9 3.24 5.87 6.16 11.93 8.63 18.17 5.52 13.78 11.28 27.51 15.41 41.78 6.03 24.58 12.11 49.31 14 74.62 2.38 28.81-.54 57.72-4.04 86.31-2.57 24.5-10.67 47.95-18.43 71.2-8.17 20.28-18.45 39.64-28.74 58.91-9.62 18.13-21.68 34.79-34.11 51.09-14.85 19.05-30.56 37.48-47.74 54.47-31.49 30.19-68.54 53.98-106.99 74.29-18.49 9.4-37.28 18.22-56.42 26.24-46.73 18.7-94.94 33.82-144.23 44.12-57.8 12.94-116.93 19.29-176.12 20.52-62.75.95-125.71-3.24-187.5-14.5-25.46-4.41-50.61-10.3-75.82-15.88-1.66-.35-3.36-.4-5.02-.43-.43 14.64.23 29.65-4.12 43.82-2.23 7.76-4.51 15.74-9.35 22.35-6.6 9.61-17.77 15.05-28.95 17.27-15.52 3.01-31.71 4.71-47.29 1.15-17.51-3.39-33.31-14.41-42.42-29.74-11.95-19.78-14.93-43.21-18.13-65.66-2.15-16.84-3.93-33.74-5.65-50.63-11.07-6.17-22.85-10.95-34.1-16.79-31.38-15.34-61.94-32.34-91.61-50.74-30.96-19.7-61.68-39.95-90.15-63.15-15.55-12.81-31.02-25.72-46.2-38.96-14.7-11.98-28.05-25.49-41.49-38.85-24.27-24.8-47.02-51.47-64.41-81.62-12.8-20.21-21.58-43.98-20-68.2 1.09-15.28 5.72-30.25 12.98-43.71 10.4-18.13 25.94-32.56 42.26-45.31 21.37-15.97 44.64-29.27 68.69-40.79 12.39-5.43 24.42-11.74 37.19-16.3 22-8.57 44.43-15.96 66.89-23.21 27.07-8.24 54.08-16.74 81.7-22.99 18.72-4.91 38.09-6.34 57.02-10.16 7.65-1.63 15.55-2.32 23-4.78 3.59-.88 3.16-5.15 3.53-8.01 1.24-22.74 1.97-45.52 1.76-68.28 1.72-26.06 4.9-52 7.8-77.94 4.61-37.7 8.32-75.74 18.36-112.48 2.85-10.42 5.78-20.9 10.61-30.59 2.89-5.84 8.54-10.81 15.38-10.67 10.75-.34 19.25 7.28 26.81 13.93 15.96 15.5 25.69 36.1 33.46 56.64 16.7 45.92 22.75 94.81 26.58 143.26 1.28 26.18 2.39 52.37 2.7 78.57 7.45 1 14.96.02 22.44.06 25.94-.41 51.88-.91 77.81-.04 29.56 1.12 58.98 4.56 88.17 9.29 42.13 5.88 83.81 14.75 124.8 26.07 12.29 3.16 24.38 7.02 36.39 11.09 22.91 7.42 45.47 16.39 66.26 28.63 19.23 11.79 37.21 25.79 52.45 42.47 12.65 14.13 23.4 30.21 29.77 48.17 5.87 16.96 9.48 35.2 6.8 53.15-2.47 16.75-10 32.27-18.84 46.53-11.51 18.06-27.58 33.11-45.91 44.1-20.55 11.74-44.76 19.11-68.54 15.29-12.92-1.49-25.74-3.97-38.18-7.8-5.74-1.97-11.78-3.9-16.36-8.02-5.14-4.61-4.33-13.91 1.31-17.74 16.74-11.05 36.65-17.33 51.25-31.54 6.4-6.24 13.35-12.75 16.01-21.57 2.58-8.39-1.05-17.51-7.09-23.47-9.34-9.24-21.89-14.11-34.14-18.15-13.28-5.16-27.05-8.78-40.64-12.97-51.51-13.6-103.85-24-156.56-31.71-24.95-3.17-49.84-6.92-74.96-8.48-23.55-1.22-47.1-2.87-70.67-3.24 1.53 99.32 3.93 198.65 5.8 297.98.75 29.08.82 58.19 1.94 87.26 28 5.11 55.91 11.12 84.32 13.35 12.82.98 25.56 2.6 38.39 3.33 19.79 2.05 39.68 1.73 59.55 2.17 31.66.57 63.33-.83 94.93-2.8 54.39-4.48 108.79-11.95 161.37-26.98 27.51-7.75 54.76-16.8 80.68-28.89 40.02-18.25 78.58-40.46 111.8-69.5 12.13-10.98 23.87-22.52 33.79-35.57 29.62-37.01 48.35-82.3 54.89-129.16 3.65-26.42 3.87-53.45-.82-79.76-6.65-39.43-21.56-76.99-39.38-112.61-19.59-38.58-42.89-75.28-69.37-109.49-62.19-78.83-138.94-145.07-221.12-202.27-32.32-23.01-66.3-43.52-100.28-63.95-38.51-22.19-77.87-42.9-117.93-62.16-46.14-21.45-92.96-41.49-140.81-58.82-48.16-18.24-97.35-33.56-146.84-47.72-84.18-23.12-170.21-39.75-257.09-48.41-49.27-5.14-98.79-8.45-148.32-7.61-24.69.77-49.43.75-74.04 2.89-21.31 1.25-42.57 3.36-63.65 6.64-14.56 2.32-29.12 4.93-43.22 9.27-10.73 3.35-22.1 5.11-32.06 10.55-2.04 1.07-3.52 2.85-4.99 4.55 9.84 5.89 21.62 5.79 32.66 7.17 11.9 1.57 24.5 2.02 35.07 8.42 7.89 4.34 14.51 12.07 15.35 21.3.44 7.37-4.98 13.91-11.55 16.63-11.22 5.29-23.85 6.04-36.05 6.47-20.5.48-41.15-1.61-60.91-7.2-9.76-2.94-19.78-6.88-26.77-14.63C2.58 182.24 1 175.16 0 168.45v-8.36c1.78-16.43 8.99-31.52 16.99-45.75 10.39-19.77 25.33-37.22 43.58-50.12 24.4-17.48 53.64-26.24 82.5-33.12 49.35-12.52 99.7-20.78 150.3-26.12 27.64-3.37 55.5-4.14 83.3-4.98Zm133.68 815.95c-40.2 6.01-80.1 13.93-119.54 23.76-23.1 6.25-46.43 12.65-67.89 23.47-8.56 4.81-17.37 10.03-23.26 18.1-3.12 3.99-3.44 9.3-3.38 14.17.22 8.87 4.22 17.15 9.22 24.3 7.03 9.83 15.36 18.65 24.02 27.04 11.78 12.17 24.34 23.55 36.59 35.23 17.58 15.04 36.13 28.96 55.17 42.11 39.78 26.74 80.6 52.11 123.5 73.57 31.25 15.99 64.21 28.3 97.29 39.9-2.24-111.49-3.05-223.01-.62-334.48-43.81 2.92-87.59 6.78-131.1 12.83Z"/></svg>