<svg xmlns="http://www.w3.org/2000/svg" version="1.2" viewBox="0 0 1536 1166"><path d="M751 431.6H427.7V331.3q0-94.9-9.2-118.8-9.2-23.9-43.7-23.9-30 0-40.7 20.5-10.8 20.5-10.8 105.1v530.2q0 74.4 10.8 98 10.7 23.5 43 23.5 35.3 0 48-26.6 12.6-26.6 12.6-103.7V704.5h-65.2V536.7H751v593H547.5l-29.9-79.2q-33 51.2-83.3 76.8-50.3 25.6-118.7 25.6-81.4 0-152.4-35.2-71-35.1-107.9-87-36.9-51.8-46.1-108.8-9.2-57-9.2-171V422.7q0-158.3 19.2-230 19.2-71.6 110.2-131.3 91-59.7 235.4-59.7 142 0 235.7 51.8 93.7 51.9 122.1 123.2Q751 248 751 383.8z"/><path fill="#fd0000" d="M1508.9 371.9h-300.3V290q0-57.3-11.5-73-11.5-15.7-38.4-15.7-29.2 0-44.1 21.2-15 21.1-15 64.1 0 55.3 16.9 83.3 16.1 28 91.4 67.5 215.8 114 271.8 187 56.1 73 56.1 235.4 0 118.1-31.1 174-31.1 56-120.2 93.9-89.1 37.8-207.3 37.8-129.8 0-221.6-43.6-91.8-43.7-120.2-111.3Q807 943.1 807 818.9v-72.3h300.3V881q0 62.1 12.6 79.8 12.7 17.8 45 17.8 32.2 0 48-22.5 15.7-22.6 15.7-66.9 0-97.6-29.9-127.6-30.8-30.1-151.3-100.3c-80.4-47.4-143.7-81.7-169.8-103.1q-39.2-32.1-64.9-88.7-25.8-56.6-25.8-144.7c0-84.6 12.2-159.9 36.5-199Q859.9 67.1 941.3 34C995.6 11.9 1071.2.9 1148 .9q125.9 0 214.6 36.2 88.7 36.1 117.5 91.1c19.2 36.6 28.8 112.2 28.8 200z"/></svg>