<svg xmlns="http://www.w3.org/2000/svg" version="1.2" viewBox="0 0 1623 1623"><g fill-rule="evenodd"><path fill="#fff" d="M.81.98h1622.11v1621.94H.81V.98Z"/><path fill="#f96302" d="M.81.98h1017.76c81.93 0 163.87-.18 245.63.16-22.66 22.99-45.83 45.82-68.65 68.82 9.02 9.53 18.56 18.39 27.59 27.75 20.79-14.3 44.29-25.71 69.84-27.59 22.99-2.39 46.17 3.58 67.28 12.78 8.01 3.4 15.5 8.85 24.53 9.7 8.86-.51 15.5-8.34 18.57-16.18 2.55-5.44.16-11.92-4.09-15.84-19.76-19.92-39.69-39.51-59.28-59.44 94.37-.51 188.73 0 282.93-.16 0 91.97.17 184.11 0 276.25-19.41-19.07-38.33-38.49-57.58-57.56-5.11-5.29-13.44-8.01-20.43-4.78-4.6 2.22-9.03 5.8-11.08 10.73-2.55 9.89 1.88 19.59 5.8 28.44 11.92 25.21 17.2 53.66 13.63 81.42-2.39 18.91-9.21 37.47-19.43 53.65-2.72 3.91-5.27 8-7.66 12.1 9.88 8.51 18.23 18.72 28.28 27.07 22.48-23.16 45.65-45.81 68.47-68.81 0 153.8.17 307.6 0 461.4-4.43 1.53-9.37 4.6-13.97 2.38-6.13-3.92-10.73-9.71-15.84-14.65-55.19-54.84-109.87-110.2-165.22-164.86-21.98 21.97-43.6 44.11-65.93 65.57 11.76 13.28 24.88 25.03 37.14 37.8 44.29 44.29 88.57 88.58 133.04 132.85 3.74 3.92 8.17 7.33 10.21 12.44.68 5.62-3.23 10.39-4.77 15.5-2.21 5.96 2.56 13.11 8.86 13.28 5.62 1.03 10.39-2.72 13.97-6.47 20.78-20.95 41.73-41.73 62.51-62.51v770.7H851.98c19.76-19.76 39.52-39.35 59.28-59.11-67.28-67.1-134.4-134.21-201.51-201.48-21.97 21.12-43.09 43.09-64.9 64.38-4.6 4.77-9.71 9.36-11.92 15.83-1.02 6.3 4.77 12.27 10.9 12.61 5.45-.68 10.05-4.26 15.5-5.45 4.77-.33 8.52 3.41 11.92 6.48 39.87 40.19 79.9 80.05 119.93 120.07 10.04 10.55 20.95 20.09 30.31 31 4.26 4.76 1.37 10.89-1.02 15.67H359.38c36.27-36.28 72.56-72.56 108.83-108.84 6.81-6.47 13.8-13.96 14.82-23.84 1.53-11.41-10.04-22.83-21.46-20.44-9.54 1.87-17.37 9.37-27.25 9.37-6.3-.51-11.07-5.11-15.33-9.2-86.71-86.52-173.23-173.21-259.76-259.74-5.79-5.78-12.78-11.4-14.83-19.76-.33-9.87 6.65-17.88 9.21-26.9 3.23-11.41-7.5-23.85-19.09-22.99-8 .51-15.15 5.1-20.6 10.73-37.48 37.98-75.63 75.45-113.11 113.43C.64 843.53.81 422.18.81.98Z"/><path fill="#fff" d="M1170.85 94.48c1.53-1.7 4.26-3.24 5.79-.68 118.72 118.54 237.45 237.25 356 355.96-41.56 41.56-83.29 83.28-124.85 125.02-5.46 5.11-12.1 9.36-19.59 9.87-10.39.86-20.79-8.51-19.93-19.08.34-10.38 9.19-18.39 9.36-28.95.35-6.64-4.76-11.57-9.02-16.18-88.06-87.88-175.96-175.93-264.02-263.99-4.94-4.77-10.39-10.73-17.89-10.22-11.07.17-19.41 10.39-30.65 9.2-6.48.16-11.76-4.95-15-10.22-4.43-9.2-.34-20.27 6.31-27.08 41.22-41.22 82.44-82.43 123.49-123.65Zm188.56 23.5c8.51.69 14.65 7.66 20.27 13.29 34.07 34.23 68.14 68.3 102.2 102.36 6.48 6.31 14.14 12.43 15.67 21.8.86 9.7-8 18.39-17.37 19.41-7.84.18-14.99-4.08-21.8-7.83-14.48-8.51-30.83-15.33-48.04-14.48-8.86-.17-17.37 3.41-25.38 6.98-9.37-10.04-20.1-19.07-28.96-29.46 2.73-7.66 6.3-14.98 6.82-23.17 1.2-18.55-6.3-36.27-15.68-51.77-4.76-7.66-8.51-17.21-5.27-26.06 3.4-6.3 9.88-12.09 17.54-11.07Zm-712 44.45c17.54 17.03 34.57 34.24 51.78 51.44 5.62 5.45.51 14.65-5.79 16.86-5.28.68-9.88-2.89-14.65-4.6-18.39-9.02-41.22-10.04-59.61-.16-4.78 2.04-8.7 6.12-13.81 6.98-5.11-4.09-9.36-9.2-14.14-13.63 18.41-19.41 37.82-37.64 56.22-56.89Zm6.13 141.37c38.67 38.49 77.16 77.33 116 115.82-22.15 22.48-44.46 44.62-66.77 66.76-4.6 5.11-13.8 7.33-18.23 1.02-5.45-5.79.51-12.94 2.21-18.91 2.05-4.42-1.52-8.34-4.42-11.4-44.63-44.46-89.1-88.91-133.55-133.53-4.08-3.75-7.49-8.35-12.43-10.9-6.81-1.54-12.09 4.6-18.74 4.94-5.11-.52-9.88-5.62-9.19-10.91.33-4.08 2.72-7.66 5.61-10.55 21.81-21.98 43.96-43.61 65.59-65.92 25.03 24.18 49.22 49.22 73.92 73.58Zm22.66-59.61c4.43-.68 8 2.72 11.07 5.62 18.39 18.39 36.78 36.96 55.35 55.18 3.24 3.58 7.84 6.81 8.18 12.09.68 5.29-4.43 10.4-9.87 9.88-7.16 0-12.61-5.62-19.08-8.01-9.54-4.42-21.13-4.76-30.49.35-4.94-4.94-9.89-10.05-15-14.65 2.22-7.5 4.27-15.49 2.39-23.33-1.36-8.86-7.5-15.67-10.22-23.85-2.21-5.62 1.7-12.42 7.67-13.28Zm335.39 17.71c11.4-1.7 23.33 9.37 21.12 20.95-1.53 10.22-10.05 18.39-9.37 29.13 1.7 7.48 7.84 12.59 12.77 17.88 87.05 86.86 174.09 173.55 260.78 260.58 4.78 4.27 9.54 9.89 16.36 9.89 10.22 0 18.05-7.67 27.77-9.38 11.24-1.86 22.31 9.2 20.94 20.45-.67 7.66-5.28 14.3-10.55 19.58-43.79 43.6-87.39 87.55-131.16 131.15-5.62 5.62-12.78 10.73-21.12 10.73-9.21.5-18.06-7.32-19.25-16.35-1.2-11.93 9.88-20.78 9.53-32.71-.51-5.62-4.42-10.21-8.17-14.3-76.48-76.3-152.79-152.78-229.27-229.08 63.2 117.35 126.9 234.36 190.09 351.71 1.02 1.7 1.87 3.58 2.73 5.62-4.6 4.25-9.03 8.85-13.46 13.45-126.56-62.33-252.95-125.36-379.34-187.86-19.92-9.87-39.68-21.46-62.17-24.18-7.49-1.03-12.6 5.11-18.05 9.02-5.63 4.43-13.13 7.16-20.1 4.94-8.35-3.74-14.14-13.62-11.58-22.65 1.7-6.13 5.95-11.24 10.38-15.68 40.89-40.69 81.6-81.57 122.48-122.11 63.7 31.17 127.57 61.66 191.46 92.83 2.04 1.53 4.25 3.06 6.12 5.1 1.03-1.19 1.88-2.38 2.9-3.57l-2.39.34c-33.55-63.87-68.8-126.89-102.37-190.76 42.25-41.9 83.98-83.96 126.05-125.86 4.61-4.6 10.39-8.01 16.87-8.86Zm-224.68 36.11c17.2 17.37 34.76 34.74 52.12 52.12-19.41 19.58-38.84 39-58.58 58.42-4.43-5.11-10.4-9.2-13.81-15.16 5.62-9.54 11.59-19.25 13.12-30.49 2.89-15.5.34-31.85-6.3-46.15-1.88-5.46-5.96-11.76-2.39-17.21 3.07-5.62 11.76-6.3 15.84-1.53Zm-289.74 18.57c4.95-1.02 11.07 2.04 11.75 7.48 1.2 5.97-3.23 10.91-4.42 16.7-.69 4.6 3.06 7.84 5.79 10.9 45.48 45.47 90.79 90.95 136.27 136.25 3.07 2.9 6.3 6.48 10.73 7.5 5.45-.51 10.04-4.09 15.33-5.28 6.47-.69 12.43 6.3 10.39 12.43-.85 4.6-4.43 8.01-7.49 11.24-22.15 22.15-44.3 44.28-66.44 66.26-3.91 3.92-9.02 8-14.82 6.64-3.23-1.37-5.96-3.92-7.15-7.15-1.7-7.5 6.3-13.63 4.43-21.13-1.7-2.89-4.09-5.11-6.3-7.49-20.78-20.61-41.4-41.56-62.35-62.16-7.32 7.49-14.65 14.81-22.14 22.14-5.11-4.94-10.22-9.89-14.99-15.16 7.49-7.33 14.82-14.81 22.32-22.15-18.41-18.04-36.63-36.45-54.85-54.67-3.92-3.74-7.33-7.83-11.93-10.55-8.34-2.73-16.35 9.02-24.35 2.55-6.48-4.59-4.43-13.8.85-18.57 22.31-22.65 44.96-44.79 67.28-67.27 3.4-3.58 7.15-7.32 12.09-8.51Z"/><path fill="#fff" d="M397.87 413.49c5.11-3.25 12.78-1.2 15.15 4.59 2.39 6.98-3.91 12.95-4.08 19.76-.17 3.58 2.72 6.13 4.94 8.52 47.18 47.18 94.2 94.35 141.38 141.36 8.51 9.19 19.42-6.64 28.61.17 5.97 4.77 3.92 14.13-1.19 18.56-22.14 22.32-44.46 44.29-66.43 66.6-3.58 3.41-7.15 7.49-12.09 9.03-5.46 1.53-12.1-1.88-12.77-7.67-1.03-6.8 5.11-12.09 4.76-18.74-.86-2.89-2.72-5.27-4.76-7.49a45559.76 45559.76 0 0 1-133.73-133.7c-4.25-3.91-7.82-8.85-13.45-10.9-6.13-.33-11.24 4.27-17.2 4.94-5.11.17-9.54-4.43-9.71-9.36-.51-5.29 3.24-9.54 6.81-13.11 22.14-22.15 44.28-44.29 66.27-66.43 2.38-2.22 4.59-4.43 7.49-6.13Zm-92.84 91.63c17.89 17.38 35.43 35.42 53.32 52.97 3.07 3.4 6.81 6.47 8.51 10.9 2.05 8.34-7.48 17.54-15.83 13.79s-14.99-10.39-23-14.82c-13.46-8.34-29.13-13.62-45.14-11.75-4.6-4.76-9.71-9.2-13.79-14.3 1.35-2.73 3.57-4.6 5.62-6.64 10.22-9.89 20.09-20.11 30.31-30.15Zm-47.86 47.86c35.77 35.94 71.71 71.87 107.65 107.64 19.76 19.58 39.01 39.52 58.93 58.76 5.63 6.3 13.12 1.02 19.26-1.2 6.12-2.72 13.28 2.73 13.11 9.2 0 4.42-2.56 8.17-5.45 11.25-23.16 22.99-45.99 45.98-68.98 68.98-3.24 3.23-7.33 6.46-12.1 6.12-5.28.52-10.39-4.59-9.88-9.71.34-5.44 4.6-9.87 4.6-15.33.34-4.6-3.58-7.49-6.3-10.56-54.34-53.99-108.17-108.48-162.67-162.31 1.7-2.21 3.24-4.26 5.11-6.3 19.08-18.73 37.81-37.64 56.72-56.54Zm1284.51 102.69c6.63 6.31 1.87 18.91-6.99 20.28-8.18 1.19-14.48-5.28-20.78-9.54-16.87-11.59-36.8-22.48-57.91-18.91-5.63-5.11-11.08-10.39-15.68-16.34 13.12-12.61 25.72-25.56 38.5-38.33 21.11 20.78 42.07 41.72 62.86 62.84ZM198.4 641.37c-2.72 19.76 6.64 38.32 17.71 53.82 3.24 4.95 7.16 9.54 9.2 15.16 2.22 7.49-5.1 15.33-12.6 14.47-4.26 0-7.15-3.57-9.88-6.12-18.57-18.74-37.3-37.13-55.87-55.87 12.27-11.59 23.68-24.01 36.11-35.43 6.31 2.39 10.22 9.54 15.33 13.97Zm469.28 77.16c59.28 12.6 111.73 47.35 153.64 90.43 41.05 41.56 73.76 93.68 84.83 151.76 6.13 31.84 4.77 65.23-4.42 96.39-9.03 30.84-25.4 59.28-46 83.8-8.86-9.36-18.57-18.05-27.09-27.59 0-4.6 2.9-8.52 3.76-12.94 4.59-14.99 0-31.85-11.42-42.76-84.14-84.3-168.63-168.61-252.78-252.92-7.66-7.83-17.37-14.13-28.44-14.98-9.03-1.19-17.89 2.04-26.41 5.1-3.41 1.88-5.62-2.37-7.83-4.08-6.82-7.32-14.31-13.96-21.12-21.46 0-.51-.17-1.53-.17-2.04 22.65-19.42 49.23-34.57 77.84-43.77 33.9-10.91 70.69-12.1 105.61-4.94Zm124.01-4.43c7.83 2.55 14.98 6.47 22.31 10.22 27.43 13.28 54.67 27.08 82.27 40.53 2.38 1.2 4.6 3.07 6.65 4.94 23.15 23.51 46.5 46.67 69.83 70 12.61 13.46 28.44 23.85 45.65 30.32 12.09 4.6 25.72 4.6 37.81.33 6.14-2.04 12.78-4.42 19.25-2.38 6.48 2.56 11.24 9.03 11.75 16.02-.51 9.36-6.47 17.2-12.77 23.67-20.78 21.12-41.91 42.07-63.02 62.85-5.62 5.11-12.09 10.38-19.94 11.24-11.23 1.69-22.31-10.22-18.9-21.12 3.24-11.08 7.67-22.31 5.79-33.9-2.73-19.42-13.8-36.62-26.06-51.43-46.16-46.33-92.49-92.49-138.82-138.98-7.16-7.5-15-14.31-21.8-22.31Zm558.01 7.84c5.62 4.59 10.56 10.04 15.84 15.15-2.21 17.03 3.59 33.89 12.44 48.2 4.59 8.18 11.24 15.16 15.33 23.67 2.21 4.09.68 8.69-.85 12.77 21.46 14.49 40.36 32.88 55.36 53.82 17.2 24.36 29.29 53.32 28.61 83.63.17 28.79-12.26 56.37-30.49 78.18-4.94-5.11-10.73-9.71-14.99-15.5.86-6.31 3.92-12.43 2.38-18.73-1.7-8.18-8-13.97-13.62-19.6-44.96-44.79-89.77-89.57-134.56-134.37-4.43-4.43-9.72-8.51-16.02-9.02-5.96-.69-11.92 1.01-17.37 2.88-5.28-4.93-10.56-10.22-15.67-15.33 22.65-19.41 52.12-31.84 82.27-30.31 11.58-.34 22.83 2.39 34.07 4.94-13.63-14.13-28.11-27.42-41.23-41.9 12.79-12.77 25.72-25.55 38.5-38.48ZM461.57 789.2c8.69 8.87 17.89 17.37 26.4 26.4 1.7 5.46-2.72 10.57-3.57 16.02-4.43 14.64 1.36 30.65 12.1 41.21 82.77 82.95 165.73 165.72 248.68 248.66 8.01 8.7 17.71 16.87 29.98 18.74 10.9 1.71 21.64-2.04 31.68-5.79 9.2 9.2 18.4 18.23 27.6 27.42-20.11 17.55-43.44 31.34-68.31 41.05-37.47 14.47-79.38 16.86-118.72 8.18-59.79-13.12-112.42-49.06-154.5-92.83-38.83-40.7-70.18-90.61-81.25-146.31-7.49-36.95-5.1-76.12 8.18-111.55 9.37-26.06 24.18-49.9 41.73-71.2Zm762.94 50.42c4.93 5.11 10.22 10.22 15.32 15.33-1.87 6.13-4.77 12.61-3.06 19.07 1.02 5.8 4.94 10.4 9.03 14.48 44.97 44.8 89.59 89.76 134.57 134.55 5.27 5.11 10.38 11.25 17.88 13.29 6.81 1.88 13.8-.52 20.43-2.56 5.12 5.12 10.4 10.23 15.34 15.67-21.47 17.71-48.21 30.15-76.48 30.15-27.42 1.19-54.34-8.52-77.16-22.82-16.53-10.56-31.69-23.34-44.29-38.16 5.96 19.93 4.6 42.25-4.77 60.98-9.2 18.39-23.5 33.39-37.64 47.86-5.11-5.11-10.4-10.4-15.68-15.5 4.44-7.16 7.33-15.67 4.6-24.01-3.23-8.53-10.22-14.65-16.35-21.12-12.6-12.78-25.38-25.55-38.16-38.32-7.49-6.99-15.5-15-26.23-15.68-6.3-.67-11.92 2.56-17.2 5.63-5.27-5.11-10.39-10.39-15.67-15.5 20.44-20.61 43.77-41.9 73.75-45.65 24.53-4.09 49.23 6.47 66.6 23.34-10.9-21.81-17.71-46.34-15.33-71.03 2.05-25.88 13.46-50.58 30.5-70ZM315.08 959.87c11.76-.69 22.49 11.57 19.25 22.99-2.56 8.69-8.86 16.35-9.2 25.72.68 8.17 7.5 13.96 12.95 19.42l262.31 262.28c4.1 3.92 8.69 7.84 14.48 8.34 9.88 0 17.55-7.31 26.92-9.53 11.24-2.21 22.48 8.01 21.97 19.24-.34 7.67-4.6 14.65-9.88 20.1-43.95 43.95-88.07 88.06-132.01 132-5.79 5.62-12.95 10.56-21.29 10.56-10.22.34-19.76-9.36-18.91-19.76 1.03-10.21 9.54-18.39 9.72-28.95-.35-6.3-5.29-11.07-9.21-15.5-39.17-39.34-78.52-78.35-117.53-117.52-1.53-1.19-3.57-4.6-5.79-2.22-13.62 13.12-26.74 26.92-40.37 40.03-9.2-9.2-18.39-18.39-27.6-27.76 13.12-13.79 26.74-27.25 40.54-40.53 0-.69.18-2.22.18-2.91-36.97-36.27-73.25-73.06-110.04-109.67-5.62-5.29-10.91-11.92-18.74-13.8-10.73-.69-19.08 7.66-29.12 9.54-12.95 2.21-24.7-12.44-20.27-24.53 2.21-8.52 9.02-14.65 14.98-20.43 42.58-42.75 85.34-85.17 127.75-127.92 5.11-4.93 11.76-8.68 18.91-9.19Zm801.43 114.28c38.16 38.32 76.49 76.64 114.81 114.96 2.72 2.22 5.27 5.28 8.85 5.96 7.33.69 13.12-6.47 20.45-5.11 4.43 1.54 8.51 5.8 8.01 10.73 0 6.64-5.63 11.25-9.72 15.67-24.01 23.68-47.69 47.69-71.71 71.37-5.28 5.79-15.16 2.9-18.39-3.58-4.77-8 8.17-16.52 1.36-23.84-49.4-49.22-98.8-98.62-148.02-148.01-3.58-3.23-6.64-7.32-10.91-9.54-7.32-2.04-13.11 4.09-19.92 4.94-5.28-.5-10.39-5.11-10.06-10.56-.51-5.96 3.92-10.55 7.67-14.47 22.66-22.49 45.31-45.13 67.79-67.62 20.44 19.07 39.69 39.51 59.79 59.1Zm-151.09 32.53c18.23 18.4 36.63 36.62 54.86 55.01 6.12 5.96-.35 14.99-6.65 17.72-4.43.51-8.52-2.22-12.44-3.92-15.66-7.67-33.72-11.41-50.93-6.98-10.9 2.21-20.44 8.34-29.98 13.96-5.11-5.28-10.21-10.55-15.49-15.66 20.26-19.93 40.02-40.54 60.63-60.13Zm-72.56 72.21c38.15 37.65 75.8 75.97 114.13 113.61 29.3 29.12 58.25 58.59 87.72 87.54-22.82 23.5-46.32 46.33-69.16 69.66-3.23 3.58-7.83 5.62-12.09 7.49-4.26-1.52-9.54-3.06-10.9-7.82-2.55-8.01 5.79-14.31 4.77-22.15-3.41-6.64-9.37-11.41-14.48-16.69-41.4-41.39-82.78-82.77-124.18-124.17-7.32-6.81-13.45-14.98-22.14-20.09-8.69-1.71-16.52 9.36-24.86 3.4-7.16-4.59-5.11-14.81.33-19.92 23.51-23.85 47.36-47.18 70.86-70.86Zm105.44 14.65c3.4.85 5.96 3.07 8.34 5.45 17.89 18.06 35.95 35.77 53.67 53.82 5.78 5.97 13.28 11.08 15.66 19.59-2.21 3.75-4.6 8.86-9.7 9.37-8.36.85-14.49-5.79-21.98-8.52-10.22-5.11-22.65-5.11-32.87.18-5.45-5.46-10.73-10.91-16.19-16.19 3.75-8 5.46-17.2 2.73-25.72-2.05-8.68-7.84-15.84-10.73-24.01-2.73-6.98 3.75-15.16 11.07-13.97Zm114.97 57.23c18.4 18.57 37.14 36.96 55.36 55.69-20.95 20.44-41.04 41.9-62.51 61.83-4.93-5.28-10.22-10.39-15.33-15.67 18.23-22.48 20.78-55.01 8.52-80.9-2.22-6.13-6.99-13.63-2.56-19.76 3.58-5.45 12.27-6.3 16.52-1.19Z"/><path fill="#f96302" d="M.81 1319.75c6.81-2.72 13.29-6.99 20.79-6.81 9.02 1.7 14.65 9.71 20.94 15.66 85.69 85.34 171.02 170.83 256.53 256.16 4.77 5.29 10.9 10.56 11.75 18.06-.34 7.32-4.26 13.8-7.31 20.27-101.02-.17-201.85-.17-302.7-.17 0-101-.17-202.18 0-303.17"/><path fill="#fff" d="M793.73 1315.15c30.32-2.55 60.47 8.34 85.51 24.87 19.58 13.11 37.81 28.27 51.77 47.18 16.7 22.31 26.92 49.56 27.1 77.66.5 32.02-12.1 64.38-34.92 87.03-5.29-5.11-10.4-10.22-15.51-15.5 3.06-5.78 6.64-11.92 5.62-18.73-1.7-10.22-8.68-18.57-15.67-25.55-38.32-38.32-76.65-76.64-114.98-114.97-7.83-7.66-16.69-16.01-28.27-16.85-6.3-.69-11.93 2.55-17.2 5.61-4.95-5.45-11.76-9.53-14.82-16.34 18.73-19.25 44.28-32.71 71.37-34.41Zm688.45 211.56c0-30.56 24.79-53.1 54.09-53.1 29.02 0 53.81 22.54 53.81 53.1 0 30.85-24.79 53.38-53.81 53.38-29.3 0-54.09-22.53-54.09-53.38Zm54.09 44.51c24.08 0 43.1-18.87 43.1-44.51 0-25.21-19.02-44.23-43.1-44.23-24.38 0-43.39 19.02-43.39 44.23 0 25.64 19.01 44.51 43.39 44.51Zm-11.27-13.66h-9.3v-61.41h23.38c14.51 0 21.7 5.35 21.7 17.46 0 10.99-6.91 15.78-15.92 16.91l17.47 27.04h-10.43l-16.2-26.63H1525v26.63Zm26.06-44.51c0-7.6-6.9-9.01-13.38-9.01H1525v19.01h11.13c7.88 0 14.93-.56 14.93-10Z"/></g></svg>