<svg xmlns="http://www.w3.org/2000/svg" version="1.2" viewBox="0 0 1133 1518"><path d="M479.7 1192c1.1 1.4 1.3 3.3.5 4.8l-30.2 60.8c-3.3 6.5-9.8 9.9-9.8 9.9-40.4 19.3-107.4 51.2-166.8 79.4l-1.1.5c-31.2 14.9-61 31.9-84.6 43.1l-10.4 4.9c-.6.3-1.3.5-1.9.5q-1.6 0-2.9-1.3c-1.3-1.2-1.8-3.2-1.1-4.8l4.5-10.6c5.7-13.6 18.9-46.6 28.6-68.5l.3-.7c2.2-5.1 4.1-9.6 5.8-13.4 0 0 3-6 7.6-8.3 86.1-39.6 181.9-72.8 246.7-94.4l10.1-3.3c1.6-.5 3.6 0 4.7 1.4zm-284-19.2c-52.1 108.8-99.3 220.3-140.6 333.2l-2.8 7.6c-1 2.3-3.2 3.8-5.8 3.8H5.9c-1.9 0-3.5-.8-4.6-2.3-1-1.5-1.4-3.3-.9-5.1 0 0 63.6-270.1 134.8-475-28.7-111.8-47.6-257.4-48.4-263.6-1-6.4.4-14.1 4.2-20.1C169.4 634.7 254.8 521 344.9 412.9c1.7-1.8 9.4-9.6 21.4-12.9 120.5-28.9 242.9-51.9 363.7-68.6l7.7-1.1c2.3-.3 4.7.8 5.9 3 1.1 2.1.8 4.8-.6 6.6l-5.2 6C553.7 559 393.7 792.7 262.5 1040.5l-.9 1.5c-4.4 8.4-24 46.2-28.3 54.5 0 0-25.5 51.2-37.6 76.3zM820 755.1s.8 6.7-2.3 11.3c0 0-124.6 202.6-178.2 307.2-3.5 6.8-9.7 12-17 14.1-122.3 35.4-245.5 78.8-366.1 128.7l-7 2.9c-.9.3-1.7.5-2.4.5-1.5 0-3-.7-4.1-1.8-1.7-1.8-2.1-4.5-1-6.7l3.3-6.9C386.4 909 566.9 633.2 781.7 384.7l5.1-5.8c1.6-1.8 4.2-2.5 6.4-1.7s3.8 2.9 3.9 5.4l.1 7.7c1.4 122.6 22.8 364.8 22.8 364.8zm304-400.8c-1.7 9.4-4 15.9-13.1 26.2C1030 473.3 953.2 571.2 882.6 672l-4.5 6.5c-1.3 1.6-3.2 2.5-5 2.5-.5-.2-1-.2-1.4-.3-2.5-.7-4.1-2.6-4.4-5.1l-.7-8c-11-122.2-15.6-247.2-13.5-371.7.1-8.4-3.3-16.6-9.5-22.2-6.1-5.7-14.6-8.4-22.9-7.5-125.4 13.7-253 34.4-379.5 61.5l-8.8 1.9c-2.5.5-5.1-.6-6.4-2.8-1.2-2-.9-4.8.7-6.7l6.1-6.7c78.4-87.7 161.4-172.9 246.8-253.1 9-8.7 19-15.7 31.6-20.1C795.2 12.6 869.2-1 931.6.4c68.7 1.5 112.9 14 143.4 40.5 35 30.5 74.3 150.8 49 313.4z"/></svg>