<svg xmlns="http://www.w3.org/2000/svg" version="1.2" viewBox="0 0 1558 618"><path fill="#161616" fill-rule="evenodd" d="M1353 576.8h205V618h-205zm-492 0h205V618H861zm364.9 0-16.4 41.2-16.3-41.2zm-459.3 0c-29.4 25.6-68.2 41.2-111.5 41.2H327.9v-41.2zm-766.7 0h287V618H-.1zm861-82.4h205v41.2h-205zm397 0-15.9 41.2h-64.9l-16.1-41.2zm-450.3 0c-3.7 14.6-9.6 28.5-17.2 41.2H327.9v-41.2zm-807.7 0h287v41.2H-.1zm1353 0h205v41.2h-205zm0-82.4h123v41.2h-123zm-410 0h123v41.2h-123zm347.1 0-16.1 41.2h-129.1l-16.2-41.2zm-488.2 0c3.7 13.1 5.7 26.9 5.7 41.2H655.8V412zm-391.9 0h123v41.2h-123zm-328 0h123v41.2h-123zm1271-82.4h123v41.2h-123zm-410 0h123v41.2h-123zm379.3 0-16.1 41.2h-193.9l-15.9-41.2zm-570.8 0c14.2 11.6 26.4 25.6 35.7 41.2H409.9v-41.2zm-669.5 0h123v41.2h-123zm1116-82.4 11.5 33.3 11.5-33.3h255v41.2h-123v-37.9l-14 37.9h-259.5l-13.5-37.9v37.9h-123v-41.2zm-1116 0h123v41.2h-123zm705.2 0c-9.4 15.6-21.6 29.6-35.7 41.2H409.9v-41.2zm688.8-82.4V206h-240.8l14.5-41.2zm-306.6 0 14.5 41.2H942.9v-41.2zm-361.7 0c0 14.3-2.1 28.1-5.8 41.2H655.9v-41.2zm-397.7 0h123V206h-123zm-328 0h123V206h-123zm1059-82.4 14.2 41.2H860.9V82.4zm416.9 0v41.2h-294.4l14.8-41.2zm-767.5 0c7.6 12.7 13.5 26.6 17.2 41.2H327.8V82.4zm-790.5 0h287v41.2H-.2zM1112.1 0l14.5 41.2H860.8V0zm445.8 0v41.2h-265.5L1306.6 0zM655.1 0c43 0 82.1 15.6 111.5 41.2H327.9V0zM-.1 0h287v41.2H-.1z"/></svg>