<svg xmlns="http://www.w3.org/2000/svg" version="1.2" viewBox="0 0 1480 1712"><path fill="#d4d4d5" d="m740 207.16 562.4 325.54L1480 429.12 740 0 0 429.12 177.6 532.7 740 207.16Z"/><path fill="#ed7c37" d="M177.6 532.7v646.14l59.2-34.53 123.33-69.05V636.28L740 414.32V207.16L177.6 532.7Z"/><path fill="#b7b7b8" d="M1302.4 532.7v646.14l-59.2-34.53 236.8 138.11v-853.3L1302.4 532.7Z"/><path fill="#de5126" d="M1302.4 532.7 740 207.16v207.16l379.87 221.96v438.98l123.33 69.05 59.2 34.53V532.7Z"/><path fill="#c2c2c3" d="M1302.4 1386Z"/><path fill="#a2a2a2" d="m1302.4 1386-182.53-103.58L1302.4 1386Z"/><path fill="#929293" d="M1119.87 1282.42v207.16l182.53 103.58V1386l-182.53-103.58ZM236.8 1144.31l-59.2 34.53V532.7L0 429.12v853.3l740 429.11v-207.16l-562.4-325.53 59.2-34.53Z"/><path fill="#b7b7b8" d="m740 1711.53 379.87-221.95v-207.16L740 1504.37v207.16Z"/><path fill="#c2c2c3" d="M1119.87 1282.42Z"/><path fill="#f89b33" d="m1302.4 1178.84-54.27-29.6-128.26-73.98L740 1297.21l-379.87-221.95-123.33 69.05-59.2 34.53L740 1504.37l379.87-221.95L1302.4 1386l177.6-103.58-177.6-103.58Z"/><path fill="#b7b7b8" d="M1480 1282.42 1302.4 1386v207.16l177.6-103.58v-207.16Z"/></svg>