<svg xmlns="http://www.w3.org/2000/svg" version="1.2" viewBox="0 0 1779 1766"><path fill="#ec0303" fill-rule="evenodd" d="M244.7 95.6c69.8-51 150.8-102.3 241.2-93.5-2.1 65.8-19.5 129.8-27.5 194.9-33.8 211.5 2.5 424.7 24.6 635.3 98.5-56.2 214.2-80.5 326.9-67.6 70.5 7 137.3 36.7 190 83.9-8.8-55.6-39.6-102.9-67.5-150.4 34.2-16.6 67.8-40.3 106.6-42.9 23.6 25.4 34.5 59.7 40 93.3 8.7 53.3 14.1 107.2 15.2 161.2 62.8-13 126.7-18.7 190.8-20.3-14.5-37.5-35.2-72.2-47.7-110.5-34.1-101.8-42.3-212.5-21.8-318 27.6-139.7 111.2-264.4 219.7-354.8C1507.5 50.3 1592-4.3 1687.3 1c1.3 93.5-28.8 183.5-34.5 276.4-12 174.4 10 348.7 31.7 521.5 30.5-28.1 63-53.9 94.5-80.8V799c-28.2 27.5-60.7 50.8-85.2 81.8-2.9 45.9 3.5 91.9 4.3 137.8 12.9 157.6-8.4 317.6-59.9 466.9-29.7 83.7-66.7 168.4-130.7 231.7-35 35.8-87.8 59.6-137.6 42.9-57.1-20.4-81.9-84.3-87-140.2-16.6-193.5 60.8-381 162.7-541.4-42.9-39.3-75.9-88.2-118.6-127.4-76-24.6-157.1-.1-232.5 16.3-5.7 36.2-9.2 73.1-21.3 107.9-7.6 19.5-20.5 44.5-45.6 39.7-21.5-38.2-13.1-84-16.5-125.9-106.8 13.3-226.2 20.8-320.4-40.9-37.8-22.8-52.3-67.4-51.1-109.6-50.6 15.9-103 32.4-145.4 65.6-9.2 33.7 0 70.4-.5 105.2 10.8 183.2-11.7 370.9-84.1 540.6-32.6 71.6-70.9 145.8-137 192.1-36 26.3-87.4 31.7-126.7 9.5-33.3-19.8-52.4-56.7-61.2-93.3-16.7-68.9-9.4-140.8 2.7-209.8 19.3-106 53.5-210 106.7-304 13.2-23.8 29.2-46.2 39.4-71.5-46.2-53.2-97.6-102.4-135.5-162.4C30.7 810.4-1.3 689 1.1 568.8c-2.9-185.6 99.4-361.3 243.6-473.2Zm38.1 48.3C151.8 301.6 113 521.2 149.2 719.7c16.8 107 65.6 207.6 133.5 291.3 20.7-24.3 42.1-48 64.2-71.2-16.6-95.4-33.8-190.9-42.6-287.4-12.2-153.6 15.1-308.5 69.2-452.2 17-46.8 37.4-92.4 52.8-139.8-59.6-3-105.9 43.2-143.5 83.5Zm1161 59.3c-102.5 160.7-122.4 362.5-84.4 546.5 20.1 98 69.2 187.2 128.9 266.4 19-26.2 41.6-49.8 58.2-77.6-2.2-83.7-28.4-165.2-33.5-248.9-18.1-157.7 2.9-319.3 57.1-468.3 18.1-54.6 45.3-106.1 58.6-162.3-83.1 8.5-143.4 77.3-184.9 144.2ZM784.2 844.9c-21.7 21.5-3.5 56.8 21.4 66.5 59.5 27.4 129.3 27.6 192.3 13.4-33.5-40.1-76.8-73.7-128.5-85.9-27.7-6.5-60.5-12.2-85.2 6Zm-509.1 300c-71.2 125.6-119 268.5-116.3 414.1.4 41.1 19.8 97.3 69.6 95.7 62-7.1 95.8-69.2 117.2-121.2 61.3-162.5 43.6-340.8 16.4-508.4-34.5 35.6-61.5 77.5-86.9 119.8Zm1127.6 180c-29.8 84.1-49.5 175.3-34.8 264.5 5.3 34.1 31.7 71 70.6 64.7 60-10.9 91.7-71.5 112.6-123 59.1-160.8 44.2-336.9 15.2-502.4-69.4 89.4-124.8 189.9-163.6 296.2Z"/></svg>