<svg xmlns="http://www.w3.org/2000/svg" version="1.2" viewBox="0 0 1576 510"><path fill="#503629" fill-rule="evenodd" d="M353.8 17.8h-68.3v329.9c0 124.9-59.1 161.7-170.7 161.7C21.5 509.4.5 473.9.5 426.6c0-10.5 5.2-44.7 38.1-44.7 32.8 0 35.4 22.4 35.4 59.2v7.9c2.7 23.6 23.7 40.7 47.3 38.1 63.1 0 92-28.9 92-130.2V17.8h-65.7V.7h204.9zm522.7 124.9c0 82.8-43.4 144.6-198.3 144.6h-53.9v134.1c-1.3 10.5 1.3 21 5.3 31.5 3.9 10.5 13.1 18.4 24.9 22.4 13.2 3.9 26.3 5.2 40.7 5.2v15.8h-214v-15.8c13.1 0 26.2-2.6 38.1-6.5 10.5-2.7 19.7-11.9 24.9-22.4 5.3-15.8 6.6-31.5 5.3-47.3V17.8h-59.1V.7h202.2c156.3 0 183.9 59.1 183.9 142zM666.3 270.2c94.6 0 141.9-43.4 141.9-122.3S779.3 20.4 659.8 20.4H623v247.2h40.7zM1516 446.3c4 10.5 11.9 19.7 22.4 25 11.8 3.9 24.9 6.6 36.7 6.6v15.7h-195.6v-15.7c11.8 0 23.6-2.7 35.4-6.6 9.2-4 17.1-11.8 21-22.4q4-17.7 4-35.5V73h-4l-172 423.3h-17.1c0-5.3-182.5-427.3-182.5-427.3h-7.9v331.3l1.3 35.5c1.3 9.2 3.9 17.1 9.2 25 6.6 7.9 14.4 13.1 24.9 15.8 7.9 2.6 15.8 3.9 25 3.9v15.8H976.3v-15.8c9.2 0 19.7 0 28.9-2.6 9.2-2.7 17-7.9 22.3-15.8 3.9-7.9 7.9-15.8 7.9-25V17.7h-61.8V2h141.9c1.3 3.9 161.5 377.3 161.5 377.3 1.3 1.3 2.6 2.6 4 2.6 1.3 0 2.6-1.3 2.6-2.6L1438.6 2H1566v15.7h-53.9v398.4c-1.3 11.8 0 23.6 3.9 34.2z"/></svg>