<svg xmlns="http://www.w3.org/2000/svg" version="1.2" viewBox="0 0 1770 1770"><path fill="#e61d2a" d="M885 1770C395.59 1770 0 1374.4 0 885 0 395.59 395.59 0 885 0c489.4 0 885 395.59 885 885 0 489.4-395.6 885-885 885Z"/><g fill="#fff"><path d="M713.9 1046.92c-55.07-35.4-129.14-41.3-249.11-8.52-127.83 30.16-170.45 49.17-226.82 10.49-21.64-19.01-29.5-49.82-23.6-93.75 13.11-72.11 49.16-140.94 113.41-217.64 36.05-39.99 68.83-74.08 112.75-87.84 33.44-8.53 30.16 17.7 26.23 21.63-4.59 0-11.8.65-17.05 4.59-4.59 3.28-17.04 15.08-17.7 30.15-.65 23.6 22.95 18.36 33.43 5.9 11.15-14.42 27.54-41.95 15.08-67.52-5.24-9.18-15.08-15.73-26.88-17.7-39.98-2.62-77.35 17.05-112.1 38.02-75.38 52.45-135.7 125.21-169.78 204.54-19.67 47.85-37.37 116.69-10.49 172.41 20.97 38.68 63.59 59.65 114.72 55.06 36.05-3.93 79.32-15.07 108.17-22.28 29.5-7.22 178.31-58.35 227.47 30.81 0 0 16.39-31.47 57.04-32.13 33.43-3.27 81.94 9.84 117.34 35.4-11.14-17.7-43.92-43.92-72.11-61.62Z"/><path fill-rule="evenodd" d="M479.87 746.68c28.84 20.98 1.31 76.7 0 85.88 10.49 1.96 41.95-20.98 60.96-41.3 15.08-16.39 39.99-38.03 56.38-43.93 11.8-5.9 30.16-7.86 42.61-.65 8.52 5.24 13.77 14.42 14.42 24.91 1.32 28.84-32.12 75.39-48.51 51.79-3.27-10.49.66-21.64 11.15-32.78 5.24-5.9 11.8-7.87 20.32-7.87 3.28-5.24 2.62-12.45-2.62-15.73-5.9-3.93-16.39-1.31-26.88 6.56-36.06 28.18-68.18 76.04-86.53 128.48-3.28 9.84-5.25 24.26.65 34.75 16.39 24.25 53.1-9.83 53.1-9.83 24.91-22.29 49.17-53.1 68.18-80.64 49.17-70.8 114.72-132.42 143.57-92.43 0 .65 1.31 2.62 1.31 2.62l5.24-8.52h46.55l-98.99 171.1c-1.97 4.59-3.28 10.49 0 13.11 2.62 1.97 7.21-.66 7.21-.66 25.57-12.45 64.9-69.48 64.9-69.48h15.73c-25.56 36.71-56.38 79.32-95.05 106.85-10.49 7.21-24.91 15.08-38.68 9.83-15.08-9.17-11.8-20.97-11.15-34.74 0 0-36.71 44.58-67.52 35.4-10.49-3.28-26.22-11.8-14.42-53.76 0 0 .66-3.93 1.31-6.55-2.62 2.62-7.87 7.21-7.87 7.21-28.84 28.19-61.62 59.66-102.92 53.1-30.81-9.83-29.5-41.3-30.81-49.82-3.28-28.19 30.81-85.22 30.81-85.88-9.18 2.62-17.04 4.59-23.6 5.9-.65.66-11.14 18.36-11.14 18.36-11.15 19.01-22.95 39.33-38.68 55.72l-2.62 3.28c-22.95 26.22-76.05 76.04-104.89 41.95-19.67-28.84-1.97-91.78 39.33-145.53 45.24-59.66 100.96-95.06 129.15-76.7Zm224.85 81.94c-36.71 49.17-48.51 84.57-49.16 96.37-.66 3.93.65 7.21 3.93 9.18 2.62 1.31 5.9 1.31 8.52.65 16.39-9.18 26.22-22.29 36.06-37.36l7.21-10.49c22.29-37.37 45.89-78.67 66.21-114.73-.66-5.9-9.18-14.42-30.81 4.59-6.56 5.9-32.78 39.34-41.96 51.79Zm-253.7 22.29c.66-1.31.66-1.97 0-1.97v-.65c-13.76-3.93-32.12-12.46-41.95-31.47v-.65h-.66c-15.73 22.29-32.12 46.54-41.95 74.07l-1.32 3.94c-3.27 11.14-7.86 25.56.66 35.4 3.93 5.24 11.8 3.93 17.7 1.96 19.01-9.83 34.09-30.15 46.54-46.54l20.33-32.78.65-1.31Zm19.67-39.33c2.62-9.18 5.24-19.01 5.24-27.54 0-6.55-1.31-12.45-5.24-17.04-6.56-4.59-17.05-1.97-24.26 2.62-7.21 5.25-23.6 20.32-19.66 39.99 2.62 9.83 12.45 18.36 24.91 22.29l3.93.66c2.62.65 4.59 1.31 5.9 0l9.18-20.98Zm588.03 62.93c10.49 20.32 3.94 47.86-1.31 66.21-23.6 64.9-71.45 121.28-124.55 147.5-24.26 9.84-59 15.74-85.23-11.8-30.81-32.12-26.87-86.53-14.42-123.24 16.39-55.07 47.2-110.79 96.37-175.04C997.1 696.2 1060.03 649 1127.56 629.33c18.35-4.59 43.92-6.55 59.65 10.49 0 0 7.21-1.96 15.73-5.24 20.98-7.21 62.28-17.05 112.76 10.49 22.29 12.45 44.58 24.91 66.21 38.02l13.11 8.52c-9.18 9.18-25.56 26.22-35.4 38.02-20.32-9.17-81.29-55.72-109.48-64.9 0 0-36.71-16.39-54.41-7.21.66 2.62.66 7.21.66 10.49 0 26.88-10.49 50.48-21.63 74.73-19.67 32.13-43.93 66.87-81.29 75.39-7.87.66-17.7 0-23.6-10.49-10.49-19.66 0-41.95 7.86-58.34 30.81-64.9 94.4-99.64 94.4-99.64-11.14-3.94-24.25-2.63-38.02 4.58-67.52 33.44-118 96.37-163.89 157.99-44.58 66.21-75.39 123.9-82.6 192.08-1.96 24.26 5.9 42.61 20.98 51.79 23.6 15.08 51.13-3.93 69.49-19.67 20.98-19.01 41.3-45.89 55.07-72.76 18.35-36.71 22.94-74.74 9.17-79.33-15.73-3.93-29.5 12.46-36.71 22.95-18.35 24.91-22.29 53.1-22.29 53.1-26.87 11.8-50.47 33.43-61.62 46.54 3.93-29.5 9.18-47.85 19.01-70.14 19.01-43.92 55.07-74.08 91.78-77.36 11.14-.65 21.63 5.25 26.22 15.08Zm122.59-203.22c0-3.28 0-5.25-.65-8.52-38.68 19.66-74.74 58.34-95.72 104.23-14.42 34.09 1.97 38.02 11.15 36.06 15.73-3.94 78.01-51.14 85.22-131.77Z"/><path d="M1553.01 681.12c-33.43 19.01-68.83 31.47-110.79 27.54-11.8 13.11-22.94 26.87-33.43 40.64 59.65 15.08 122.59-18.36 157.33-50.48 37.37-32.12 56.38-72.76 56.38-72.76s-28.19 32.12-69.49 55.06Zm-637.2 67.52h-43.92l-24.91 40.65h43.92l24.91-40.65Z"/><path fill-rule="evenodd" d="M1441.57 1050.86c27.53-16.39 49.16-49.83 66.21-74.74h16.39c-12.46 20.32-58.35 90.47-97.03 111.45-11.14 5.9-20.32 13.11-32.77 10.49-18.36-2.63-19.01-24.92-15.74-38.03-10.49 10.49-32.77 32.13-52.44 37.37-17.7 3.93-40.65-3.28-34.09-47.2-29.5 36.71-65.56 64.24-87.19 37.37-15.08-19.01-7.87-51.14 8.52-98.34 0 0 5.25-16.39 5.9-18.35h-.65c-10.49 2.62-24.26 3.28-25.57 3.28-25.57 44.57-57.69 93.08-103.58 117.34-7.21 3.93-24.25 11.14-38.02 3.93-13.11-7.21-18.35-22.29-15.73-45.89 3.93-30.15 17.04-56.37 30.15-80.63 24.91-38.68 59-85.22 104.24-104.23 9.83-4.59 24.91-7.21 37.36-1.31 10.49 7.86 13.11 18.35 13.11 30.15 0 5.25-.65 11.15-1.31 16.39-3.93 19.01-11.8 36.06-18.35 49.17 3.28 1.96 20.98-2.62 25.56-5.9 63.59-132.42 136.36-230.1 222.89-297.62l.66-.66c17.04-11.8 38.02-26.22 57.03-22.29 5.9.66 9.84 5.9 11.15 11.8 3.27 19.01-5.25 35.4-13.11 49.82-6.56 1.97-16.39 3.94-16.39 3.94l7.21-14.43c5.24-10.48 9.83-19.01 9.18-30.81-1.32-3.27-3.28-3.27-4.59-3.27-13.11 2.62-28.85 18.35-44.58 33.43l-9.83 9.83c-64.25 64.25-139.64 197.98-151.44 226.17 26.22-13.11 112.76-98.99 155.37-157.99 8.52-.66 15.73-1.97 15.73-1.97-6.55 13.11-53.1 73.43-108.16 125.87-25.57 24.26-53.76 46.54-78.02 63.59-11.8 26.22-23.6 55.07-28.84 85.22-.66 3.93-1.97 22.29 11.14 20.98 17.05-3.28 47.86-54.41 47.86-54.41 28.84-45.24 66.21-104.24 116.69-133.74 11.8-6.55 28.19-9.83 39.99-2.62 2.62 1.97 9.18 9.84 11.14 13.77 0 0 5.25-8.52 7.21-12.46h47.2l-68.83 121.94s-24.91 38.02-30.81 57.03c-1.97 7.21 4.59 9.83 9.18 6.56Zm-346.79-4.59c20.98 23.6 69.49-44.58 83.25-76.05-11.14-5.24-30.15-17.04-38.67-35.4-19.67 25.57-48.52 73.42-47.86 99.65 0 3.93.66 7.86 3.28 11.8Zm91.78-90.47c7.86-13.11 13.76-28.19 17.7-43.92v-.66c.65-3.93 1.31-8.52 1.31-13.11 0-7.21-1.31-13.77-7.21-17.7-5.9-1.97-14.43-.65-19.67 3.93-13.11 7.87-26.22 22.95-22.29 41.96 4.59 22.29 28.84 30.16 30.16 29.5Zm192.73 81.94c23.6-29.5 41.95-62.27 60.31-93.74 9.18-16.39 19.01-33.43 28.84-49.17.66-.65 1.32-3.27 1.32-3.93 0-2.62-1.97-5.24-3.28-6.56-7.21-2.62-13.77.66-19.67 5.25-35.4 28.19-59.65 69.49-80.63 104.23l-1.97 3.94c-7.21 15.07-15.08 30.81-14.42 47.2 0 1.96 1.97 5.24 3.93 5.9 7.87 2.62 14.42-3.28 20.98-9.18l4.59-3.94Zm113.41 75.39c-13.77 0-24.91-11.14-24.91-24.91 0-13.76 11.14-24.91 24.91-24.91s24.91 11.15 24.91 24.91c.66 13.77-10.49 24.91-24.91 24.91Zm0-44.57c-11.14 0-19.67 9.17-19.67 19.66s9.18 19.67 19.67 19.67c10.49 0 19.67-9.18 19.67-19.67 0-10.49-8.53-19.66-19.67-19.66Z"/><path fill-rule="evenodd" d="M1488.77 1090.84v9.84h-6.56v-26.22h10.49c3.28 0 5.9.65 7.87 1.96 1.31 1.31 2.62 3.28 2.62 5.25 0 1.96-.66 3.27-1.31 4.59-.66 1.31-1.97 1.96-3.94 2.62.66 0 1.97.65 2.63 1.31.65.65 1.31 1.97 1.96 3.28l3.94 7.21h-7.21l-3.28-6.56c-.66-1.31-1.31-1.96-1.97-2.62-.65-.66-1.31-.66-2.62-.66h-2.62Zm2.62-4.58c1.31 0 2.62 0 3.28-.66.65-.66.65-1.31.65-2.62s0-1.97-.65-2.62c-.66-.66-1.31-.66-3.28-.66h-2.62v6.56h2.62Z"/></g></svg>