<svg xmlns="http://www.w3.org/2000/svg" version="1.2" viewBox="0 0 1553 1268"><path fill="#003e69" fill-rule="evenodd" d="M1153.9.3c-4.1 20.9-10.9 41.2-16.4 61.7-39.2 139.9-77.5 280-114.7 420.4 176.5.3 353.1-.5 529.7.4-204.7 96.4-408.5 194.9-609.9 297.9-39.8 149.9-82.2 299.1-124.3 448.4 25.7-143.2 54.3-285.8 81.3-428.7-136.9 69.2-272.7 140.2-408.7 210.9-163.6 85.4-327.6 170.2-490.8 256.4l-.1-4.2v-7.3c303.4-171.9 607.4-342.8 910.9-514.6C923.2 676.4 936 611.3 948 546c-82.8-1.2-165.5-4.4-248.4-5.8-97.3 87.6-193.2 177.1-291.5 263.7 80.2-89.3 161-178.1 243.8-265-179.3-4.8-358.7-8.8-538-13.7C76 525 37.8 521.8 0 523.8v-40.2c234.8 0 469.5-1 704.2-1.1C853.8 321.4 1003.9 160.9 1153.9.3zM773.7 472.7c-3.3 2.9-6.1 6.4-8.9 9.8 65.3-.2 130.5 0 195.8-.1 13.6-72.2 27.6-144.3 41.2-216.5-76.5 68.5-151.9 138.1-228.1 206.8zm230.2 75.2C989.3 603.5 974.1 659 959 714.5c95.3-53.3 189.9-107.9 285.6-160.5-80.2-2.6-160.5-4.3-240.7-6.1z"/></svg>