<svg xmlns="http://www.w3.org/2000/svg" version="1.2" viewBox="0 0 1545 710"><path fill="#012169" d="M772.51.3 373.69 171.12H124.92v69.68H.3v468.38h1544.24V240.8H1420v-69.68h-248.69L772.51.3Z"/><path fill="#fff" d="m1140.77 295.69-.02 75.72 48.99.08 10.21-75.78-59.18-.02Z"/><path fill="#fff" fill-rule="evenodd" d="M1383.89 362.77c0-12.33 9.99-21.41 21.82-21.41 11.7 0 21.72 9.08 21.72 21.41 0 12.41-10.02 21.54-21.72 21.54-11.83 0-21.82-9.13-21.82-21.54Zm21.82 17.95c9.71 0 17.37-7.59 17.37-17.95 0-10.17-7.66-17.82-17.37-17.82-9.84 0-17.5 7.65-17.5 17.82 0 10.36 7.66 17.95 17.5 17.95Zm-8.28-5.54v-24.74h9.43c5.82 0 8.72 2.16 8.72 7.05 0 4.44-2.75 6.36-6.39 6.81l7.03 10.88h-4.19l-6.53-10.72h-4.33v10.72h-3.74Zm14.25-17.97c0-3.03-2.81-3.59-5.41-3.59h-5.1v7.68h4.5c3.16 0 6.01-.24 6.01-4.09Z"/><path fill="#fff" d="M246.64 553.72V295.68h-70.58v319.49h179.79v-61.45H246.64Zm710.52 61.46h168.01v-61.53h-97.08v-40.1h97.08v-59.24h-97.08v-40.32h97.08V352.2H957.16v262.98Z"/><path fill="#fff" fill-rule="evenodd" d="M587.88 581.6c0 18.53-15.04 33.58-33.6 33.58H417.95c-18.54 0-33.57-15.05-33.57-33.58V385.8c0-18.56 15.03-33.59 33.57-33.59h136.33c18.56 0 33.6 15.03 33.6 33.59v195.8ZM517.17 414h-62.08v139.39h62.08V414Z"/><path fill="#fff" d="M846.09 352.22v201.5h-42.61v-201.5H741.4v201.5h-42.61v-201.5h-70.71v229.36c0 18.56 15.03 33.61 33.59 33.61h83.58c14.08 0 27.19-9.73 27.19-23.81 0 14.08 13.11 23.81 27.19 23.81h83.6c18.54 0 33.57-15.05 33.57-33.61V352.22h-70.71Zm526.92 163.58.02.02-.43-.91c-.28-.56-.56-1.1-.85-1.66l-.43-.87c-11.18-22.42-36.23-41.15-76.55-57.29l-1.43-.54c-7.98-3.14-32.27-12.63-34.97-28.07-.74-4.33 1.02-11.12 5.84-15.25 5.08-5.17 12.87-7.83 23.14-7.83 16.44 0 35.13 6.73 44.82 10.73 20.4 8.45 38.29 16 38.46 16.11l1.77.74v-57.4l-.58-.37c-.39-.26-38.96-24.57-77.91-30.15-4.48-.39-8.91-.56-13.18-.56-35.86 0-63.03 13.02-80.72 38.71-14.86 21.11-16.5 54.52-3.87 79.46 16.24 28.18 42.29 39.95 67.49 51.35 10.38 4.67 21.13 9.56 31.19 15.52l.1.07c11.38 6.84 17.17 17.28 14.77 26.56-2.48 9.63-13.49 16.09-27.4 16.09-1.91 0-3.83-.1-5.71-.36l-.67-.09c-26.76-3.72-81.01-23.92-81.55-24.14l-1.73-.65v62.94l.89.3c.5.18 53.01 17.57 99.63 17.57h.01c25.44 0 44.65-5.13 57.06-15.21.31-.21 28.79-23.12 30.05-62.07.35-10.77-2.1-21.8-7.27-32.74"/></svg>