<svg xmlns="http://www.w3.org/2000/svg" version="1.2" viewBox="0 0 1500 927"><path fill="#ff5f00" d="M547 99.1h405.5v728.4H547z"/><path fill="#eb001b" d="M749.1 827.5c-78.5 61.7-177.6 99-285.7 99C207.2 926.5 0 719.4 0 463.3S207.2 0 463.4 0c108.1 0 207.2 37.3 285.7 99.1C642.3 184 572.8 315.3 572.8 463.3s69.5 280.5 176.3 364.2z"/><path fill="#f79e1b" d="M1499.5 463.3c0 256.1-207.2 463.2-463.4 463.2-108.1 0-207.2-37.3-285.7-99 108.1-85 176.3-216.2 176.3-364.2S857.2 184 750.4 99.1C828.9 37.3 928 0 1036.1 0c256.2 0 463.4 208.5 463.4 463.3z"/></svg>