<svg xmlns="http://www.w3.org/2000/svg" version="1.2" viewBox="0 0 1590 1332"><path d="M609.62 815.74c-.07 2.41-.08 4.82-.03 7.23.04 2.41.15 4.82.31 7.23.16 2.4.37 4.8.65 7.2.27 2.39.61 4.78 1 7.16.23.8.56 1.58.96 2.32.4.74.87 1.43 1.42 2.07.54.64 1.15 1.23 1.81 1.74.67.51 1.38.96 2.14 1.32 1.95.49 3.92.9 5.9 1.23 1.99.34 3.98.59 5.99.77 2 .17 4.01.27 6.02.29 2.01.02 4.02-.04 6.03-.18h39.04c4.75.11 9.5.06 14.24-.15s9.48-.59 14.19-1.11a208.8 208.8 0 0 0 14.09-2.07 211.4 211.4 0 0 0 13.92-3.01c3.78-1.1 7.46-2.5 11.01-4.19 3.56-1.69 6.97-3.66 10.2-5.9 3.24-2.24 6.29-4.73 9.12-7.46 2.84-2.73 5.45-5.68 7.81-8.83 2.63-3.39 4.97-7 6.98-10.79 2.01-3.78 3.69-7.74 5.02-11.82a73.59 73.59 0 0 0 2.9-12.52c.61-4.25.84-8.54.7-12.83a70.65 70.65 0 0 0-2.46-20.99c-.94-3.41-2.13-6.74-3.57-9.97a70.512 70.512 0 0 0-5.04-9.33 68.088 68.088 0 0 0-14.71-15.09 68.024 68.024 0 0 0-8.93-5.67 68.215 68.215 0 0 0-9.69-4.21c-5.48-1.64-11.03-3.06-16.63-4.24-5.6-1.17-11.24-2.12-16.92-2.83-5.68-.71-11.38-1.18-17.1-1.41-5.72-.23-11.44-.22-17.16.02h-69.21v116.02Zm159.99-225.67c1.85-2.59 3.5-5.32 4.91-8.17 1.42-2.86 2.61-5.82 3.56-8.86a60.43 60.43 0 0 0 2.1-9.3c.45-3.15.64-6.34.59-9.52.09-3.19-.07-6.37-.48-9.53-.41-3.15-1.06-6.28-1.96-9.33a59.82 59.82 0 0 0-3.38-8.91 61.097 61.097 0 0 0-4.74-8.28 57.332 57.332 0 0 0-6.2-7.19 57.35 57.35 0 0 0-7.31-6.06c-2.6-1.81-5.34-3.4-8.2-4.76a56.676 56.676 0 0 0-8.89-3.34c-5.83-1.33-11.71-2.47-17.63-3.4-5.91-.94-11.85-1.67-17.82-2.2-5.96-.53-11.94-.86-17.92-.98-5.99-.13-11.98-.05-17.96.23h-58.66v130.6h58.66c5.74.24 11.49.25 17.22.05 5.74-.2 11.47-.63 17.18-1.26 5.71-.64 11.39-1.5 17.03-2.57 5.64-1.07 11.24-2.36 16.79-3.86 3.27-1.02 6.47-2.3 9.55-3.81 3.07-1.52 6.03-3.28 8.84-5.26a66.562 66.562 0 0 0 14.72-14.29Zm119.43-122.86c3.48 4.84 6.57 9.94 9.26 15.26 2.68 5.32 4.93 10.85 6.75 16.53 1.82 5.67 3.19 11.48 4.09 17.37.91 5.89 1.35 11.85 1.33 17.81 0 2.92-.1 5.84-.3 8.66h19.91V493.5h72.95v-49.35H867.8c2.01 1.68 3.97 3.42 5.87 5.22 1.9 1.81 3.74 3.68 5.52 5.6 1.77 1.93 3.48 3.92 5.13 5.96 1.64 2.04 3.22 4.13 4.72 6.28Zm-22.65 159.43c-4.18 3.35-8.52 6.52-12.99 9.47-4.48 2.95-9.09 5.7-13.82 8.22-4.74 2.52-9.58 4.82-14.53 6.89a173.6 173.6 0 0 1-15.1 5.51c4.99 1.12 9.95 2.4 14.86 3.85 4.92 1.44 9.78 3.04 14.59 4.8 4.81 1.76 9.56 3.68 14.25 5.75 4.68 2.07 9.3 4.29 13.84 6.65 1.67.95 3.32 1.93 4.94 2.95 1.63 1.02 3.23 2.07 4.81 3.17 1.58 1.09 3.13 2.21 4.66 3.38 1.53 1.16 3.03 2.36 4.5 3.59h58.06v-49.35h94.57v-49.33H895.07c-1.86 3.26-3.87 6.43-6.01 9.52-2.15 3.08-4.42 6.07-6.82 8.96a132.67 132.67 0 0 1-7.58 8.33c-2.64 2.66-5.4 5.21-8.27 7.64Zm-3.42-577.3h44.78v49.35h-44.78V49.34Zm-75.35 49.35h44.77v49.34h-44.77V98.69Zm501.76 0h44.68v49.34h-44.68V98.69ZM1070.15 0h44.78v49.34h-44.78V0Zm-86.63 296.07h44.78v49.34h-44.78v-49.34Zm115.5 49.34h44.68v49.4h-44.68v-49.4Zm323.08 0h44.78v49.4h-44.78v-49.4Zm74.76-197.38h44.78v49.4h-44.78v-49.4Zm-359.6 98.69h44.67v49.35h-44.67v-49.35Zm-222.16 0h44.78v49.35H915.1v-49.35Zm116.8 197.43h44.68v49.35h-44.68v-49.35Zm168.14 0h44.68v49.35h-44.68v-49.35Zm57.45 246.72h44.78v49.45h-44.78v-49.45Zm-142.56-98.68h44.67v49.34h-44.67v-49.34Zm197.21-49.35h44.67v49.35h-44.67v-49.35Zm132.3 49.35h44.78v49.34h-44.78v-49.34Zm97.2 160.06h44.77v49.34h-44.77v-49.34Zm-449.16 86.76h44.78v49.34h-44.78v-49.34Zm44.78 49.34h44.67v49.35h-44.67v-49.35Zm120.23 0h44.78v49.35h-44.78v-49.35Zm99.32-83.59h44.66v49.35h-44.66v-49.35Zm-347.22 83.59h44.66v49.35h-44.66v-49.35Zm190.45 148.04h44.68v49.34h-44.68v-49.34Zm-96.18 98.69h44.66v49.34h-44.66v-49.34Zm-87.2 74.12h44.78v49.34h-44.78v-49.34Zm75.82-419.54h-66.29v-49.34h44.27v-49.45h-44.79v49.45H921.44c3.91 10.33 6.52 21.11 7.77 32.08 1.26 10.98 1.14 22.07-.34 33.01a133.257 133.257 0 0 1-24.44 60.78c-4.58 6.17-9.6 12.01-15.02 17.46a160.124 160.124 0 0 1-17.36 15.13c-6.14 4.62-12.6 8.8-19.34 12.49-6.73 3.7-13.73 6.9-20.92 9.6-4.89 1.84-9.85 3.54-14.85 5.07-5 1.53-10.04 2.9-15.13 4.11a236.44 236.44 0 0 1-15.37 3.15c-5.15.89-10.33 1.61-15.53 2.17v80.55c.01 1.56-.29 3.1-.87 4.54-.58 1.43-1.45 2.74-2.54 3.85-1.09 1.1-2.39 1.98-3.82 2.58-1.43.6-2.96.92-4.51.92h-51.25c-1.56 0-3.1-.31-4.54-.91-1.44-.6-2.75-1.47-3.85-2.58-1.1-1.1-1.97-2.41-2.57-3.85-.59-1.44-.9-2.99-.9-4.55v-76.21c-.6 0-1.11.1-1.61.1h-46.6v76.13c0 1.56-.31 3.1-.9 4.54-.6 1.44-1.47 2.75-2.57 3.86-1.11 1.1-2.41 1.98-3.85 2.57-1.44.6-2.99.91-4.54.92h-51.22c-1.55-.01-3.09-.33-4.52-.93-1.43-.6-2.73-1.48-3.82-2.58a11.95 11.95 0 0 1-2.54-3.85 11.93 11.93 0 0 1-.87-4.53v-76.13H425.7c-1.54.01-3.07-.28-4.49-.87-1.43-.58-2.72-1.44-3.82-2.53a11.554 11.554 0 0 1-2.55-3.8c-.6-1.42-.9-2.94-.91-4.49v-50.64a11.743 11.743 0 0 1 3.44-8.34c1.09-1.1 2.39-1.97 3.82-2.56 1.43-.59 2.96-.89 4.51-.89h9.36c2.41.16 4.83.2 7.25.13 2.41-.08 4.82-.28 7.22-.59 2.4-.31 4.78-.74 7.13-1.28 2.36-.55 4.69-1.21 6.98-1.98 1.14-.52 2.24-1.15 3.28-1.86 1.04-.71 2.01-1.52 2.91-2.4.9-.88 1.72-1.84 2.45-2.87.74-1.02 1.38-2.11 1.92-3.24a90.918 90.918 0 0 0 2.77-14.98c.26-2.53.4-5.07.45-7.61.04-2.54-.02-5.09-.19-7.62V522.7c.19-2.55.26-5.11.23-7.67-.04-2.56-.18-5.12-.44-7.67-.25-2.54-.61-5.08-1.09-7.59a87.13 87.13 0 0 0-1.73-7.48c-.56-1.12-1.22-2.18-1.97-3.19-.74-1.01-1.56-1.95-2.46-2.82-.9-.87-1.86-1.67-2.89-2.38-1.03-.72-2.11-1.35-3.24-1.88-2.29-.8-4.61-1.48-6.96-2.04-2.36-.57-4.74-1.01-7.14-1.33-2.4-.32-4.81-.52-7.23-.6-2.42-.08-4.84-.03-7.25.14h-9.36c-1.55.01-3.08-.29-4.51-.88-1.43-.59-2.73-1.46-3.82-2.56-1.1-1.09-1.96-2.39-2.55-3.82-.59-1.43-.89-2.97-.89-4.52v-50.66a11.77 11.77 0 0 1 3.46-8.29c1.1-1.08 2.39-1.94 3.82-2.52 1.42-.59 2.95-.88 4.49-.87h147.31v-76.78c-.01-1.49.27-2.97.83-4.34.57-1.38 1.39-2.63 2.44-3.69s2.29-1.9 3.67-2.47c1.37-.58 2.84-.87 4.33-.88h52.31c1.5 0 2.98.29 4.36.86 1.38.57 2.63 1.41 3.69 2.46a11.412 11.412 0 0 1 3.32 8.06v76.78h48.1v-76.78a11.412 11.412 0 0 1 3.32-8.06c1.06-1.05 2.31-1.89 3.69-2.46 1.38-.57 2.87-.86 4.36-.86h52.31c1.49.01 2.96.3 4.33.88 1.38.57 2.62 1.41 3.67 2.47 1.05 1.06 1.88 2.31 2.44 3.69.56 1.37.85 2.85.84 4.34v79.8c4.83.49 9.66 1.13 14.45 1.92 4.8.8 9.57 1.76 14.3 2.87s9.43 2.38 14.08 3.8 9.25 2.99 13.8 4.71c.17.06.33.11.49.18.17.06.33.12.49.19.16.06.32.13.48.21.16.07.31.14.47.22v-26.38h125.16v-49.35H829.59v-49.35h46.97v-84.43c-172.99-80.42-376.61-55.49-525.13 64.3-148.52 119.8-216.14 313.64-174.4 499.92 41.75 186.28 185.61 332.64 371.02 377.47 185.41 44.83 380.17-19.66 502.27-166.33h-71.14V937.7h-49.1v-49.35h39.05v-49.32h123.35v-49.37Zm-426.82 458.41c-163.62.04-319.67-68.94-429.86-190C125.62 937.01 71.51 775.08 86.75 612.04 102 448.99 185.19 299.93 315.91 201.43 446.62 102.94 612.76 64.14 773.53 94.56V0h-44.67v49.34h-63.2V0C459.7-.16 265.27 95.11 139.06 258.02c-126.2 162.9-169.95 375.1-118.5 574.7 51.45 199.6 192.31 364.13 381.5 445.6 189.19 81.47 405.41 70.7 585.59-29.15v-64.75h-57.88a578.27 578.27 0 0 1-62.71 27.62 576.557 576.557 0 0 1-65.55 19.98 575.342 575.342 0 0 1-67.45 12.07c-22.7 2.68-45.54 4.01-68.4 3.98Zm471.1-211.68h-23.06a591.044 591.044 0 0 1-23.76 27.01 586.397 586.397 0 0 1-25.35 25.51 585.748 585.748 0 0 1-26.86 23.93 600.223 600.223 0 0 1-28.26 22.24h94.38v-49.35h32.9l.01-49.34Z"/></svg>