<svg xmlns="http://www.w3.org/2000/svg" version="1.2" viewBox="0 0 1587 838"><path fill="red" fill-rule="evenodd" d="M1586.9 18.6v801.3h-227.8V314.8l-124 504.6h-199.5L912.1 314.3v505H683.7v-155c-35.7 101.1-157 174.5-330.8 172.9C-10 839.3 1 547.3 0 502.5h231.4c0 66.5 16.3 144 116.6 147.6 56.1-.5 101.9-29.6 99.2-95.4-2.1-55.4-55.9-76.4-94.6-76.4h-68.1V322.8h75c75.2 0 98.5-27.6 100.9-67.1-1.7-45.6-33.2-74.9-101.4-74.4-55.6-.9-105 36.2-105 100.8H31C37.2 68 206.3-2.1 367.5 0c132.3 2.2 275.2 40.2 315.7 191.5V18.6h337.1l115 468.2 114.6-468.2zM683.8 285.8c-18.9 57.1-43.8 85.7-91 106.8 22.6 8.1 62.6 34 91 93.1z"/></svg>