<svg xmlns="http://www.w3.org/2000/svg" version="1.2" viewBox="0 0 1592 1591"><path fill="#004c7d" d="M.8.7H319v318H.8z"/><path fill="#0082c2" d="M.8 318.7H319v318H.8z"/><path fill="#75cccc" d="M.8 636.7H319v317.9H.8z"/><path fill="#73bf42" d="M.8 954.6H319v318.1H.8z"/><path fill="#00a84c" d="M.8 1272.7H319v318H.8z"/><path fill="#73bf42" d="M319 1272.7h318.2v318H319z"/><path fill="#c2d72e" d="M637.2 1272.7h318.2v318H637.2z"/><path fill="#d7a86e" d="M955.4 1272.7h318.3v318H955.4z"/><path fill="#eee1c5" d="M1273.7 1272.7h318.2v318h-318.2z"/><path fill="#c2d72e" d="M319 954.6h318.2v318.1H319z"/><path fill="#eee1c5" d="M637.2 954.6h318.2v318.1H637.2z"/><path fill="#e1c297" d="M955.4 954.6h318.3v318.1H955.4z"/><path fill="#d7a86e" d="M1273.7 954.6h318.2v318.1h-318.2z"/><path fill="#00b3c2" d="M319 636.7h318.2v317.9H319z"/><path fill="#e1c297" d="M637.2 636.7h318.2v317.9H637.2z"/><path fill="#de9c87" d="M955.4 636.7h318.3v317.9H955.4z"/><path fill="#eb1c23" d="M1273.7 636.7h318.2v317.9h-318.2z"/><path fill="#66c2ee" d="M319 318.7h318.2v318H319z"/><path fill="#f57f1e" d="M637.2 318.7h318.2v318H637.2z"/><path fill="#eb1c23" d="M955.4 318.7h318.3v318H955.4z"/><path fill="#c2262b" d="M1273.7 318.7h318.2v318h-318.2z"/><path fill="#0082c2" d="M319 .7h318.2v318H319z"/><path fill="#faa619" d="M637.2.7h318.2v318H637.2z"/><path fill="#c2262b" d="M955.4.7h318.3v318H955.4z"/><path fill="#8c1719" d="M1273.7.7h318.2v318h-318.2z"/></svg>