<svg xmlns="http://www.w3.org/2000/svg" version="1.2" viewBox="0 0 1547 1548"><path fill="#007a73" fill-rule="evenodd" d="M1159.76 387.35C1159.76 173.78 986.82.68 773.38.68 560.01.68 387 173.78 387 387.35h772.76ZM387 1160.66c0-213.53 173.01-386.67 386.38-386.67C560.01 773.99 387 600.92 387 387.35 173.63 387.35.66 560.46.66 773.99c0 213.6 172.97 386.67 386.34 386.67Zm0 0c0 213.6 173.01 386.67 386.38 386.67 213.44 0 386.38-173.07 386.38-386.67H387Zm386.38-386.67c213.44 0 386.38 173.14 386.38 386.67 213.41 0 386.42-173.07 386.42-386.67 0-213.53-173.01-386.64-386.42-386.64 0 213.57-172.94 386.64-386.38 386.64Z"/></svg>