<svg xmlns="http://www.w3.org/2000/svg" version="1.2" viewBox="0 0 1671 1498"><defs><clipPath id="a" clipPathUnits="userSpaceOnUse"><path d="M-1941.32-7269.37h33885.04v19037.98H-1941.32V-7269.37Z"/></clipPath></defs><g clip-path="url(#a)"><path fill="#2aace2" d="M1334.29 1382.72h-104.58c-24.33 0-37.16 19.73-37.16 57.83 0 36.61 12.83 56.4 37.16 56.4h403.08c25.38 0 38.21-19.79 38.21-56.4 0-38.1-12.83-57.83-38.21-57.83h-298.5Zm-596.72 0H634.1c-24.05 0-37.98 19.73-37.98 57.83 0 36.61 13.93 56.4 37.98 56.4h399.25c25.38 0 37.93-19.79 37.93-56.4 0-38.1-12.55-57.83-37.93-57.83H737.57Zm-597.24 0H36.57c-25.43 0-36.88 19.73-36.88 57.83 0 36.61 11.45 56.4 36.88 56.4h400.35c25.38 0 37.93-19.79 37.93-56.4 0-38.1-12.55-57.83-37.93-57.83H140.33Z"/><path fill="#e31837" fill-rule="evenodd" d="M7.03 31.38h143.36v192.09c49.21-71.57 99.89-121.94 152.12-154.73 71.65-43.4 147.67-65.6 226.78-65.6 53.65 0 104.46 10.61 153.72 31.38 47.61 20.78 87.87 49.01 117.9 84.64 29.78 34.15 56.6 84.95 79.05 148.75 47.66-86.36 107.29-151.58 177.52-197.76 71.46-44.81 147.74-67.01 229.81-67.01 77.44 0 144.71 19.42 202.8 58.2 58.21 38.4 101.43 91.97 131.46 162.13 28.24 68.42 41.62 172.42 41.62 309.21v604.26h-144.72V532.68c0-117.37-9-199.17-25.4-243.99-17.82-44.39-46.25-80.33-88.05-107.14-40.27-26.82-89.47-39.83-146.14-39.83-68.63 0-131.27 20.78-189.54 60.97-56.67 39.83-98.48 95.18-125.3 162.19-25.4 68.37-38.84 181.18-38.84 339.12v432.94H762.06V571.46c0-133.96-7.58-224.58-23.98-272.17-17.82-47.59-46.25-86.36-87.93-114.6-41.81-28.17-91.07-42.97-147.68-42.97-65.67 0-126.9 18.99-185.16 59.18-56.67 38.78-98.48 92.41-126.72 159.36-26.82 67.01-40.2 169.59-40.2 308.17v468.51H7.03V31.38Z"/></g></svg>