<svg xmlns="http://www.w3.org/2000/svg" version="1.2" viewBox="0 0 1805 1102"><path fill-rule="evenodd" d="M1804.37 685.71c0 115.99-32.02 220.55-90.03 294.82-62.28 79.66-151 121.69-256.75 121.69-105.69 0-194.47-41.96-256.87-121.69-58.02-74.21-89.84-178.83-89.84-294.82 0-115.98 31.82-220.73 89.84-294.88 62.4-79.47 151.18-121.63 256.87-121.63 105.75 0 194.47 42.16 256.68 121.69 58.02 74.09 90.1 178.84 90.1 294.82Zm-131.82.07c0-198.54-80.2-317.09-214.96-317.09s-215.21 118.55-215.21 317.09c0 198.46 80.51 317.08 215.21 317.08s214.89-118.62 214.96-317.08Z"/><path d="M474.34 874.96 208.57.48H0v1089.01h125.49V93.5l2.7 3.71 298.09 992.28h97.49L821.86 97.21l2.76-3.71v995.99h125.49V.48H741.23L475.78 874.96l-.76 4.58-.68-4.58Z"/></svg>