<svg xmlns="http://www.w3.org/2000/svg" version="1.2" viewBox="0 0 835 1516"><defs><radialGradient id="a" cx="403.669" cy="749.187" r="54.987" gradientUnits="userSpaceOnUse"><stop offset="0"/><stop offset="1" stop-opacity="0"/></radialGradient></defs><path fill="#b1060f" d="m537.49 1.49-.59 334.87-.6 334.87-27.5-77.74v-.2l-35.67 745.49c35.07 98.86 53.8 151.68 54 151.88.2.2 20.13 1.4 44.24 2.59 72.93 3.59 163.39 11.37 232.14 19.94 15.94 1.99 29.49 2.99 30.49 2.19.99-.8 1.19-341.65.99-757.64L834.4 1.49H537.49ZM.48.49v757.05c0 416.39.4 757.44 1 758.04.59.6 26.3-1.99 57.38-5.38 31.09-3.39 73.93-7.78 95.25-9.57 32.68-2.79 130.72-8.97 141.88-9.17 3.38 0 3.58-16.94 3.98-320.72l.6-320.71L324.28 917c3.59 10.36 4.78 13.55 8.37 23.72l35.67-745.28c-7.57-21.33-3.59-10.17-12.16-34.49-29.09-82.32-53.8-151.89-54.79-155.07l-2-5.59H.48v.2Z"/><path fill="#b1060f" d="m537.49 1.49-.59 334.87-.6 334.87-27.5-77.74v-.2l-35.67 745.49c35.07 98.86 53.8 151.68 54 151.88.2.2 20.13 1.4 44.24 2.59 72.93 3.59 163.39 11.37 232.14 19.94 15.94 1.99 29.49 2.99 30.49 2.19.99-.8 1.19-341.65.99-757.64L834.4 1.49H537.49ZM.48.49v757.05c0 416.39.4 757.44 1 758.04.59.6 26.3-1.99 57.38-5.38 31.09-3.39 73.93-7.78 95.25-9.57 32.68-2.79 130.72-8.97 141.88-9.17 3.38 0 3.58-16.94 3.98-320.72l.6-320.71L324.28 917c3.59 10.36 4.78 13.55 8.37 23.72l35.67-745.28c-7.57-21.33-3.59-10.17-12.16-34.49-29.09-82.32-53.8-151.89-54.79-155.07l-2-5.59H.48v.2Z"/><path fill="url(#a)" d="M.48.49v424.97l299.29 794.12c0-18.14 0-28.11.2-48.84l.6-320.71L324.28 917c131.52 373.14 202.25 573.26 202.65 573.66.2.2 20.13 1.4 44.24 2.59 72.93 3.59 163.4 11.37 232.14 19.94 15.94 1.99 29.49 2.99 30.49 2.19.6-.6 1-167.63 1-403.44L537.1 255.23l-.2 81.13-.6 334.87-27.5-77.74c-26.9-75.94-44.83-126.77-153.03-432.54-29.1-82.32-53.8-151.89-54.8-155.07L298.98.29H.48v.2Z"/><path fill="#e50914" d="m.48.49 299.89 850.13v-.4l23.71 66.98c131.72 372.94 202.45 573.06 202.85 573.46.2.2 20.13 1.4 44.24 2.59 72.93 3.59 163.4 11.37 232.14 19.94 15.74 1.99 29.49 2.99 30.29 2.19L536.3 671.03v.2l-27.5-77.74c-26.9-75.94-44.83-126.77-153.03-432.54-29.1-82.32-53.8-151.89-54.8-155.07L298.98.29H149.73L.48.49Z"/></svg>