<svg xmlns="http://www.w3.org/2000/svg" version="1.2" viewBox="0 0 1559 1032"><path fill="#76b900" fill-rule="evenodd" d="M1557.9-.5v1030.28H581.99V908.81c20.64 2.29 41.29 3.44 63.07 3.44 225.92 0 624.43-115.24 795.3-258.58-25.23-25.22-147.37-83.13-177.18-107.21-180.05 154.8-365.82 286.09-622.7 286.09-19.5 0-39.57-1.72-59.06-4.01v-86c23.51 4.01 47.02 6.31 71.1 6.31 275.8 0 540.71-322.22 540.71-322.22s-231.08-302.14-584.86-290.1l-27.53 1.72V-.5h977.06ZM608.37 212.78c254.58-8.03 421.44 219.01 421.44 219.01S849.76 681.77 656.53 681.77c-25.8 0-51.03-4.02-75.11-12.04V387.65c99.19 12.04 119.26 55.61 178.32 154.8L892.2 431.22s-96.91-126.71-259.75-126.71c-17.2-.57-34.4.58-51.61 2.3v-92.84C299.69 236 159.4 443.26 159.4 443.26s107.23 346.29 421.44 385.28v80.27C152.52 868.67 0 427.21 0 427.21s269.49-263.74 581.42-288.96v75.64c8.98-.56 17.96-1.11 26.95-1.11Zm-27.53 530.33c-237.38-42.42-303.32-289.53-303.32-289.53s114.11-126.13 303.32-146.77v80.26h-.57c-99.2-12.04-177.18 80.84-177.18 80.84s44.15 156.52 177.75 201.82v73.38Z"/></svg>