<svg xmlns="http://www.w3.org/2000/svg" version="1.2" viewBox="0 0 1547 1604"><path fill="#005bab" fill-rule="evenodd" d="M474.2 1095.9c83.8 148.7 243.9 297.3 514.5 304.9 186.7 0 339.2-76.2 453.5-213.4 19.1-26.7 41.9-61 53.4-87.7h15.2c-123.5 295.7-405 499.5-721.8 503.2h-17.5c-137.2-3.9-263-30.5-385-99.2 0 0-240-110.5-354.4-404H478z"/><path fill="none" d="M474.2 1095.9c83.8 148.7 243.9 297.3 514.5 304.9 186.7 0 339.2-76.2 453.5-213.4 19.1-26.7 41.9-61 53.4-87.7h15.2c-123.5 295.7-405 499.5-721.8 503.2m-17.5 0c-137.2-3.9-263-30.6-385-99.2 0 0-240-110.5-354.4-404H478"/><path fill="#ed1b2f" fill-rule="evenodd" d="M699.1 627.1c30.4 45.7 53.3 76.2 72.4 106.7 22.8-34.3 38.1-57.2 72.4-106.7h171.5c-49.6 64.7-99.1 133.4-133.4 175.3 45.7 61 87.6 118.2 133.4 175.3H840.1c-22.9-34.3-42-64.8-68.6-102.9-19.1 30.5-49.6 72.4-72.4 102.9H527.6c41.9-57.1 87.6-118.1 133.3-175.3C619 749 565.7 684.2 527.6 627.1h171.5z"/><path fill="none" d="M699.1 627.1c30.4 45.7 53.3 76.2 72.4 106.7 22.8-34.3 38.1-57.2 72.4-106.7h171.5c-49.6 64.7-99.1 133.4-133.4 175.3 45.7 61 87.6 118.2 133.4 175.3H840.1c-22.9-34.3-42-64.8-68.6-102.9-19.1 30.5-49.6 72.4-72.4 102.9H527.6c41.9-57.1 87.6-118.1 133.3-175.3C619 749 565.7 684.2 527.6 627.1h171.5z"/><path fill="#ed1b2f" fill-rule="evenodd" d="M1301.2 730q40-51.5 80-102.9h163.9c-68.6 87.6-144.8 182.9-171.5 217.2v133.4H1225V844.3c-30.5-41.9-137.2-175.3-167.7-217.2h163.8z"/><path fill="none" d="M1301.2 730q40-51.5 80-102.9h163.9c-68.6 87.6-144.8 182.9-171.5 217.2v133.4H1225V844.3c-30.5-41.9-137.2-175.3-167.7-217.2h163.8z"/><path fill="#005bab" fill-rule="evenodd" d="M1064.9 508.9c-80-144.9-240.1-293.5-510.7-305-190.5 0-339.1 80.1-453.5 213.5-19 26.7-41.9 61-57.1 87.7H32.1C155.9 208.7 438.5 4.6 756.3 1.9q7.6-.1 15.2 0c137.2 7.6 262.9 34.3 384.9 99.1 0 0 236.2 110.6 354.4 404.1h-449.7z"/><path fill="none" d="M1064.9 508.9c-80-144.9-240.1-293.5-510.7-305-190.5 0-339.1 80.1-453.5 213.5-19 26.7-41.9 61-57.1 87.7H32.1C155.9 208.7 438.5 4.6 756.3 1.9q7.6-.1 15.2 0c137.2 7.6 262.9 34.3 384.9 99.1 0 0 236.2 110.6 354.4 404.1h-449.7"/><path fill="#ed1b2f" fill-rule="evenodd" d="M382.7 977.7H96.9c-64.8 0-95.3-45.7-95.3-80V703.3c11.5-57.2 61-76.2 95.3-76.2h285.9c91.4-3.9 91.4 76.2 91.4 76.2v194.4s7.6 80-91.5 80zM150.3 802.4v34.3s0 38.1 38.1 38.1h106.7c26.7 0 34.3-11.4 34.3-38.1 0-22.9 3.8-61 3.8-68.6-3.8-22.9-19.1-38.1-38.1-38.1H188.4c-38.1-3.8-38.1 34.3-38.1 34.3v38.1z"/><path fill="#ed1b2f" fill-rule="evenodd" d="M382.7 977.7H96.9c-64.8 0-95.3-45.7-95.3-80V703.3c11.5-57.2 61-76.2 95.3-76.2h285.9c91.4-3.9 91.4 76.2 91.4 76.2v194.4s7.6 80-91.5 80zM150.3 802.4v34.3s0 38.1 38.1 38.1h106.7c26.7 0 34.3-11.4 34.3-38.1 0-22.9 3.8-61 3.8-68.6 0-22.9-19.1-38.1-38.1-38.1H188.4c-38.1-3.8-38.1 34.3-38.1 34.3v38.1z"/><path fill="none" d="M382.7 977.7H96.9c-64.8 0-95.3-45.7-95.3-80V703.3c11.5-57.2 61-76.2 95.3-76.2h285.9c91.4-3.9 91.4 76.2 91.4 76.2v194.4s7.6 80-91.5 80zM150.3 764.3s0-38.1 38.1-34.3h106.7c19 0 38.1 15.2 38.1 38.1 0 7.6-3.8 45.7-3.8 68.6 0 26.7-7.6 38.1-34.3 38.1H188.4c-38.1 0-38.1-38.1-38.1-38.1v-72.4z"/></svg>