<svg xmlns="http://www.w3.org/2000/svg" id="Layer_1" data-name="Layer 1" viewBox="0 0 60.77 60.77"><title>logo</title><path d="M39.32,30.35H9.59A29.73,29.73,0,0,1,39.32.61h0Z" transform="translate(-8.94 0.04)" style="fill:#007674;stroke:#fff;stroke-miterlimit:10;stroke-width:1.3px"/><path d="M39.32,30.35V60.09A29.74,29.74,0,0,1,9.59,30.35H39.32Z" transform="translate(-8.94 0.04)" style="fill:#00683f;stroke:#fff;stroke-miterlimit:10;stroke-width:1.3px"/><path d="M39.32,30.35H69.06A29.74,29.74,0,0,1,39.32,60.09h0Z" transform="translate(-8.94 0.04)" style="fill:#eb7e23;stroke:#fff;stroke-miterlimit:10;stroke-width:1.3px"/><path d="M39.32,30.35V.61A29.73,29.73,0,0,1,69.06,30.35H39.32Z" transform="translate(-8.94 0.04)" style="fill:#a2becf;stroke:#fff;stroke-miterlimit:10;stroke-width:1.3px"/><path d="M59.44,30.35A20.12,20.12,0,1,1,39.32,10.23,20.12,20.12,0,0,1,59.44,30.35Z" transform="translate(-8.94 0.04)" style="fill:#fff"/><path id="wheel" d="M33.94,32.29a5.89,5.89,0,1,1-5.89-5.89A5.89,5.89,0,0,1,33.94,32.29Z" transform="translate(-8.94 0.04)" style="fill:none;stroke:#231f20;stroke-width:0.36504000000000003px"/><path id="top_of_driver" data-name="top of driver" d="M26.23,22.06l1.48-.19-.06.39.71.33-.58.25-.06.6-.42,0,0,.07.33.09s.91.66,1.07.82a1.07,1.07,0,0,0,.56.28c.07,0,1.08-.68,1.22-.7L31,24l0,.56a1.68,1.68,0,0,0-.48,0c-.07.06-.77.92-.87,1s-1.43-.32-1.43-.25.21.85.21.85L27,27.09,26,25.23a7,7,0,0,1,.28-1.69c.19-.3-.19-.69-.14-.9A4.3,4.3,0,0,0,26.23,22.06Z" transform="translate(-8.94 0.04)" style="fill:#231f20"/><polygon id="seat" points="17.91 27.65 19.95 27.65 19.95 28.23 17.93 28.23 17.91 27.65" style="fill:#231f20"/><path id="tail" d="M30.1,27.64a1.86,1.86,0,0,1,.52,1c0,.43-.42.62-.64.73a9.06,9.06,0,0,1-2.3.83c-.32-.06-.08-.1,0-.21s-1.3.26-1.86-.1c-.12-.08.31-.07.31-.07s-.71-.39-.83-.72.91,1.51,3-.28C29.66,27.71,30,27.63,30.1,27.64Z" transform="translate(-8.94 0.04)" style="fill:#231f20"/><path id="shoe" d="M30.75,29.15l.37-.36v.06a4.54,4.54,0,0,1,1.12-.3c.12.07-.19.72-.74.76s-.1,0-.1,0,.08.07.06.08-.5.24-.5.24Z" transform="translate(-8.94 0.04)" style="fill:#231f20"/><path id="tail-2" d="M30.79,27.33l.35,1.22a5.81,5.81,0,0,1,1.07-.5c.47-.15.92-.13.9-.2a1.17,1.17,0,0,1,0-.48S32.8,27,30.79,27.33Z" transform="translate(-8.94 0.04)" style="fill:#231f20"/><path id="hind_leg" data-name="hind leg" d="M32.83,29.73c.1-.45.18-.91.18-.91s-1.66,1.9-1.67,2-.14,2.14-.46,2.23-1.55.17-1.58.22-1.44,2.09-1.56,2.2-.54.7-1,.53-.15-.3-.22-.3-1.23.69-1.19.82,1.22-.09,1.28-.1a7.41,7.41,0,0,0,.95,0c.08,0,1.65-2,1.73-2a20.81,20.81,0,0,0,3.26.27,17.41,17.41,0,0,0,3.57-1.45,12.34,12.34,0,0,0-1.63-1.29,11.45,11.45,0,0,1-1.7-1.39C32.63,30.37,32.76,30.05,32.83,29.73Z" transform="translate(-8.94 0.04)" style="fill:#231f20"/><path id="main_body" data-name="main body" d="M33.62,28.07l-.41,2.21s3.5,2.77,3.56,2.9a4.17,4.17,0,0,1,.4,1.2c.1.68,0,1.38,0,1.39.59.08,3.6-.48,3.89-.45s1,.11,1.15.48-.12.1-.12.1l-.23.29s.62.55,1.12.43c.14,0,0-.35-.16-.65s-.23-.54-.26-.59-.25-.15-.45-.26-.5-.29-.54-.29-2.72.12-2.69,0a14.25,14.25,0,0,0,.55-3.08,14,14,0,0,0-1.14-1.29c-.58-.56-1.16-.94-1.09-1s.35-.31.42-.25,2.13,2.16,2.15,2.28,0,.95,0,1S44,34,46.32,33.72c.16,0-.85-1.59-.72-1.66s.25-.32.33-.25a10.88,10.88,0,0,1,.73,1.38,9.65,9.65,0,0,0,.82,1.6c.3,0,4.64-2.14,4.84-2.09s3.29,2,3.31,2.12-.16.12-.11.17.34.12.35.17.14.25.06.27-.25,0-.28,0-.21.15-.18.19.74.84,1.06.8-.1-1.62-.5-1.94c-.17-.14-.73-.56-1.29-1a15.55,15.55,0,0,0-1.51-1.19A3.49,3.49,0,0,0,51.57,32a12.51,12.51,0,0,1-2.63.33c-.09-.14-.47-2.76-.61-3s-1.9-4.93-1.78-4.85.58.64.66.69.24,0,.31.09.8.74.84.77.44.51.52.49.66-.26.68-.39a3.45,3.45,0,0,0,0-1.15,8,8,0,0,1-.83-1.62c.07-.13.3-.4.27-.48a11.58,11.58,0,0,0-.59-1.33c-.1-.1-.43-.27-.41-.36s.57-1.08.42-1.34-.24.22-.42.34-.53.36-.52.51-.72-.07-1.05-.05a3.07,3.07,0,0,1-1.13,0,5.93,5.93,0,0,1-.7-.32c-.07,0,.17.29.26.37s-1.52-.22-1.5-.13a4.38,4.38,0,0,0,.58.74,6,6,0,0,1-1-.24c-.3-.08-.58-.18-.56-.12a5.45,5.45,0,0,0,.84,1.37c.15.08-.36-.09-.78-.23-.25-.08-.47-.17-.46-.13a1.68,1.68,0,0,0,.58,1c.43.3-.82-.09-.73.05a4.39,4.39,0,0,0,.85.67,2.34,2.34,0,0,1-.84.08c-.35,0-.75-.05-.72,0a5.75,5.75,0,0,0,1,.93c.32.21-.41-.06-.41.07a2.1,2.1,0,0,0,.72.79c.28.18-.41,0-.4.08a1.92,1.92,0,0,0,.28.5c.14.19.3.31.27.34s-.79,1-.94,1-2.64,0-2.77.08a11.34,11.34,0,0,0-3.39-.14A6.41,6.41,0,0,0,33.62,28.07Z" transform="translate(-8.94 0.04)" style="fill:#231f20"/><path id="front_leg" data-name="front leg" d="M48.41,34.73l1.26-.57L50,35.47s-2.65.68-2.82.74-.52.28-.61.29a10.85,10.85,0,0,1-1.51-.32S44.22,35,44.27,35s1.47.2,1.46.34,0,.22-.14.28-.11.12-.05.13a2.49,2.49,0,0,0,1.07.12,13.53,13.53,0,0,0,2-.8A3.57,3.57,0,0,0,48.41,34.73Z" transform="translate(-8.94 0.04)" style="fill:#231f20"/></svg>