<svg xmlns="http://www.w3.org/2000/svg" version="1.2" viewBox="0 0 1676 1694"><g fill-rule="evenodd"><path fill="#28458e" d="M2111.51 1210.09h707.14c242.97 0 332.93 121.46 332.93 336.1 0 184.91-87.49 327.93-330.46 327.93h-366.99v299.71h-342.62v-963.74Zm342.61 429.21h221.15c86.27 0 119.1-29.72 119.1-99.89 0-72.87-32.82-102.62-119.1-102.62h-221.15v202.51Zm810.45-429.21h922.12v234.81h-579.5v129.59h538.26v234.91h-538.26v129.57h579.5v234.86h-922.12v-963.74Zm1065.53 0h707.11c243.02 0 332.97 121.46 332.97 336.1 0 184.91-87.49 327.93-330.53 327.93h-366.92v299.71H4330.1v-963.74Zm342.63 429.21h221.13c86.27 0 119.1-29.72 119.1-99.89 0-72.87-32.83-102.62-119.1-102.62h-221.13v202.51Zm1029.09 125.54c-167.64-28.4-236.85-136.37-236.85-271.32 0-249.75 219.92-317.18 501.73-317.18 386.32 0 545.52 111.99 557.68 315.84h-398.53c0-39.15-20.67-63.5-52.2-76.98-30.39-14.81-69.24-20.2-106.95-20.2-102.05 0-137.25 28.31-137.25 68.84 0 26.95 10.88 44.56 44.91 49.93l409.44 67.47c172.55 28.34 279.49 117.43 279.49 280.71 0 234.94-172.54 345.62-557.72 345.62-263.64 0-551.61-40.48-552.8-323.94h413.09c1.16 32.35 12.15 53.94 36.48 68.8 25.44 13.52 63.13 20.28 116.58 20.28 106.89 0 136.1-32.42 136.1-78.32 0-28.34-15.83-56.67-61.9-64.73l-391.3-64.82Zm973.19-554.75h342.61v963.74h-342.61v-963.74Zm1612.37 588.49c-21.87 126.89-60.81 229.47-145.87 299.64-83.78 70.2-215.04 109.35-423.98 109.35-207.75 0-592.91-16.23-592.91-515.59 0-499.45 385.16-515.66 592.91-515.66 206.5 0 524.86 29.67 569.85 411.71h-386.37c-9.73-68.9-51.1-168.77-183.48-168.77-139.79 0-228.47 76.93-228.47 272.71 0 195.72 86.29 272.6 211.43 272.6 108.16 0 172.55-49.93 200.5-166h386.39v.01Zm676.75-622.24c207.77 0 592.93 16.2 592.93 515.66 0 499.36-385.16 515.59-592.93 515.59-207.83 0-592.99-16.25-592.99-515.59 0-499.47 385.16-515.66 592.99-515.66ZM8735.67 1692c0 195.71 88.73 272.59 228.47 272.6 139.7 0 228.44-76.88 228.44-272.6 0-195.77-88.74-272.71-228.44-272.71-139.74 0-228.47 76.92-228.47 272.71ZM1593.8 1219.64c22.12-462.37-376.93-983.07-920.95-1047.44l.93-6.31c536.32 0 947.47 496.12 947.47 887.51-.52 81.48-6.96 131.96-18.44 168.61l-9.01-2.37Zm-25.26 63.67c-101.09 175.3-352.22 405.94-723.7 405.94-164.24 0-271.9-45.16-303.64-56.84l2.21-6.9c26.08 5.38 52.36 9.73 78.78 13.05 26.42 3.32 52.96 5.61 79.56 6.86s53.24 1.45 79.86.62c26.62-.83 53.19-2.71 79.66-5.62-296.65-108.97-520.09-455.01-520.09-907.73 0-282.27 116.87-443.93 135.54-472.16l6.58 2.6c-15.44 33.11-95.22 194.85-95.22 456.31 0 400.52 219.51 791.5 527.89 913.57 19.56-3.2 39.03-6.92 58.39-11.17 19.36-4.24 38.6-9 57.71-14.28a1108.255 1108.255 0 0 0 112.7-37.72C823.06 1262.29 559.26 632.01 557.4 260.73l8.38-2.52c82.4 382.49 338.11 985.25 612.39 1297.78 19.57-8.42 38.9-17.39 57.96-26.91 19.06-9.51 37.85-19.57 56.35-30.15 18.49-10.58 36.68-21.69 54.54-33.3 17.86-11.61 35.39-23.73 52.56-36.34C1264.77 929.27 918.1 466.34 627.44 227.98l6.19-4.32c289.01 141.88 697.81 627.95 794.53 1183.83 52.58-41.65 97.46-85.51 133.14-129.08l7.24 4.9Z"/><path fill="#0096d6" d="M807.7 2.52c114 0 199.27 47.03 199.27 135.75 0 168.61-293.44 385.45-609.3 385.45-136.05 0-201.79-60.67-201.79-132.48 0-185.64 330.2-388.72 611.82-388.72Zm112.42 130.51c0-33.21-26.8-104.21-166.43-104.21-214.16 0-490.4 170.78-490.4 314.94 0 65.46 54.5 105.13 155.38 105.13 228.32 0 501.45-173.73 501.45-315.86Z"/><path fill="#eb7b30" d="M83.68 477.2c-7.91 13.68-39.61 75.7-39.61 139.25 0 117.86 119.18 227.28 338.39 227.28 421.7 0 908.91-310.16 908.91-598.08 0-129.23-122.43-199.5-207.44-214.03l-1.59 5.04c26.44 8.36 123.29 53.36 123.29 168.48 0 229.4-430.17 541.98-858.66 541.98-164.04 0-267.39-80.92-267.39-198.78 0-37.28 7.77-61.84 9.83-68.95l-5.73-2.19Z"/><path fill="#00984a" d="M1465.24 267.18c11.57 8.77 81.02 66.62 81.02 176 0 372.98-584.83 739.73-1101.87 739.73-308.33 0-448.89-152.13-442.66-287.2h5.52c12.09 70.15 112.2 195.67 382.06 195.67 517.68 0 1095.7-379.49 1095.7-711.98 0-57.03-15.51-92.57-24.27-108.37l4.5-3.85Z"/><path fill="#df002c" d="M1660.71 615.38c2.43 7.94 15.02 43.64 15.02 99.56 0 414.9-591.85 770.09-1106.6 770.09-264.93 0-403.28-128.59-432.49-180.81l4.72-3.48c73.3 64.06 217.69 112.73 386.2 112.73 454.62 0 1132.97-345.6 1126.91-796.59l6.24-1.5Z"/></g></svg>