<svg xmlns="http://www.w3.org/2000/svg" version="1.2" viewBox="0 0 1720 1720"><defs><radialGradient id="a" cx="364.775" cy="334.707" r="1606.082" gradientUnits="userSpaceOnUse"><stop offset="0" stop-color="#00a1df"/><stop offset=".13" stop-color="#0092d7"/><stop offset=".37" stop-color="#006cc1"/><stop offset=".62" stop-color="#003da6"/><stop offset=".73" stop-color="#043799"/><stop offset=".93" stop-color="#102777"/><stop offset="1" stop-color="#152169"/></radialGradient><radialGradient id="b" cx="247.854" cy="132.608" r="2662.991" gradientUnits="userSpaceOnUse"><stop offset=".02" stop-color="#fff"/><stop offset=".03" stop-color="#fbfeff"/><stop offset=".09" stop-color="#bae7f9"/><stop offset=".14" stop-color="#87d5f4"/><stop offset=".19" stop-color="#63c9f1"/><stop offset=".23" stop-color="#4cc1ef"/><stop offset=".26" stop-color="#44beee"/><stop offset=".28" stop-color="#37b8eb"/><stop offset=".35" stop-color="#19ace5"/><stop offset=".41" stop-color="#07a4e0"/><stop offset=".45" stop-color="#00a1df"/><stop offset=".79" stop-color="#0045ab"/><stop offset=".82" stop-color="#003da6"/><stop offset=".96" stop-color="#0059b6"/></radialGradient><radialGradient id="d" cx="669.029" cy="692.2" r="1081.999" gradientUnits="userSpaceOnUse"><stop offset=".32" stop-color="#44beee" stop-opacity="0"/><stop offset=".48" stop-color="#2b99d9" stop-opacity=".27"/><stop offset=".67" stop-color="#1476c6" stop-opacity=".58"/><stop offset=".82" stop-color="#0561ba" stop-opacity=".84"/><stop offset=".92" stop-color="#0059b6"/></radialGradient><clipPath id="c" clipPathUnits="userSpaceOnUse"/></defs><path fill="url(#a)" d="M860 1720C384.42 1720 0 1335.58 0 860S384.42 0 860 0s860 384.42 860 860-384.42 860-860 860Z"/><path fill="url(#b)" d="M228.38 859.76c0-393.93 248.68-729.8 597.7-859.04C366.93 18.63 0 396.32 0 860c0 464.16 367.65 842.32 827.51 859.28-349.49-129-599.13-465.11-599.13-859.52Z"/><g clip-path="url(#c)"><path fill="url(#d)" d="M228.38 859.76c0-393.93 248.68-729.8 597.7-859.04C366.93 18.63 0 396.32 0 860c0 464.16 367.65 842.32 827.51 859.28-349.49-129-599.13-465.11-599.13-859.52Z"/></g><path fill="#fff" fill-rule="evenodd" d="M845.43 778.06c-67.85 167.7-291.92 137.36-292.16 137.36l-48.74 155.04c-5.25 19.83 9.32 34.4 19.59 36.31H337.79c10.75-2.63 30.82-20.54 36.07-37.5l134.26-428.81c3.82-10.75 6.92-28.19-12.19-41.33h230.29c69.52 0 176.3 38.23 119.21 178.93ZM640.22 638.55l-74.53 237.69s101.29 27.72 146.92-106.54c43.71-127.81-23.89-131.15-48.26-131.15h-24.13Z"/><path fill="#fff" fill-rule="evenodd" d="M994.49 1107.01c-12.9-6.21-37.5-29.38-46.82-38.22-9.55 6.93-63.78 44.43-118.73 45.39-50.64.95-82.17-17.44-100.81-46.59-10.75-16.96-14.33-35.59-14.33-52.31 0-19.35 4.78-36.07 8.12-43.72 26.28-60.68 100.1-80.27 127.81-90.54 0 0 3.82-1.43 5.97-2.39-.24-2.86-.48-7.64-.48-14.09 0-26.52 4.78-85.05 42.52-120.64 10.75-9.79 32.02-23.17 57.1-27.95 31.29-5.73 60.92 1.91 79.79 20.54 10.99 10.75 16.96 25.09 16.96 40.38v1.91c-.48 14.57-6.69 37.03-33.68 60.68-28.43 24.84-64.27 38.7-89.83 51.36 7.17 47.3 27.48 79.55 46.59 107.74 10.99-13.62 16.72-33.21 16.72-47.3 0-15.29-12.42-22.46-12.42-22.46h64.97c-4.3 53.27-27.95 79.55-47.06 100.33 23.65 27 82.9 64.98 123.03 77.88H994.49Zm-11.22-363.83c-13.62-4.77-30.58 3.83-43.24 23.41-19.11 29.63-20.31 65.94-17.92 88.87 12.9-5.49 65.93-46.82 72.38-87.67.96-10.75-.23-20.78-11.22-24.61Zm-62.35 297.9c-24.85-32.97-48.02-80.27-58.29-122.07-25.56 10.98-72.62 42.76-72.62 86-.24 50.64 41.8 60.43 67.12 58.05 27.24-2.63 56.38-17.44 63.79-21.98Z"/><path fill="#fff" d="M1375.52 639.03c74.54-17.92 135.93 40.37 141.42 44.43l21.27-67.6c-29.39-8.84-243.19-81.23-394.41 91.25-92.93 106.07-115.62 323.46 2.15 381.75 126.13 62.35 265.41-9.56 275.68-14.58l57.57-183.46c6.21-22.22 20.31-36.55 45.15-45.87h-200.19c29.15 12.18 27 34.16 24.85 43.24l-57.58 183.47c-7.64 1.43-168.65 41.56-78.59-240.09 19.83-60.44 74.05-171.28 162.68-192.54Z"/></svg>