<svg xmlns="http://www.w3.org/2000/svg" version="1.2" viewBox="0 0 1586 1587"><defs><clipPath id="a" clipPathUnits="userSpaceOnUse"><path d="M.34.81h1585.15V1586.4H.34z"/></clipPath></defs><g clip-path="url(#a)"><path fill="#fefefe" fill-rule="evenodd" d="M462.9 1444.7c-160.5-15.8-233.4-34.3-329.9-136.6-62-65.6-99.5-171.4-99.5-267.8 0-64.7 1.7-125.9 36.6-218.7C147.5 616.1 162.7 538.1.3 349.1L340.7 7.8c76.9 59.5 230.5 169.8 452.2-7 219.9 175 378.8 68.3 452.1 7l340.5 341.3c-163.3 189-140.9 266.4-69.9 472.5 33.2 96.3 36.6 151.6 36.6 218.7 0 96.3-40.8 202.5-99.5 267.8-93.4 104.3-166.4 121-329.9 136.6-138.2 13.1-249.6 34.9-329.9 141.7-80.3-105-186.9-127.8-330-141.7z"/><path fill="#373535" fill-rule="evenodd" d="M461.2 1418.4c-156.6-17.4-215.3-34-305.5-126-57.2-58.3-94.3-157.5-94.3-252.1 0-64.5 8.7-142.9 40.2-224 84.8-218.8 66.1-311.4-64.6-465.4L344.2 42.8s199 183.8 448.7-10.5c251.4 194.3 448.6 10.5 448.6 10.5l307.3 308.1c-127.7 154-145.9 245-64.6 465.4 29.8 80.9 40.2 159.5 40.2 224 0 96.3-37.8 191.1-94.3 252.1-87.1 93.9-148.4 110.2-305.5 126-125.4 12.6-249.6 33.2-331.7 126-82.1-92.8-206-112-331.7-126z"/><path fill="#fefefe" fill-rule="evenodd" d="M469.9 1369.4c-114.9-16.4-188.6-25.1-270.6-108.5-115.2-117.3-106.9-283.2-34.9-472.5 83.8-220.5 8.7-346.6-59.5-434.1l244.5-245S541.5 261.6 792.9 97c251.4 164.6 443.4 12.3 443.4 12.3l244.4 245c-69 87.5-141.4 215.3-59.4 434.1 70.8 188.6 82.1 355.2-34.8 472.5-82.7 82.8-157.1 91.8-270.6 108.5-131 19.2-195.6 17.5-323 99.7-127.5-82.2-188.6-80.5-323-99.7z"/><path fill="#ec3438" fill-rule="evenodd" d="M415.8 1297.6c-328.2-52.5-223.5-383.2-223.5-383.2 1.8-31.6 83.8-187.3 71.6-339.6h1057.9c-10.5 154 73.4 308 71.6 339.6 0 0 106.5 332.5-223.4 383.2-155 23.9-239 16-377.1 92.8-138.1-76.8-211.8-66.4-377.1-92.8z"/><path fill="#373535" fill-rule="evenodd" d="M443.8 278.6h41v87.2h42.4v-87.2h43V499h-43v-94.3h-42.4V499h-41"/><path fill="#373535" d="M614.8 278.6h44.5V499h-44.5z"/><path fill="#373535" fill-rule="evenodd" d="M1232.4 270.8c62.9 0 67.6 39.8 66.7 70.9h-43.6c-.2-48.6-47.8-41.2-47.4-11.1.3 16.7 30.8 34.4 56.1 50 22.7 14 38.4 36.8 39.1 61.4.2 21.7-9.4 62.5-70.9 62.5-62.4 0-67.5-46.7-67.7-73.1h41.9c-.1 54 50.7 47.5 51 12.2 0 0 3.1-16.5-24.8-33.3-31.4-18.8-66.8-32.9-66-78.7 0-12.7 2.8-60.8 65.6-60.8zm-414 7.8h44.2v185.9h48.1V499h-92.3M703.8 278.2h44.3v185.9h48v34.5h-92.3M334.4 277.7c15.4 0 89-8.2 86.7 78.7-1.7 78.4-74.3 70.7-86.7 71.2v72.5h-44.5V277.7zm0 33.4v79.7c6.5 0 45.9 9.1 45.7-40.5-.1-44.1-36.6-39.2-45.7-39.2zm730.6-33.4c15.4 0 89-8.2 86.7 78.7-1.7 78.4-74.2 70.7-86.7 71.2v72.5h-44.5V277.7zm0 33.4v79.7c6.6 0 45.9 9.1 45.7-40.5-.1-44.1-36.6-39.2-45.7-39.2z"/><path fill="#373535" d="M932.5 278.6H977V499h-44.5z"/><path fill="#fefefe" fill-rule="evenodd" d="M1103.6 804.6s7.9-51.4-27.9-51.4c-55 0-90.4 117.4-90.4 117.4s52.5-44.5 134.9-14.6c71.3 25.9 74.8 101.8 51.6 170.7-7.2 21.2-16.9 41.8-28.1 60-58.4 96.3-186.4 107.9-261.9 78.8-66.6-25.6-85.2-78.2-81.8-138.8 2.7-49 19.8-103.1 37.4-152.6 56.7-159.2 166.7-234.5 310.7-186.3 77 25.7 88 103.5 80.3 126m-281.9 175c-5 11.3-9.7 24.6-13.2 37.9-8.5 33.5-8.8 67.5 15.3 74 36.3 9.7 65.8-33.6 80.5-73.6l.2-.4c14.5-39.6 28.8-94.9-13-103.6-31-6.5-54.5 30.8-69.8 65.7zm-178.2-175-124.9-9.2s7.9-51.4-27.9-51.4c-55 0-90.4 117.4-90.4 117.4S577.6 826.1 660 856c71.4 25.9 74.8 101.8 51.6 170.7-7.2 21.2-17 41.8-28 60-58.5 96.3-186.4 107.9-261.9 78.8-66.6-25.6-85.2-78.2-81.9-138.8 2.7-49 19.7-103.1 37.4-152.6C433.1 718.3 539.6 638.7 688 687.8c77 25.4 88 103.5 80.3 126zm-281 175c-5 11.3-9.7 24.6-13.3 37.9-8.8 33.5-9.6 67.5 14.5 74 36.2 9.7 65.8-33.6 80.5-73.6q.1-.2.1-.4c14.6-39.6 28.8-94.9-12.9-103.6-31-6.5-53.5 30.8-68.9 65.7z"/></g></svg>