<svg xmlns="http://www.w3.org/2000/svg" version="1.2" viewBox="0 0 1535 1810"><path fill="#253b80" d="m436.04 1748.84 31.38-199.28-69.91-1.62H63.67l232-1470.44c.72-4.44 3.06-8.58 6.48-11.52 3.42-2.93 7.8-4.55 12.37-4.55h562.89c186.88 0 315.84 38.87 383.17 115.59 31.57 35.99 51.67 73.6 61.39 114.99 10.21 43.43 10.39 95.32.42 158.61l-.72 4.62v40.55l31.57 17.87c26.58 14.1 47.71 30.23 63.91 48.71 27 30.77 44.47 69.88 51.85 116.25 7.62 47.69 5.1 104.44-7.38 168.68-14.4 73.91-37.69 138.27-69.13 190.94-28.93 48.53-65.78 88.78-109.52 119.97-41.77 29.64-91.4 52.13-147.51 66.53-54.37 14.15-116.36 21.29-184.35 21.29H907.3c-31.33 0-61.75 11.28-85.63 31.5-23.95 20.63-39.79 48.82-44.65 79.66l-3.3 17.93-55.45 351.22-2.52 12.9c-.66 4.08-1.8 6.12-3.48 7.5-1.5 1.26-3.66 2.1-5.77 2.1H436.04Z"/><path fill="#179bd7" d="M1383.12 459.91a984.25 984.25 0 0 1-5.76 33c-74.23 380.97-328.19 512.58-652.55 512.58H559.66c-39.67 0-73.09 28.79-79.28 67.9l-84.55 536.04-23.94 151.94c-4.03 25.68 15.78 48.83 41.7 48.83H706.5c34.69 0 64.16-25.19 69.62-59.38l2.88-14.88 55.15-349.84 3.54-19.19c5.4-34.32 34.92-59.51 69.61-59.51h43.81c283.79 0 505.95-115.17 570.88-448.46 27.12-139.23 13.08-255.48-58.69-337.24-21.73-24.65-48.67-45.11-80.18-61.79Z"/><path fill="#222d65" d="M1305.47 428.96c-11.34-3.3-23.04-6.3-35.05-9a668.774 668.774 0 0 0-37.14-7.02c-44.53-7.19-93.32-10.61-145.59-10.61h-441.2c-10.86 0-21.18 2.46-30.42 6.9-20.34 9.77-35.47 29.03-39.13 52.6l-93.85 594.23-2.71 17.33c6.19-39.11 39.61-67.9 79.28-67.9h165.15c324.36 0 578.32-131.67 652.55-512.58 2.22-11.28 4.08-22.26 5.76-33-18.78-9.95-39.12-18.47-61.03-25.73-5.4-1.8-10.98-3.54-16.62-5.22Z"/><path fill="#253b80" d="M576.94 461.83c3.66-23.57 18.79-42.83 39.13-52.54 9.3-4.44 19.56-6.9 30.42-6.9h441.2c52.27 0 101.06 3.42 145.59 10.61 12.72 2.04 25.08 4.38 37.14 7.02 12.01 2.7 23.71 5.7 35.05 9 5.64 1.68 11.22 3.42 16.68 5.16 21.91 7.26 42.25 15.84 61.03 25.73 22.09-140.78-.18-236.64-76.33-323.44C1222.9 40.91 1071.37 0 877.47 0H314.58c-39.61 0-73.4 28.79-79.52 67.96L.6 1553.52c-4.62 29.4 18.06 55.91 47.71 55.91h347.52l87.26-553.37 93.85-594.23Z"/></svg>