<svg xmlns="http://www.w3.org/2000/svg" version="1.2" viewBox="0 0 1249 1533"><path fill="#51b2ac" fill-rule="evenodd" d="M1248 .5v295.6c-.5 24.2-5.4 47.9-15.3 70.1-9.4 22.7-23.7 42.4-41 59.2-17.7 16.8-38.5 30.1-61.2 39-22.2 8.9-46.4 12.9-71.1 12.4H681.8c-24.2-.5-47.9 3.9-70.2 12.8-22.7 8.9-42.9 22.2-60.2 39-16.8 16.8-30.6 37-40 58.7-9.9 22.2-14.8 45.9-14.8 70.1v674.2c-1 26.7-6.4 53.3-17.3 78-10.8 24.2-26.1 46.4-45.4 65.2-19.2 18.7-42 33.5-67.1 43.4-24.7 9.9-51.4 14.8-78 14.3H.9V654c.5-24.2 5.5-47.9 15.3-70.6 9.4-22.2 23.7-42 41-58.8 17.8-17.2 38.5-30.1 60.7-39 22.8-8.8 46.9-12.8 71.6-12.3h125.4c24.2.5 47.9-3.9 70.1-12.8 22.3-9.4 42.5-22.2 59.8-39 17.3-16.8 31.1-37 40.5-58.8 9.3-22.2 14.3-45.9 14.8-70V181.1c.5-24.2 5.4-48.4 15.3-70.6 9.4-22.2 23.7-42.4 41-59.2 17.7-16.8 38.5-30.1 61.2-38.5C640.3 3.9 664.5-.5 688.7.5z"/></svg>