<svg xmlns="http://www.w3.org/2000/svg" version="1.2" viewBox="0 0 1512 1515"><path fill="#fff" d="M756 1511.86C338.01 1511.86.14 1173.99.14 756S338.01.14 756 .14 1511.86 338.01 1511.86 756 1173.99 1511.86 756 1511.86Z"/><path fill="#006341" fill-rule="evenodd" d="M1510.7 797.44a752.77 752.77 0 0 1-4.79 53.69c-85.56 14.16-116.14-62.08-203.79-58.25 5.24 18.6 9.5 37.54 12.77 56.89 72.28-.05 101.41 67.52 181.83 57.57a768.257 768.257 0 0 1-15.2 61.12c-63.58 6.25-85.98-56.94-159.57-55.2.6 10.48.93 21.06.93 31.74l-.3 17.66 142.9 54.52c-7.49 20.33-15.85 40.21-24.97 59.69-42.96-2.37-57.77-57.47-123.12-53.09a575.615 575.615 0 0 1-7.43 41.87c56.76-3.98 68.98 48.27 109.64 52.51-10.36 18.89-21.52 37.28-33.38 55.2-24.09-12.9-44.97-51.83-90.65-54.22 4.69-14.46 8.79-29.12 12.27-44.04-40.51 0-86.84-15.79-125.69-51.17 12.6-71.7-98.68-144.71-98.68-197.21 0-57.04 28.84-88.61 28.84-165.5 0-57.06-27.71-118.96-69.51-161.26-8.08-8.22-16.37-14.87-25.9-20.84 38.4 47.52 67.88 103.85 67.88 169.1 0 72.41-33.69 110.63-33.69 177.47 0 66.81 97.75 124.63 97.75 193.53 0 27.11-8.66 53.59-37.23 105.59 43.88 43.84 101.05 67.74 137.93 67.74 11.97 0 18.39-3.65 22.68-13.05 3.67-8.11 7.18-16.32 10.48-24.61 39.73 1.54 57.92 37.64 79.91 52.05a760.934 760.934 0 0 1-38.02 46.99c-14.74-16.33-34.54-43.79-63.53-51.42a582.426 582.426 0 0 1-16.46 29.77c24.97 6.81 42.05 32 55.28 48.58a764.536 764.536 0 0 1-44.54 42.52c-9.65-15.01-24.67-34.06-41.5-44.34-6.22 8.42-12.7 16.63-19.37 24.62 14.31 9.7 26.93 27.16 35.17 41.39-17.84 14.31-36.28 27.89-55.38 40.59-9.42-76.77-114.2-129.37-85.96-218.43-9.27 15.69-20.33 35.32-20.33 58.95 0 64.47 68.68 115.64 74.15 179.71-14.24 8.51-28.8 16.52-43.64 24.11-2.47-70.42-75.18-147.49-75.18-205.28 0-64.52 84.5-129.32 84.5-205.48 0-76.21-97.5-128.96-97.5-195.88 0-66.86 41.47-105.33 41.47-191.04 0-62.78-29.83-126.32-75.91-166.91-8.16-7.2-16.2-12.92-25.84-17.94 43.45 52.13 68.65 99.42 68.65 171.17 0 80.59-47.52 125.34-47.52 204.24 0 78.94 95.69 122.82 95.69 196.39 0 73.56-89.06 135.56-89.06 211.14 0 68.76 78.5 137.38 79.66 218.96a743.483 743.483 0 0 1-52.43 20.51c9.98-82.41-78.37-167.41-78.37-234.65 0-73.52 92.38-136.7 92.38-215.96 0-79.31-93.92-116.17-93.92-197.57 0-81.35 57.62-126.4 57.62-216.29 0-70.06-34.59-133.07-85.13-172.12l-3.2-2.42c-4.76-3.53-8.69.73-5.32 4.91 35.78 44.67 54.9 89.85 54.9 156.73 0 82.24-66.18 149.05-66.18 228.71 0 94.02 88.88 120.9 88.88 198.05 0 77.11-95.31 138.81-95.31 220.69 0 75.94 90.19 160.21 74.73 247.86-18.09 4.68-36.43 8.76-55.05 12.09 16.93-109.14-71.55-187.52-71.55-258.91 0-77.3 98.71-146.2 98.71-221.73 0-71.25-70.85-94.53-80.17-167.41-1.28-9.96-9.27-17.34-20.28-15.5-14.39 2.62-32.83 12.1-61.8 12.1s-47.41-9.5-61.83-12.1c-10.98-1.81-18.97 5.57-20.25 15.5-9.3 72.88-80.19 96.13-80.19 167.41 0 75.53 98.73 144.41 98.73 221.73 0 71.39-88.48 149.77-71.57 258.91-18.6-3.35-36.96-7.43-55.05-12.09-15.47-87.65 74.75-171.92 74.75-247.86 0-81.88-95.33-143.58-95.33-220.69 0-77.15 88.9-104.03 88.9-198.05 0-79.66-66.21-146.45-66.21-228.71 0-66.86 19.13-112.03 54.93-156.73 3.35-4.18-.56-8.44-5.34-4.91l-3.18 2.42c-50.49 38.95-85.05 101.96-85.05 172.02 0 89.89 57.62 134.94 57.62 216.29 0 81.37-93.93 118.23-93.93 197.57 0 79.26 92.39 142.44 92.39 215.96 0 67.26-88.35 152.24-78.35 234.65-17.81-6.2-35.3-13.05-52.46-20.51 1.19-81.58 79.64-150.23 79.64-218.96 0-75.58-89.01-137.58-89.01-211.14 0-73.57 95.64-117.46 95.64-196.39 0-78.9-47.49-123.65-47.49-204.24 0-71.75 25.17-119.04 68.62-171.17-9.67 5.02-17.68 10.74-25.82 17.94-46.08 40.59-75.88 104.13-75.88 166.91 0 85.71 41.47 124.18 41.47 191.04 0 66.92-97.5 119.67-97.5 195.88 0 76.16 84.5 140.98 84.5 205.48 0 57.82-72.76 134.89-75.21 205.28-14.84-7.59-29.4-15.6-43.63-24.11 5.49-64.07 74.14-115.24 74.14-179.71 0-23.63-11.03-43.26-20.33-58.95 28.24 89.06-76.54 141.66-85.96 218.43-19.1-12.7-37.56-26.28-55.37-40.59 8.21-14.21 20.83-31.69 35.17-41.39-6.71-7.96-13.15-16.2-19.38-24.62-16.85 10.28-31.89 29.33-41.52 44.34a773.37 773.37 0 0 1-44.51-42.52c13.22-16.58 30.3-41.77 55.27-48.58a566.04 566.04 0 0 1-16.45-29.78c-29 7.64-48.83 35.1-63.54 51.42-13.28-15.16-25.97-30.81-38.02-46.98 22-14.41 40.19-50.54 79.89-52.05 3.33 8.26 6.83 16.48 10.51 24.61 4.28 9.4 10.73 13.05 22.67 13.05 36.89 0 94.03-23.91 137.94-67.74-28.57-52-37.24-78.48-37.24-105.59 0-68.88 97.75-126.7 97.75-193.54 0-66.83-33.68-105.05-33.68-177.46 0-65.25 29.48-121.58 67.87-169.1-9.52 5.97-17.81 12.62-25.9 20.84-41.79 42.32-69.51 104.2-69.51 161.26 0 76.89 28.87 108.46 28.87 165.5 0 52.5-111.3 125.51-98.7 197.21-38.85 35.37-85.18 51.17-125.72 51.17 3.53 14.92 7.63 29.58 12.27 44.04-45.65 2.42-66.54 41.34-90.65 54.22a766.192 766.192 0 0 1-33.38-55.2c40.64-4.24 52.88-56.49 109.67-52.51-2.97-13.78-5.49-27.76-7.46-41.87-65.35-4.38-80.16 50.74-123.12 53.08-9.12-19.47-17.48-39.35-24.97-59.68l142.93-54.52-.31-17.66c0-10.68.33-21.26.91-31.74-73.59-1.72-95.99 61.44-159.57 55.2-5.85-20.08-10.96-40.44-15.17-61.12 80.37 9.95 109.52-57.62 181.82-57.57 3.28-19.35 7.53-38.29 12.75-56.89-87.65-3.8-118.23 72.43-203.77 58.25a735.701 735.701 0 0 1-4.78-53.69C100.72 808.45 138 726.7 228.55 736.7a529.728 529.728 0 0 1 29.65-62.73C144.68 654.02 106.13 748.95.47 734.36 11.88 326.95 345.77.14 756 .14c410.23 0 744.12 326.81 755.53 734.32-105.69 14.59-144.23-80.32-257.73-60.39 11.16 20.16 21.09 41.09 29.65 62.73 90.5-10.02 127.78 71.75 227.25 60.64ZM611.67 502.96c-1.19 3.93.42 6.47 4.96 4.43 12.62-5.67 26.98-8.39 42.58-8.39 28.62 0 53.84 10.51 68.75 28.8 6.6 21.76 7.15 53.28-.3 71.27-11.79-2.65-16.03-11.77-27.54-11.77-11.51 0-20.43 8.09-39.96 8.09-19.5 0-21.79-9.22-34.61-9.22-15.09 0-17.86 15.54-17.86 33.08 0 78.18 71.85 185.75 148.28 185.75 76.42 0 148.27-107.57 148.27-185.75 0-17.54-3.6-32.55-19.37-34.59-7.87 5.67-15.1 10.73-33.08 10.73-19.53 0-24.92-8.09-36.41-8.09-13.88 0-12.49 29.28-28.97 30.92-10.99-26.41-11.51-60.27-2.39-90.42 14.94-18.29 40.13-28.8 68.75-28.8 15.59 0 30.05 2.75 42.55 8.39 4.56 2.04 6.15-.53 4.96-4.43-15.36-51.27-74.12-90.95-144.28-90.95s-128.94 39.68-144.33 90.95ZM756 654.52c9.17 0 11.21-3.5 17.51-3.45 6 .05 17.61 4.79 20.1 9.14-.17 2.25-1.03 4.21-2.59 5.97-13.43 2.02-19.45 9.48-34.99 9.48-15.55 0-21.6-7.46-35-9.48-1.61-1.76-2.42-3.75-2.59-5.97 2.52-4.35 14.1-9.12 20.08-9.14 6.27-.03 8.28 3.45 17.48 3.45Zm207.42-304.59c16.53-46.86 37.51-87.85 64.12-127.58-70.55 7.48-129.52 33.28-172.55 77.37l-33.69-88.3 74.78-66.04-100.12-7.08L756 45.19l-39.98 93.11-100.12 7.08 74.77 66.04-33.66 88.3c-43.05-44.09-102.03-69.89-172.52-77.37 26.55 39.76 47.54 80.75 64.07 127.58-38.9-31.72-87.02-50.74-142.42-54.67 33.23 42.73 62.68 88.28 84.5 137.25 2.47 5.52 7.76 7.34 13.47 4.49 75.89-37.72 161.39-58.93 251.86-58.93 90.47 0 175.96 21.24 251.89 58.93 5.72 2.85 11.01 1.03 13.45-4.49 21.85-48.97 51.3-94.52 84.55-137.25-55.4 3.96-103.52 22.98-142.44 54.67ZM250.54 499.88c-8.92-53.53-37.96-101.1-79.33-129.79-5.72-3.96-11.67-.21-11.14 6.42 8.74 113.12-57.39 211.35-138.71 297.69 83.82 25.19 155.16-82.74 263.87-45.07 39-58.08 88.53-108.54 145.87-148.7-55.65-22.75-123.02-17.51-180.56 19.45ZM701.15 701.2s20.74 4.89 54.85 4.89 54.85-4.89 54.85-4.89 4 1.41 5.04 4.97C800.04 718.36 789.1 746.1 756 746.1s-44.04-27.74-59.91-39.93c1.06-3.53 5.06-4.97 5.06-4.97Zm117.61-158.06c-1.29 3.75-1.29 9.35.53 13.08 30.51-10.46 57.41-10.86 70.41 3.67 6.93-6.29 9.15-11.96 9.15-18.54 0-10.15-10.33-17.18-31.14-17.18-16.83 0-36.56 5.16-48.95 18.97ZM622.3 559.89c14.71-14.73 45.72-14.1 77.95-2.21 1.41-16.03-27.29-33.54-55.96-33.54-20.83 0-31.14 7.03-31.14 17.21 0 6.58 2.22 12.27 9.15 18.54Zm209.71-232.96c-6.63-1.19-38.57-6.55-76.01-6.55-37.44 0-69.38 5.34-76.01 6.55-3.8.68-5.26-3.05-2.37-5.22 2.62-1.94 78.35-59.58 78.35-59.58l78.33 59.58c2.95 2.17 1.51 5.9-2.29 5.22Zm658.66 347.32c-81.33-86.34-147.43-184.57-138.69-297.69.53-6.63-5.44-10.4-11.14-6.42-41.39 28.69-70.44 76.26-79.33 129.79-57.57-36.96-124.91-42.22-180.56-19.45 57.26 40.11 106.82 90.57 145.87 148.7 108.66-37.67 180.03 70.24 263.85 45.07Z"/></svg>