<svg xmlns="http://www.w3.org/2000/svg" version="1.2" viewBox="0 0 1658 1658"><path fill="#00a8e0" d="M321.56 1483.27c140.44 108.76 316.7 174.1 507.95 174.1 209.28 0 400.07-77.73 545.68-205.33 1.76-1.56.89-2.6-.85-1.56-65.34 43.65-251.56 138.95-544.83 138.95-254.85 0-415.91-56.89-506.87-107.68-1.74-.86-2.38.45-1.08 1.52Zm564.17 42.34c203.84 0 427.84-55.59 561.8-165.63 36.66-29.98 71.58-69.89 102.86-123.51 18-30.86 35.61-67.52 49.95-103.56.64-1.75-.45-2.61-1.77-.63-124.58 183.41-485.33 297.81-857.83 297.81-263.3 0-546.6-84.23-657.52-245.07-1.09-1.49-2.18-.85-1.52.86 103.33 219.71 416.79 339.73 804.03 339.73Zm-222.71-364.49c-423.95 0-623.84-197.54-660.11-332.34-.44-1.95-1.73-1.52-1.73.23 0 45.38 4.54 103.95 12.35 142.82 3.73 18.92 19.12 48.62 41.69 72.29 102.66 107.05 358.6 257.05 801.84 257.05 603.9 0 741.98-201.25 770.17-267.43 20.16-47.34 30.61-132.87 30.61-204.73 0-17.38-.43-31.27-1.09-44.91 0-2.21-1.28-2.39-1.73-.23-30.17 161.94-546.14 377.25-992 377.25ZM81.04 473.64c-24.3 48.23-51.22 129.6-59.23 171.72-3.51 18.04-2.01 26.71 4.31 40.17 50.82 107.86 307.84 280.43 907.36 280.43 365.76 0 649.89-89.9 695.92-253.94 8.48-30.2 8.93-62.09-1.96-105.05-12.17-48.01-34.95-104-54.24-143.31-.63-1.28-1.76-1.09-1.53.42 7.17 215.17-592.6 353.84-895.21 353.84-327.79 0-601.26-130.66-601.26-295.63 0-15.86 3.28-31.71 7.38-48.21.41-1.51-.88-1.76-1.54-.44Zm1295.49-264.18c3.48 5.46 5.22 11.28 5.22 19.12 0 92.04-281.57 254.86-729.78 254.86-329.33 0-390.98-122.23-390.98-199.96 0-27.78 10.65-56.21 34.11-85.08 1.28-1.72.19-2.38-1.29-1.11-42.78 36.28-82.09 77.09-116.58 121.15-16.47 20.84-26.7 39.3-26.7 50.36 0 161.08 403.73 277.87 781.23 277.87 402.23 0 581.74-131.36 581.74-246.81 0-41.26-16.05-65.34-57.12-112.04-26.66-30.38-51.87-55.11-78.56-79.46-1.29-1.06-2.19-.2-1.29 1.1Zm-123.31-92.02C1129.08 43 984.92.65 829.51.65c-156.49 0-304.99 43.83-429.57 120.24-37.37 23.01-58.41 41.45-58.41 65.16 0 69.87 163.22 144.99 452.79 144.99 286.57 0 508.84-82.29 508.84-161.49 0-18.91-16.52-32.14-49.94-52.11Z"/></svg>