<svg xmlns="http://www.w3.org/2000/svg" version="1.2" viewBox="0 0 1509 1508"><path fill="#c00" fill-rule="evenodd" d="M.22 753.95C.22 337.13 337.54-.07 754.5-.07s754.28 337.2 754.28 754.02-337.32 754.02-754.28 754.02C337.54 1510.31.22 1170.77.22 753.95Zm754.28 503.46c278.76 0 503.64-224.8 503.64-503.46 0-278.66-224.88-503.46-503.64-503.46s-503.64 224.8-503.64 503.46c0 278.66 224.88 503.46 503.64 503.46Zm250.65-503.46c0 138.16-112.44 250.56-250.65 250.56s-250.65-112.4-250.65-250.56S616.29 503.39 754.5 503.39s250.65 112.4 250.65 250.56Z"/></svg>