<svg xmlns="http://www.w3.org/2000/svg" version="1.2" viewBox="0 0 912 1582"><path fill="#002677" fill-rule="evenodd" d="M253.45 1509.18a432.99 432.99 0 0 0 54.76 31.03A433.09 433.09 0 0 0 366.9 1563c20.09 6.16 40.6 10.86 61.36 14.05 20.77 3.2 41.75 4.87 62.76 5.03 246.74 0 420.97-196.89 420.97-534.66V0l-91.36 43.54v986.74c0 331.15-167.27 505.29-407.56 505.29a486.65 486.65 0 0 1-80.91-6.54 485.513 485.513 0 0 1-39.77-8.29 487.245 487.245 0 0 1-38.94-11.56Zm118.78-22.41c211.17 0 362.9-153.01 362.9-452.5V76.38l-89.75 42.43v907.39c0 286.26-134.58 412.88-336.57 412.88-48.82 0-104.27-11.88-159.63-30.3 65.98 48.97 145.11 77.99 223.05 77.99ZM85.76 1319.25a313.937 313.937 0 0 0 43.31 28.6 314.098 314.098 0 0 0 149.43 38.61c166.33 0 282.4-114.74 282.4-368.06V152.76l-88.39 42.43v836.44c0 225.58-96.37 311.29-253.45 311.29a481.984 481.984 0 0 1-67.49-7.14 482.765 482.765 0 0 1-33.2-7.11c-10.98-2.76-21.85-5.9-32.61-9.42ZM389.39 229.56 0 404.98v670.45c0 127.97 80.49 213.69 199.28 213.69 118.78 0 190.11-87.33 190.11-233.72V229.56Z"/></svg>