<svg xmlns="http://www.w3.org/2000/svg" version="1.2" viewBox="0 0 1675 911"><path fill="#d52b1e" d="m1584.38 0-224.26 480.52-84.34-182.07h-91.2l138.67 297.82h73.72L1674.98 0h-90.6Z"/><path fill-rule="evenodd" d="M990.19 716.39h173.67c-10 51.93-47.49 104.5-99.33 140.15-48.74 33.16-107.45 53.19-181.79 53.19-196.16 0-314.23-136.4-314.23-315.35 0-177.68 123.7-313.46 302.37-313.46 83.7 0 149.28 25.67 199.26 71.96 70.6 63.82 104.32 165.79 103.08 293.43H745.93c9.36 80.11 58.09 132.04 138.05 132.04 53.1 0 89.33-23.16 106.21-61.96ZM747.17 527.44h242.4c-7.5-69.46-51.22-116.99-114.95-116.99-74.96 0-113.08 46.91-127.45 116.99ZM1.29 298.45h186.78L303.63 680.1h2.51L421.7 298.45h181.8L397.33 892.21h-189.9L1.29 298.45Z"/></svg>