<svg xmlns="http://www.w3.org/2000/svg" version="1.2" viewBox="0 0 1525 1708"><path fill="#fcb61a" d="M762.52 574.85c39.77 0 73.26-20.78 77.62-47.49l39.43-446.88C879.57 36.22 827.5 0 762.52 0c-65.33 0-117.05 36.22-117.05 80.48l39.77 446.88c4.19 26.71 37.51 47.49 77.28 47.49ZM520.64 714.68c19.71-34.91 18.57-73.66-2.71-90.95L149.87 366.16c-38.28-22.34-95.59 4.28-128.38 60.66-32.71 56.3-26.08 119.49 11.42 141.4l407.48 189.06c26.08 9.77 60.18-8.38 80.25-42.95m483.71-.01c20.84 34.56 54.94 52.72 80.33 43.46l407.48-189.58c37.85-22.34 43.52-84.92 11.51-141.22-32.7-56.38-90.36-82.83-128.56-60.92l-368.14 257.31c-20.41 17.54-21.89 56.47-2.19 91.3m-242.26 418.4c39.77 0 73.26 20.77 77.62 47.48l39.43 446.89c0 44.25-52.07 80.12-117.05 80.12-65.33 0-117.05-35.87-117.05-80.12l39.77-446.89c4.19-26.71 37.51-47.48 77.28-47.48Zm241.83-139.45c20.84-34.65 54.94-53.15 80.33-43.11l407.48 189.23c37.85 21.9 43.52 85.01 11.51 141.39-32.7 55.95-90.36 82.57-128.56 60.67l-368.14-257.66c-20.41-17.37-21.89-56.13-2.19-90.52m-484.14-.38c19.71 34.82 18.57 73.49-2.71 90.95l-368.06 257.22c-38.28 22.35-95.59-4.36-128.38-60.31-32.71-56.3-26.08-119.49 11.42-141.4l407.48-189.23c26.08-9.95 60.18 8.38 80.25 42.77Z"/></svg>