<svg xmlns="http://www.w3.org/2000/svg" version="1.2" viewBox="0 0 1510 1075"><path fill="#231f20" d="M1509.8 55.4c-16.7 0-29.3 4.2-41.9 8.4-16.8 4.2-29.4 12.6-46.1 21-16.8 8.4-29.4 20.9-42 37.7-12.6 16.8-20.9 33.5-29.3 58.7-33.6 113.2-75.5 247.3-121.7 402.4q-69.2 226.4-150.9 490.5h-67.1L742.3 256.7l-276.8 813.2h-62.9C352.3 893.8 302 713.6 247.4 529.1c-54.5-184.4-88-310.2-104.8-377.2-4.2-12.6-8.4-25.2-21-37.8-8.4-12.6-20.9-25.1-33.5-33.5-12.6-8.4-29.4-16.8-42-21-16.7-4.2-29.3-4.2-46.1-4.2V.9h427.8v54.5c-29.4 0-62.9 4.2-92.3 8.4-29.3 8.4-41.9 16.8-41.9 29.4 0 4.2 0 12.5 4.2 16.7 0 8.4 4.2 16.8 4.2 21 12.6 41.9 33.5 117.4 58.7 218 29.3 100.6 71.3 251.5 130 452.7L754.9 17.7h71.3l264.2 796.5c37.8-121.6 67.1-230.6 92.3-322.8 25.2-92.2 46.1-171.9 62.9-234.7 12.6-46.2 21-75.5 25.2-92.3 4.2-12.5 4.2-29.3 4.2-41.9 0-16.8-12.6-29.3-33.6-41.9q-56.6-25.2-113.2-25.2V.9h381.6z"/></svg>