<svg xmlns="http://www.w3.org/2000/svg" version="1.2" viewBox="0 0 1572 1171"><path fill="#0080aa" fill-rule="evenodd" d="M1392.8 13.6H1571l-329.6 918.9c-62.2 172.6-157.6 238.5-291 238.5h-57.2v-142.4h40c89.7 0 122.3-53.5 156.6-140l44.2-110.5h-11.3c-86.5 0-134.3-94.1-182.9-220.9l-85.1-217.5C803.5 209.2 773.5 153 713 153c-56.9 0-89.1 42.9-156.3 133.4l-74.5 98.5 297.3 393.2H579.6L383.4 509.7 260.7 680.6c-48.9 68.9-106.1 96.9-188.5 96.9H1V637.4h33.9c48.6 0 83.8-23 141-99.8l111.8-149.7L2 13h198.5l185.6 249.5 57.5-77.5C522.8 77.8 588.3.7 716 .7c152.3 0 218.8 80.8 284.3 260.8l69.9 193.3c42.2 114.7 65.8 178.3 108.4 178.3h5.6z"/></svg>