<svg xmlns="http://www.w3.org/2000/svg" version="1.2" viewBox="0 0 1572 1572"><path fill="#1081c5" fill-rule="evenodd" d="M785.9 1571.3C351.6 1571.3.6 1220.2.6 785.9.6 351.6 351.6.6 785.9.6c434.4 0 785.4 351 785.4 785.3 0 434.3-351 785.4-785.4 785.4zm-532.2-281.8L784.1 282.3l-5.2-.5c-261.8 0-477.8 202.8-499.2 459.1V260.5h1017c-132-128.3-312.2-207.3-510.8-207.3-439 0-732.8 293.7-732.8 732.6 0 195.2 76.3 372.4 200.6 503.7zm12.9 13c132.8 133.5 316.3 216.2 519.3 216.2 404.7 0 732.8-328.2 732.8-732.9 0-199.6-79.7-380.5-209.1-512.7L784.3 1281.5c250.6-2.6 456.9-190 489.9-432.1v453.1z"/></svg>