<svg xmlns="http://www.w3.org/2000/svg" version="1.2" viewBox="0 0 1643 1138"><path fill="#ff6400" fill-rule="evenodd" d="m1551.1 762.5 91 127.6c-58.2 58.3-269.4 247.8-582.5 247.8-440.6 3.7-469.7-324.3-906.7-324.3H21.8L0 682.3l495.2-506.5H112.9L142 19h629.9l-25.5 142.2-484.2 492c367.7 0 458.7 331.6 822.8 331.6 222.1 3.7 404.2-153 466.1-222.3zm-7.3-430c0 266-189.3 499.3-458.8 499.3-200.2 0-324-138.5-324-328C761 234.1 950.3.8 1219.8.8c214.8 0 327.7 153.1 324 331.7zm-193 0c0-80.2-36.4-182.2-152.9-182.2-152.9 0-240.3 200.4-240.3 349.8 0 109.4 61.9 185.9 156.6 185.9 142 0 236.6-196.8 236.6-353.5z"/></svg>